<?xml version="1.0" encoding="utf-8"?>
<!-- Generator: Adobe Illustrator 22.0.1, SVG Export Plug-In . SVG Version: 6.00 Build 0)  -->
<svg version="1.1" id="Capa_1" xmlns="http://www.w3.org/2000/svg" xmlns:xlink="http://www.w3.org/1999/xlink" x="0px" y="0px"
	 viewBox="0 0 612 792" style="enable-background:new 0 0 612 792;" xml:space="preserve">
<style type="text/css">
	.st0{fill:#4DE680;}
	.st1{fill:#FDFBFB;}
</style>
<g>
	<path class="st0" d="M527.9,332.1c0,178.5-201.5,343.7-201.5,343.7c-11.7,9.7-31.1,9.7-42.8,0c0,0-201.5-165.3-201.5-343.7
		c0-123.1,99.8-222.9,222.9-222.9S527.9,209,527.9,332.1z"/>
</g>
<g>
	<path class="st1" d="M375.4,460.5l16.1,16.1c-5.1,3.4-11.2,5.3-17.7,5.3H237.2c-17.7,0-32-14.4-32-32v-84.4
		c0-8.2,3.1-15.7,8.2-21.4c-5.1-5.7-8.2-13.2-8.2-21.4v-32.7l21.4,21.4v11.3c0,5.9,4.8,10.7,10.7,10.7h11.3l21.4,21.4h-32.7
		c-5.9,0-10.7,4.8-10.7,10.7v84.4c0,5.9,4.8,10.7,10.7,10.7h136.7C374.4,460.6,374.9,460.5,375.4,460.5z M274.5,376.2v21.4h38
		l-21.4-21.4H274.5z M336.5,251.3h-61.9v21.4h61.9V251.3z M442,466.6l-15.1,15.1L169,223.9l15.1-15.1l22.4,22.4
		c4-13.1,16.2-22.6,30.6-22.6h136.7c17.7,0,32,14.4,32,32v82.2c0,8.2-3.1,15.7-8.2,21.4c5.1,5.7,8.2,13.2,8.2,21.4v65L442,466.6z
		 M373.8,354.9h-43.6l54.3,54.3v-43.6C384.5,359.7,379.7,354.9,373.8,354.9z M226.5,251.1l82.4,82.4h65c5.9,0,10.7-4.8,10.7-10.7
		v-82.2c0-5.9-4.8-10.7-10.7-10.7H237.2c-5.9,0-10.7,4.8-10.7,10.7V251.1z"/>
</g>
</svg>
