<?xml version="1.0" encoding="utf-8"?>
<!-- Generator: Adobe Illustrator 22.0.0, SVG Export Plug-In . SVG Version: 6.00 Build 0)  -->
<svg version="1.1" id="圖層_1" xmlns="http://www.w3.org/2000/svg" xmlns:xlink="http://www.w3.org/1999/xlink" x="0px" y="0px"
	 viewBox="0 0 365 365" style="enable-background:new 0 0 365 365;" xml:space="preserve">
<style type="text/css">
	.st0{fill:#6BBD77;}
	.st1{fill:none;stroke:#FFFFFF;stroke-width:15.928;stroke-miterlimit:10;}
	.st2{fill:none;stroke:#FFFFFF;stroke-width:15.7121;stroke-miterlimit:10;}
	.st3{fill:#6FC076;}
	.st4{fill:#B4DBAF;}
	.st5{fill:#73C16F;}
	.st6{fill:#F27F98;}
	.st7{fill:#F77E9C;}
	.st8{fill:#FFFFFF;}
	.st9{fill:#4DE680;}
	.st10{fill:#4695FC;}
	.st11{fill:#FF976A;}
	.st12{fill:#F88181;}
</style>
<g>
	<path class="st0" d="M233.5,249.6c0,0-61.9,2.5-90,29.5c-15.6,15-13,53.3-13,53.3s77.5,13.2,97-30.4
		C238.4,277.7,233.5,249.6,233.5,249.6z"/>
</g>
<g>
	<path class="st7" d="M282.5,129c0,80.1-90.4,154.2-90.4,154.2c-5.3,4.3-13.9,4.3-19.2,0c0,0-90.4-74.2-90.4-154.2
		c0-55.2,44.8-100,100-100S282.5,73.8,282.5,129z"/>
	<g id="Layer_5_38_">
		<path class="st8" d="M242.1,91.8c0.6,1.4-0.2,2.6-1.8,2.6H124.9c-1.6,0-2.4-1.2-1.8-2.6l8.5-22.9c0.5-1.5,2.3-2.6,3.8-2.6H229
			c1.6,0,3.3,1.2,3.9,2.6L242.1,91.8z"/>
		<path class="st8" d="M122.1,104.8c0,5.6,4.6,10.2,10.2,10.2c4.2,0,7.9-2.6,9.4-6.3c0.3-0.7,1-0.7,1.3,0c1.6,3.7,5.2,6.3,9.4,6.3
			c4.2,0,7.9-2.6,9.4-6.3c0.3-0.7,1-0.8,1.3-0.1c1.5,3.7,5.2,6.4,9.5,6.4c4.3,0,7.9-2.6,9.5-6.4c0.3-0.7,0.9-0.7,1.2,0
			c1.5,3.7,5.2,6.4,9.5,6.4c4.3,0,7.9-2.6,9.5-6.4c0.3-0.7,0.9-0.7,1.2,0c1.5,3.7,5.2,6.4,9.5,6.4s7.9-2.6,9.5-6.4
			c0.3-0.7,0.9-0.7,1.2,0c1.5,3.7,5.2,6.4,9.4,6.4c5.6,0,10.2-4.6,10.2-10.2v-4.3c0,0,0-2-2.1-2c-29,0-86.6,0-116.1,0
			c-2.8,0-2.8,2.1-2.8,2.1V104.8z"/>
		<path class="st8" d="M240.2,191.6L240.2,191.6v-40.4c0-2.5-2-4.5-4.5-4.5H129.5c-2.5,0-4.5,2-4.5,4.5v40.4c0,0.3,0,1.4,0,1.8
			c0,4.4,3.5,7.9,7.9,7.9c3,0,5.6-1.7,6.9-4.1c0.2-0.4,0.3-1.1,2.2-1.1h81.3c1.8,0,2.1,0.7,2.3,1.1c1.3,2.5,3.9,4.1,6.9,4.1
			c4.4,0,7.7-3.5,7.7-7.9C240.2,192.8,240.2,192.6,240.2,191.6z"/>
		<path class="st8" d="M145.7,117.9c-0.1-0.7-0.6-1.3-1.4-1.3h-4.1c-0.8,0-1.4,0.6-1.4,1.4v0v23.3v0c0,0.8,0.6,1.4,1.4,1.4h4.1
			c0.7,0,1.3-0.6,1.4-1.3v0v-0.1V118V117.9C145.7,117.9,145.7,117.9,145.7,117.9z"/>
		<path class="st8" d="M226.8,117.9c-0.1-0.7-0.6-1.3-1.4-1.3h-4.1c-0.8,0-1.4,0.6-1.4,1.4v0v23.3v0c0,0.8,0.6,1.4,1.4,1.4h4.1
			c0.7,0,1.3-0.6,1.4-1.3v0v-0.1V118V117.9C226.8,117.9,226.8,117.9,226.8,117.9z"/>
	</g>
</g>
</svg>
