<?xml version="1.0" encoding="utf-8"?>
<!-- Generator: Adobe Illustrator 22.0.0, SVG Export Plug-In . SVG Version: 6.00 Build 0)  -->
<svg version="1.1" id="圖層_1" xmlns="http://www.w3.org/2000/svg" xmlns:xlink="http://www.w3.org/1999/xlink" x="0px" y="0px"
	 viewBox="0 0 365 365" style="enable-background:new 0 0 365 365;" xml:space="preserve">
<style type="text/css">
	.st0{fill:#6BBD77;}
	.st1{fill:none;stroke:#FFFFFF;stroke-width:15.928;stroke-miterlimit:10;}
	.st2{fill:none;stroke:#FFFFFF;stroke-width:15.7121;stroke-miterlimit:10;}
	.st3{fill:#6FC076;}
	.st4{fill:#B4DBAF;}
	.st5{fill:#73C16F;}
	.st6{fill:#F27F98;}
	.st7{fill:#F77E9C;}
	.st8{fill:#FFFFFF;}
	.st9{fill:#4DE680;}
	.st10{fill:#4695FC;}
	.st11{fill:#FF976A;}
	.st12{fill:#F88181;}
</style>
<g>
	<path class="st0" d="M233.5,249c0,0-61.9,2.5-90,29.5c-15.6,15-13,53.3-13,53.3s77.5,13.2,97-30.4C238.4,277.1,233.5,249,233.5,249
		z"/>
</g>
<g>
	<path class="st9" d="M282.5,129c0,80.1-90.4,154.2-90.4,154.2c-5.3,4.3-13.9,4.3-19.2,0c0,0-90.4-74.2-90.4-154.2
		c0-55.2,44.8-100,100-100S282.5,73.8,282.5,129z"/>
	<g>
		<g>
			<path class="st8" d="M198.4,127.8h16c13.4-7.4,18.5-20.7,20.3-27.6c0.6-2.3-1-4.7-3.4-5c-20.8-3-31.4,2.8-38.7,14.5
				c0.5,1.2,1,2.5,1.5,3.7c1.1,3,1.8,6.5,2.2,9.8c10.1-5.7,18.8-13,21.9-15.1C216,110.7,209.7,118.5,198.4,127.8z"/>
			<path class="st8" d="M114.4,81.4c1.8,9.7,9,35.5,35.3,46.5h31.5c-10-18.1-27.9-27.1-36-32c6.1,1.1,25.1,7.6,42.3,25.6
				c1.3,1.4,4,4.3,4.1,4.3c-2-28.4-28.3-51.4-56-51.4c-5.7,0-11.7,0.7-18.2,2.3C115.4,77.2,114.1,79.2,114.4,81.4z"/>
			<path class="st8" d="M250.3,136.7c0-2.2-1.8-4-4-4H121.3c-2.2,0-4,1.8-4,4v0.5c0,32.6,26.4,59,59,59h14.9c32.6,0,59-26.4,59-59
				L250.3,136.7L250.3,136.7z"/>
		</g>
	</g>
</g>
</svg>
