<?xml version="1.0" encoding="utf-8"?>
<!-- Generator: Adobe Illustrator 22.0.0, SVG Export Plug-In . SVG Version: 6.00 Build 0)  -->
<svg version="1.1" id="Capa_1" xmlns="http://www.w3.org/2000/svg" xmlns:xlink="http://www.w3.org/1999/xlink" x="0px" y="0px"
	 viewBox="0 0 937.8 937.8" style="enable-background:new 0 0 937.8 937.8;" xml:space="preserve">
<style type="text/css">
	.st0{fill:#F88181;}
	.st1{fill:#FFFFFF;}
</style>
<g>
	<path class="st0" d="M806.4,370.8c0,273.5-308.7,526.7-308.7,526.7c-18,14.8-47.6,14.8-65.6,0c0,0-308.7-253.3-308.7-526.7
		c0-188.6,152.9-341.5,341.5-341.5S806.4,182.2,806.4,370.8z"/>
</g>
<g>
	<path class="st1" d="M603.2,130.7H334.6c-10.2,0-18.5,7.9-18.5,17.5v113.2h305.5V148.3C621.6,138.6,613.4,130.7,603.2,130.7z
		 M373.5,222.1c0,5.8-5,10.5-11.1,10.5c-6.1,0-11.1-4.7-11.1-10.5v-51.9c0-5.8,5-10.5,11.1-10.5c6.1,0,11.1,4.7,11.1,10.5V222.1z"/>
	<path class="st1" d="M316.2,570.7c0,9.7,8.3,17.5,18.5,17.5h23.4v6.3c0,9.3,7.9,16.8,17.7,16.8c9.7,0,17.7-7.5,17.7-16.8v-6.3
		h151.1v6.3c0,9.3,7.9,16.8,17.7,16.8c9.7,0,17.7-7.5,17.7-16.8v-6.3h23.4c10.2,0,18.5-7.9,18.5-17.5V271.6H316.2V570.7z M351.3,323
		c0-5.8,5-10.5,11.1-10.5s11.1,4.7,11.1,10.5v51.9c0,5.8-5,10.5-11.1,10.5s-11.1-4.7-11.1-10.5C351.3,374.8,351.3,323,351.3,323z"/>
</g>
</svg>
