<?xml version="1.0" encoding="utf-8"?>
<!-- Generator: Adobe Illustrator 16.0.2, SVG Export Plug-In . SVG Version: 6.00 Build 0)  -->
<!DOCTYPE svg PUBLIC "-//W3C//DTD SVG 1.1//EN" "http://www.w3.org/Graphics/SVG/1.1/DTD/svg11.dtd">
<svg version="1.1" id="Capa_1" xmlns="http://www.w3.org/2000/svg" xmlns:xlink="http://www.w3.org/1999/xlink" x="0px" y="0px"
	 width="612px" height="792px" viewBox="0 0 612 792" enable-background="new 0 0 612 792" xml:space="preserve">
<g>
	<path fill="#4DE680" d="M527.9,332.1c0,178.5-201.5,343.7-201.5,343.7c-11.7,9.7-31.1,9.7-42.8,0c0,0-201.5-165.3-201.5-343.7
		c0-123.1,99.8-222.9,222.9-222.9C428.1,109.2,527.9,209,527.9,332.1z"/>
</g>
<g>
	<g>
		<path fill="#FFFFFF" d="M249.752,356.778h110.482c5.09,0,9.206-4.119,9.206-9.207V236.476c0-5.087-4.116-9.207-9.206-9.207h-27.62
			v-9.207c0-15.229-12.391-27.62-27.621-27.62c-15.229,0-27.621,12.391-27.621,27.62v9.207h-27.621
			c-5.087,0-9.207,4.119-9.207,9.207v111.096C240.545,352.659,244.665,356.778,249.752,356.778z M295.786,218.063
			c0-5.081,4.135-9.207,9.207-9.207c5.071,0,9.207,4.126,9.207,9.207v9.207h-18.413V218.063z"/>
		<path fill="#FFFFFF" d="M439.121,342.805c-1.654-2.75-4.659-4.44-7.876-4.44c-16.223,0-31.104,9.002-38.635,23.371l-28.241,53.899
			c-4.801,9.134-14.17,14.798-24.472,14.798h-62.525c-5.087,0-9.207-4.119-9.207-9.206c0-5.088,4.119-9.207,9.207-9.207h62.521
			c3.437,0,6.564-1.888,8.167-4.938c1.595-3.046,6.411-12.24,10.552-20.143c1.305-2.489,1.214-5.478-0.241-7.883
			c-1.458-2.402-4.065-3.865-6.875-3.865h-95.702c-12.3,0-23.844,4.793-32.548,13.487l-54.449,54.45
			c-3.597,3.596-3.597,9.422,0,13.019l46.034,45.856c1.798,1.799,4.155,2.699,6.509,2.699c2.355,0,4.712-0.9,6.51-2.699
			l34.921-34.743h77.123c24.044,0,45.927-13.235,57.095-34.536l42.4-80.872C440.901,349,440.793,345.567,439.121,342.805z"/>
	</g>
</g>
</svg>
