<?xml version="1.0" encoding="utf-8"?>
<!-- Generator: Adobe Illustrator 22.0.0, SVG Export Plug-In . SVG Version: 6.00 Build 0)  -->
<svg version="1.1" id="圖層_1" xmlns="http://www.w3.org/2000/svg" xmlns:xlink="http://www.w3.org/1999/xlink" x="0px" y="0px"
	 viewBox="0 0 365 365" style="enable-background:new 0 0 365 365;" xml:space="preserve">
<style type="text/css">
	.st0{fill:#6BBD77;}
	.st1{fill:none;stroke:#FFFFFF;stroke-width:15.928;stroke-miterlimit:10;}
	.st2{fill:none;stroke:#FFFFFF;stroke-width:15.7121;stroke-miterlimit:10;}
	.st3{fill:#6FC076;}
	.st4{fill:#B4DBAF;}
	.st5{fill:#73C16F;}
	.st6{fill:#F27F98;}
	.st7{fill:#F77E9C;}
	.st8{fill:#FFFFFF;}
	.st9{fill:#4DE680;}
	.st10{fill:#4695FC;}
	.st11{fill:#FF976A;}
	.st12{fill:#F88181;}
</style>
<g>
	<path class="st0" d="M233.5,249.8c0,0-61.9,2.5-90,29.5c-15.6,15-13,53.3-13,53.3s77.5,13.2,97-30.4
		C238.4,277.9,233.5,249.8,233.5,249.8z"/>
</g>
<g>
	<path class="st11" d="M282.5,129c0,80.1-90.4,154.2-90.4,154.2c-5.3,4.3-13.9,4.3-19.2,0c0,0-90.4-74.2-90.4-154.2
		c0-55.2,44.8-100,100-100S282.5,73.8,282.5,129z"/>
	<g>
		<path class="st8" d="M210.5,70c-13,0-23.6,10.6-23.6,23.6v12.1c0,4.9,1.5,9.6,4.3,13.6c2.2,3.1,5.1,5.6,8.4,7.4v68.2
			c0,6.1,4.9,11,11,11c6.1,0,11-4.9,11-11v-68.2c3.3-1.8,6.2-4.2,8.4-7.4c2.8-4,4.3-8.7,4.3-13.6V93.7C234.1,80.6,223.5,70,210.5,70
			z"/>
		<path class="st8" d="M175.3,70c-2.2,0-4,1.8-4,4v27.4h-5.2V74c0-2.2-1.8-4-4-4c-2.2,0-4,1.8-4,4v27.4H153V74c0-2.2-1.8-4-4-4
			s-4,1.8-4,4v27.4h-5.2V74c0-2.2-1.8-4-4-4c-2.2,0-4,1.8-4,4v31.4v13.2c0,5.9,4.9,10.8,10.8,10.8h1.9v65.5c0,6.1,4.9,11,11,11
			c6.1,0,11-4.9,11-11v-65.5h1.9c5.9,0,10.8-4.9,10.8-10.8v-13.2V74C179.3,71.8,177.5,70,175.3,70z"/>
	</g>
</g>
</svg>
