<?xml version="1.0" encoding="utf-8"?>
<!-- Generator: Adobe Illustrator 22.0.0, SVG Export Plug-In . SVG Version: 6.00 Build 0)  -->
<svg version="1.1" id="圖層_1" xmlns="http://www.w3.org/2000/svg" xmlns:xlink="http://www.w3.org/1999/xlink" x="0px" y="0px"
	 viewBox="0 0 365 365" style="enable-background:new 0 0 365 365;" xml:space="preserve">
<style type="text/css">
	.st0{fill:#6BBD77;}
	.st1{fill:none;stroke:#FFFFFF;stroke-width:15.928;stroke-miterlimit:10;}
	.st2{fill:none;stroke:#FFFFFF;stroke-width:15.7121;stroke-miterlimit:10;}
	.st3{fill:#6FC076;}
	.st4{fill:#B4DBAF;}
	.st5{fill:#73C16F;}
	.st6{fill:#F27F98;}
	.st7{fill:#F77E9C;}
	.st8{fill:#FFFFFF;}
	.st9{fill:#4DE680;}
	.st10{fill:#4695FC;}
	.st11{fill:#FF976A;}
	.st12{fill:#F88181;}
</style>
<g>
	<path class="st0" d="M233.5,249.3c0,0-61.9,2.5-90,29.5c-15.6,15-13,53.3-13,53.3s77.5,13.2,97-30.4
		C238.4,277.3,233.5,249.3,233.5,249.3z"/>
</g>
<g>
	<g>
		<path class="st12" d="M282.5,129c0,80.1-90.4,154.2-90.4,154.2c-5.3,4.3-13.9,4.3-19.2,0c0,0-90.4-74.2-90.4-154.2
			c0-55.2,44.8-100,100-100S282.5,73.8,282.5,129z"/>
	</g>
	<g>
		<path class="st8" d="M223,58.7h-78.7c-3,0-5.4,2.3-5.4,5.1V97h89.5V63.8C228.4,61,226,58.7,223,58.7z M155.7,85.5
			c0,1.7-1.5,3.1-3.3,3.1s-3.3-1.4-3.3-3.1V70.3c0-1.7,1.5-3.1,3.3-3.1s3.3,1.4,3.3,3.1V85.5z"/>
		<path class="st8" d="M139,187.5c0,2.8,2.4,5.1,5.4,5.1h6.9v1.8c0,2.7,2.3,4.9,5.2,4.9c2.8,0,5.2-2.2,5.2-4.9v-1.8h44.2v1.8
			c0,2.7,2.3,4.9,5.2,4.9c2.8,0,5.2-2.2,5.2-4.9v-1.8h6.9c3,0,5.4-2.3,5.4-5.1V100H139V187.5z M149.2,115c0-1.7,1.5-3.1,3.3-3.1
			s3.3,1.4,3.3,3.1v15.2c0,1.7-1.5,3.1-3.3,3.1s-3.3-1.4-3.3-3.1C149.2,130.2,149.2,115,149.2,115z"/>
	</g>
</g>
</svg>
