<?xml version="1.0" encoding="utf-8"?>
<!-- Generator: Adobe Illustrator 22.0.1, SVG Export Plug-In . SVG Version: 6.00 Build 0)  -->
<svg version="1.1" id="Capa_1" xmlns="http://www.w3.org/2000/svg" xmlns:xlink="http://www.w3.org/1999/xlink" x="0px" y="0px"
	 viewBox="0 0 612 792" style="enable-background:new 0 0 612 792;" xml:space="preserve">
<style type="text/css">
	.st0{fill:#4DE680;}
	.st1{fill:#FDFDFD;}
</style>
<g>
	<path class="st0" d="M527.9,332.1c0,178.5-201.5,343.7-201.5,343.7c-11.7,9.7-31.1,9.7-42.8,0c0,0-201.5-165.3-201.5-343.7
		c0-123.1,99.8-222.9,222.9-222.9S527.9,209,527.9,332.1z"/>
</g>
<g>
	<g>
		<g>
			<polygon class="st1" points="153,404.5 210.1,404.5 210.1,390.4 169.5,390.4 169.5,358.8 207.5,358.8 207.5,345 169.5,345 
				169.5,317.5 210.1,317.5 210.1,303.6 153,303.6 			"/>
			<path class="st1" d="M274.8,316.3c4.2,0,8.2,0.6,12,1.8c3.8,1.2,7.4,2.6,10.8,4.2l5.9-13.7c-8.7-4.3-18.3-6.5-28.6-6.5
				c-9.8,0-18.3,2.1-25.6,6.3c-7.3,4.2-12.8,10.2-16.7,18.1c-3.8,7.9-5.8,17-5.8,27.5c0,16.7,4,29.5,11.9,38.4
				c7.9,8.9,19.2,13.4,34,13.4c10,0,19-1.5,26.9-4.5v-14.1c-4.3,1.3-8.5,2.4-12.5,3.3c-4,0.8-8.1,1.3-12.4,1.3
				c-9.9,0-17.5-3.2-22.7-9.5c-5.2-6.3-7.8-15.7-7.8-28.1c0-11.8,2.7-21.1,8.1-27.8C257.9,319.6,265.3,316.3,274.8,316.3z"/>
			<path class="st1" d="M457.2,226.3c-1.1-0.4-2.9-1.3-5-1.7c-2.1-0.5-5-1.4-7.9-1.5c-2.9-0.2-6.2-0.1-9.8,0.2
				c-3.5,0.4-7,1.3-10.8,2.5c-3.8,1.2-7.2,2.9-10.9,4.9c-3.6,2-6.8,4.5-10,7.1c-3,2.7-5.9,5.7-8.5,8.9c-2.4,3.2-4.8,6.6-6.6,10.1
				c-1.9,3.5-3.5,7.1-4.6,10.8c-2.4,7.3-3.1,14.7-3,21.3c0.2,3.3,0.5,6.4,1,9.2c0.5,2.8,1.3,5.3,1.9,7.3c-5-1.8-10.4-2.9-16.6-3.1
				c0.1,0,0.1-0.1,0.2-0.1c-0.9,0-1.7-0.2-2.7-0.2c-15.2,0-26.9,4.5-35.2,13.4c-8.2,8.9-12.3,21.7-12.3,38.4c0,0.1,0,0.1,0,0.2
				s0,0.1,0,0.2c0,3.3,0.3,6.3,0.6,9.3l0,0c1.3,12,5.1,21.8,11.6,29c7.6,8.5,18.5,12.8,32.3,13.3c-0.1,0-0.1,0.1-0.2,0.1
				c0.9,0,1.7,0.2,2.7,0.2c15.2,0,26.9-4.5,35.2-13.4c8.2-8.9,12.3-21.7,12.3-38.4c0-0.1,0-0.1,0-0.2s0-0.1,0-0.2
				c0-3.3-0.3-6.3-0.6-9.3l0,0c-1.3-12-5.1-21.7-11.6-29c-2.2-2.5-4.8-4.5-7.6-6.3l3.5,0c1.5-0.6,3.2-1.2,4.9-2
				c2.5-1.1,5.1-2.3,7.8-3.7c2.7-1.4,5.3-3,8.1-4.7c2.7-1.7,5.2-3.6,7.7-5.6c2.4-2,4.9-4.1,7-6.4c2.2-2.3,4.3-4.5,6.2-7
				c3.8-4.8,7.1-9.9,9.6-15.2c1.4-2.5,2.4-5.4,3.5-8.1c1.1-2.6,2-5.5,2.9-8.1c0.9-2.6,1.7-5.2,2.5-7.8c0.8-2.6,1.5-4.9,2.1-6.8
				c0.7-1.9,1.1-3.8,1.5-5c0.3-1.3,0.5-2,0.5-2S458.3,226.8,457.2,226.3z M392.5,365.5L392.5,365.5c-0.5,2.7-1.1,5.1-1.8,7.3
				c-0.4,1-0.7,2.1-1.1,3.1c-0.2,0.6-0.5,1.1-0.8,1.6c-0.9,1.7-1.8,3.3-2.9,4.7c-2.6,3.4-6,5.8-9.9,7.4c-3.5,1.4-7.6,2.2-12.2,2.2
				c-9.8,0-17.3-3.2-22.3-9.6c-5-6.4-7.5-15.8-7.5-28.3c0-4.2,0.4-7.9,1-11.4c0,0,0,0,0,0c0.4-2.6,1.1-5.1,1.8-7.3
				c0.3-1,0.7-2.1,1.1-3.1c0.2-0.6,0.5-1.1,0.8-1.6c0.9-1.7,1.8-3.3,2.9-4.7c2.6-3.3,6-5.8,9.9-7.4c3.5-1.4,7.6-2.2,12.2-2.2
				c9.8,0,17.3,3.2,22.3,9.6c5,6.4,7.5,15.8,7.5,28.3C393.5,358.3,393.1,362,392.5,365.5z M421.8,256.2c-0.8,0.7-1.9,1.3-2.9,2.4
				c-1,1-2.2,2.1-3.5,3.3c-1.2,1.3-2.4,2.8-3.7,4.3c-1.2,1.6-2.5,3.3-3.8,5.1c-2.5,3.6-4.9,7.6-7.1,11.7
				c-4.5,8.3-8.1,16.9-10.4,23.5c-0.3,0.7-0.5,1.4-0.7,2c-1.5-0.9-3-1.8-4.6-2.5c0.2-0.5,0.4-0.9,0.6-1.4c3-6.6,7.3-15.1,12.5-23.1
				c2.6-4,5.4-7.9,8.2-11.4c1.5-1.7,2.9-3.3,4.3-4.8c1.4-1.4,2.8-2.8,4.1-4c1.4-1.1,2.7-2.2,3.8-3.1c1.1-1,2.2-1.6,3.1-2.1
				c1.8-1.1,2.7-1.8,2.7-1.8S423.5,255,421.8,256.2z"/>
		</g>
	</g>
</g>
</svg>
