<svg xmlns="http://www.w3.org/2000/svg" width="612px" height="792px" viewBox="20 -50 642 742">
  <g id="icon_free_shop">
    <path id="Path_7" data-name="Path 7" d="M560.92,252.16c0,178.484-201.455,343.72-201.455,343.72-11.747,9.658-31.063,9.658-42.81,0,0,0-201.455-165.3-201.455-343.72,0-123.079,99.781-222.86,222.86-222.86S560.92,129.081,560.92,252.16Z" fill="#f77e9c"/>
    <g id="Layer_5_38_" transform="translate(203.43 112.44)">
      <path id="Path_8" data-name="Path 8" d="M518.789,213.606c1.305,3.2-.457,5.808-3.916,5.808H257.622c-3.459,0-5.286-2.676-4.111-5.873l18.925-50.967a9.657,9.657,0,0,1,8.484-5.873h208.7a10.055,10.055,0,0,1,8.614,5.808Z" transform="translate(-251.357 -156.7)" fill="#fff"/>
      <path id="Path_9" data-name="Path 9" d="M250.4,280.7a22.7,22.7,0,0,0,43.658,8.745c.653-1.631,2.219-1.631,2.937.065a22.722,22.722,0,0,0,41.962-.065c.653-1.631,2.154-1.762,2.806-.2a22.729,22.729,0,0,0,42.157,0c.653-1.566,2.088-1.566,2.741,0a22.729,22.729,0,0,0,42.157,0c.653-1.566,2.088-1.566,2.741,0a22.729,22.729,0,0,0,42.157,0c.653-1.566,2.088-1.566,2.741,0a22.695,22.695,0,0,0,43.724-8.549V271.1a4.5,4.5,0,0,0-4.764-4.5H256.665c-6.265,0-6.265,4.633-6.265,4.633Z" transform="translate(-250.4 -194.88)" fill="#fff"/>
      <path id="Path_10" data-name="Path 10" d="M517.134,531.342h0V441.219a9.957,9.957,0,0,0-9.919-9.919H270.519a9.957,9.957,0,0,0-9.919,9.919v94.1a17.553,17.553,0,0,0,32.956,8.418c.457-.783.718-2.415,4.96-2.415H479.61c3.981,0,4.7,1.631,5.155,2.415a17.536,17.536,0,0,0,15.4,9.2c9.724,0,17.1-7.831,17.1-17.555A33.807,33.807,0,0,1,517.134,531.342Z" transform="translate(-253.944 -252.098)" fill="#fff"/>
      <path id="Path_11" data-name="Path 11" d="M322.836,331.437A3.142,3.142,0,0,0,319.7,328.5h-9.071a3.176,3.176,0,0,0-3.132,3.132v52.012a3.176,3.176,0,0,0,3.132,3.132H319.7a3.188,3.188,0,0,0,3.132-2.937v-52.4Z" transform="translate(-270.237 -216.385)" fill="#fff"/>
      <path id="Path_12" data-name="Path 12" d="M599.836,331.437A3.142,3.142,0,0,0,596.7,328.5h-9.071a3.176,3.176,0,0,0-3.132,3.132v52.012a3.176,3.176,0,0,0,3.132,3.132H596.7a3.188,3.188,0,0,0,3.132-2.937v-52.4Z" transform="translate(-366.469 -216.385)" fill="#fff"/>
    </g>
  </g>
</svg>
