<svg xmlns="http://www.w3.org/2000/svg" width="612px" height="792px" viewBox="0 0 612 792">
  <g id="icon_thrift_shop">
    <path id="Path_17" data-name="Path 17" d="M570.12,252.16c0,178.484-201.455,343.72-201.455,343.72-11.747,9.658-31.063,9.658-42.81,0,0,0-201.455-165.3-201.455-343.72,0-123.079,99.781-222.86,222.86-222.86S570.12,129.081,570.12,252.16Z" fill="#4695fc"/>
    <g id="Group_6" data-name="Group 6" transform="translate(190.377 112.496)">
      <path id="Path_18" data-name="Path 18" d="M543.835,232.5h27.474l-40.656-69.827a11.831,11.831,0,1,0-20.426,11.942Z" transform="translate(-323.846 -156.785)" fill="#fff"/>
      <path id="Path_19" data-name="Path 19" d="M387.383,174.726a11.831,11.831,0,0,0-20.426-11.942L326.3,232.676h27.474Z" transform="translate(-260.519 -156.835)" fill="#fff"/>
      <path id="Path_20" data-name="Path 20" d="M518.383,284H245.6a20.108,20.108,0,0,0-20.1,20.1v22.319a20.108,20.108,0,0,0,20.1,20.1h6.33l19.382,105.2c2.415,12.4,13.77,22.253,25.516,22.253H463.239c11.747,0,23.1-9.854,25.516-22.253l19.512-105.263h10.246a20.108,20.108,0,0,0,20.1-20.1V304.035A20.292,20.292,0,0,0,518.383,284ZM336.571,389.132v45.355a11.355,11.355,0,1,1-22.71,0V370.86a11.355,11.355,0,1,1,22.71,0Zm36.48,0v45.355a11.355,11.355,0,1,1-22.71,0V370.86A11.362,11.362,0,0,1,361.7,359.5a11.624,11.624,0,0,1,11.355,11.355ZM409.727,415.5v19.056a11.355,11.355,0,1,1-22.71,0V370.925a11.579,11.579,0,0,1,11.355-11.355,11.362,11.362,0,0,1,11.355,11.355Zm36.545,0v19.056a11.355,11.355,0,0,1-22.71,0V370.925a11.355,11.355,0,0,1,22.71,0Z" transform="translate(-225.5 -200.981)" fill="#fff"/>
    </g>
  </g>
</svg>
