<svg xmlns="http://www.w3.org/2000/svg" width="612px" height="792px" viewBox="20 -50 642 742">
  <g id="icon_food_share">
    <g id="Group_2" data-name="Group 2" transform="translate(123.4 29.3)">
      <path id="Path_4" data-name="Path 4" d="M569.12,252.16c0,178.484-201.455,343.72-201.455,343.72-11.747,9.658-31.063,9.658-42.81,0,0,0-201.455-165.3-201.455-343.72,0-123.079,99.781-222.86,222.86-222.86S569.12,129.081,569.12,252.16Z" transform="translate(-123.4 -29.3)" fill="#f88181"/>
    </g>
    <g id="Group_3" data-name="Group 3" transform="translate(249.154 95.473)">
      <path id="Path_5" data-name="Path 5" d="M503.459,130.7H328.173c-6.656,0-12.073,5.155-12.073,11.42v73.873H515.467V142.186A11.748,11.748,0,0,0,503.459,130.7Zm-149.9,59.647a7.255,7.255,0,0,1-14.488,0V156.477a7.255,7.255,0,0,1,14.488,0Z" transform="translate(-316.1 -130.7)" fill="#fff"/>
      <path id="Path_6" data-name="Path 6" d="M316.2,466.79c0,6.33,5.417,11.42,12.073,11.42h15.271v4.111c0,6.069,5.155,10.964,11.551,10.964,6.33,0,11.551-4.894,11.551-10.964V478.21h98.607v4.111c0,6.069,5.155,10.964,11.551,10.964,6.33,0,11.551-4.894,11.551-10.964V478.21h15.271c6.656,0,12.073-5.156,12.073-11.42V271.6H316.2Zm22.906-161.647a7.255,7.255,0,0,1,14.488,0v33.87a7.255,7.255,0,0,1-14.488,0Z" transform="translate(-316.135 -179.65)" fill="#fff"/>
    </g>
  </g>
</svg>
