<?xml version="1.0" encoding="utf-8"?>
<!-- Generator: Adobe Illustrator 22.0.1, SVG Export Plug-In . SVG Version: 6.00 Build 0)  -->
<svg version="1.1" id="Capa_1" xmlns="http://www.w3.org/2000/svg" xmlns:xlink="http://www.w3.org/1999/xlink" x="0px" y="0px"
	 viewBox="0 0 937.8 937.8" style="enable-background:new 0 0 937.8 937.8;" xml:space="preserve">
<style type="text/css">
	.st0{fill:#F77E9C;}
	.st1{fill:#FFFFFF;}
</style>
<g>
	<path class="st0" d="M798.2,370.8c0,273.5-308.7,526.7-308.7,526.7c-18,14.8-47.6,14.8-65.6,0c0,0-308.7-253.3-308.7-526.7
		c0-188.6,152.9-341.5,341.5-341.5S798.2,182.2,798.2,370.8z"/>
	<g id="Layer_5_38_">
		<path class="st1" d="M660.2,243.9c2,4.9-0.7,8.9-6,8.9H260c-5.3,0-8.1-4.1-6.3-9l29-78.1c1.8-5,7.7-9,13-9h319.8
			c5.3,0,11.2,4,13.2,8.9L660.2,243.9z"/>
		<path class="st1" d="M250.4,288.2c0,19.2,15.6,34.8,34.8,34.8c14.5,0,26.9-8.8,32.1-21.4c1-2.5,3.4-2.5,4.5,0.1
			c5.3,12.5,17.7,21.4,32.1,21.4c14.5,0,27-8.9,32.2-21.5c1-2.5,3.3-2.7,4.3-0.3c5.2,12.8,17.7,21.8,32.3,21.8
			c14.6,0,27.1-9,32.3-21.8c1-2.4,3.2-2.4,4.2,0c5.2,12.8,17.7,21.8,32.3,21.8c14.6,0,27.1-9,32.3-21.8c1-2.4,3.2-2.4,4.2,0
			c5.2,12.8,17.7,21.8,32.3,21.8s27.1-9,32.3-21.8c1-2.4,3.2-2.4,4.2,0C601.9,314,614.4,323,629,323c19.2,0,34.8-15.6,34.8-34.8
			v-14.7c0,0,0-6.9-7.3-6.9c-99.1,0-295.6,0-396.5,0c-9.6,0-9.6,7.1-9.6,7.1L250.4,288.2z"/>
		<path class="st1" d="M653.7,584.6C653.7,584.6,653.7,584.6,653.7,584.6l0-138.1c0-8.4-6.9-15.2-15.2-15.2H275.8
			c-8.4,0-15.2,6.9-15.2,15.2v138.1c0,0.9,0,4.9,0,6.1c0,14.9,12,26.9,26.9,26.9c10.2,0,19-5.7,23.6-14c0.7-1.2,1.1-3.7,7.6-3.7
			h277.5c6.1,0,7.2,2.5,7.9,3.7c4.6,8.4,13.4,14.1,23.6,14.1c14.9,0,26.2-12,26.2-26.9C653.7,588.6,653.7,588.1,653.7,584.6z"/>
		<path class="st1" d="M331,333c-0.2-2.5-2.2-4.5-4.8-4.5h-13.9c-2.6,0-4.8,2.2-4.8,4.8v0.1v79.5v0.1c0,2.6,2.2,4.8,4.8,4.8h13.9
			c2.5,0,4.6-2,4.8-4.5c0,0,0-0.1,0-0.1v-0.2v-79.6v-0.2C331,333,331,333,331,333z"/>
		<path class="st1" d="M608,333c-0.2-2.5-2.2-4.5-4.8-4.5h-13.9c-2.6,0-4.8,2.2-4.8,4.8v0.1v79.5v0.1c0,2.6,2.2,4.8,4.8,4.8h13.9
			c2.5,0,4.6-2,4.8-4.5c0,0,0-0.1,0-0.1v-0.2v-79.6v-0.2C608,333,608,333,608,333z"/>
	</g>
</g>
</svg>
