<?xml version="1.0" encoding="utf-8"?>
<!-- Generator: Adobe Illustrator 22.0.1, SVG Export Plug-In . SVG Version: 6.00 Build 0)  -->
<svg version="1.1" id="Capa_1" xmlns="http://www.w3.org/2000/svg" xmlns:xlink="http://www.w3.org/1999/xlink" x="0px" y="0px"
	 viewBox="0 0 612 792" style="enable-background:new 0 0 612 792;" xml:space="preserve">
<style type="text/css">
	.st0{fill:#4DE680;}
	.st1{fill:#FFFFFF;}
</style>
<g>
	<path class="st0" d="M527.9,332.1c0,178.5-201.5,343.7-201.5,343.7c-11.7,9.7-31.1,9.7-42.8,0c0,0-201.5-165.3-201.5-343.7
		c0-123.1,99.8-222.9,222.9-222.9S527.9,209,527.9,332.1z"/>
</g>
<g>
	<path class="st1" d="M412.1,439l-14-221.5c-0.3-4.3-3.8-7.6-8.1-7.6H351c-4.5,0-8.1,3.6-8.1,8.1v45.2c0,20.6-16.7,37.3-37.3,37.3
		c-20.6,0-37.3-16.7-37.3-37.3V218c0-4.5-3.6-8.1-8.1-8.1h-39.1c-4.3,0-7.8,3.3-8.1,7.6l-14,221.5c-0.7,11.3,3.3,22.6,11.1,30.9
		s18.7,13,30.1,13h130.6c11.4,0,22.3-4.7,30.1-13C408.8,461.6,412.8,450.3,412.1,439z M318.9,445.1c3.2,3.2,3.2,8.3,0,11.4
		c-1.6,1.6-3.7,2.4-5.7,2.4c-2.1,0-4.1-0.8-5.7-2.4l-15.1-15.1c-1.5-1.5-2.4-3.6-2.4-5.7c0-2.1,0.9-4.2,2.4-5.7l15.1-15.1
		c3.2-3.2,8.3-3.2,11.4,0c3.2,3.2,3.2,8.3,0,11.4l-1.3,1.3h25c4.2,0,7.9-2.2,10-5.8c2.1-3.6,2.1-7.9,0-11.5c-2.2-3.9-0.9-8.8,3-11
		c3.9-2.2,8.8-0.9,11,3c5,8.7,4.9,19-0.1,27.7c-5,8.7-14,13.8-24,13.8h-25L318.9,445.1z M257.5,421.7c2.1,3.7,5.8,5.9,10.1,5.9
		c4.5,0,8.1,3.6,8.1,8.1c0,4.5-3.6,8.1-8.1,8.1c-10.1,0-19.2-5.3-24.2-14.1c-5-8.8-4.8-19.3,0.4-28l13.5-22.3l-1.9,0.5
		c-4.3,1.1-8.7-1.5-9.9-5.8c-1.1-4.3,1.5-8.7,5.8-9.9l20.7-5.4c4.3-1.1,8.7,1.5,9.9,5.8l5.4,20.7c1.1,4.3-1.5,8.7-5.8,9.9
		c-0.7,0.2-1.4,0.3-2,0.3c-3.6,0-6.9-2.4-7.8-6.1l-0.4-1.7L257.6,410C255.4,413.7,255.4,418,257.5,421.7z M285,348.8
		c-3.8-2.3-5.1-7.3-2.8-11.1c5.1-8.5,14.1-13.6,24.1-13.4c10,0.1,18.8,5.3,23.8,14l13.3,23.2l0.3-1.3c1.2-4.3,5.6-6.9,9.9-5.7
		c4.3,1.2,6.9,5.6,5.7,9.9l-5.5,20.7c-0.6,2.1-1.9,3.8-3.8,4.9c-1.2,0.7-2.6,1.1-4,1.1c-0.7,0-1.4-0.1-2.1-0.3l-20.7-5.5
		c-4.3-1.2-6.9-5.6-5.7-9.9c1.2-4.3,5.6-6.9,9.9-5.7l2.3,0.6l-13.7-24c-2.1-3.7-5.7-5.8-9.9-5.8c-4.2,0-7.9,2-10,5.6
		C293.8,349.9,288.9,351.1,285,348.8z"/>
</g>
</svg>
