<?xml version="1.0" encoding="utf-8"?>
<!-- Generator: Adobe Illustrator 22.0.1, SVG Export Plug-In . SVG Version: 6.00 Build 0)  -->
<svg version="1.1" id="Capa_1" xmlns="http://www.w3.org/2000/svg" xmlns:xlink="http://www.w3.org/1999/xlink" x="0px" y="0px"
	 viewBox="0 0 937.8 937.8" style="enable-background:new 0 0 937.8 937.8;" xml:space="preserve">
<style type="text/css">
	.st0{fill:#4695FC;}
	.st1{fill:#FFFFFF;}
</style>
<g>
	<path class="st0" d="M807.4,370.8c0,273.5-308.7,526.7-308.7,526.7c-18,14.8-47.6,14.8-65.6,0c0,0-308.7-253.3-308.7-526.7
		c0-188.6,152.9-341.5,341.5-341.5S807.4,182.2,807.4,370.8z"/>
	<g>
		<path class="st1" d="M562.6,272.8h42.1l-62.3-107c-5-8.7-16.2-11.6-24.8-6.5c-8.7,5-11.6,16.2-6.5,24.8L562.6,272.8z"/>
		<path class="st1" d="M419.9,184.2c5-8.7,2.2-19.8-6.5-24.8s-19.8-2.2-24.8,6.5l-62.3,107.1h42.1L419.9,184.2z"/>
		<path class="st1" d="M674.3,284h-418c-17,0-30.8,13.8-30.8,30.8V349c0,17,13.8,30.8,30.8,30.8h9.7L295.7,541
			c3.7,19,21.1,34.1,39.1,34.1h11.8h77.6c7.9,0,18.1,0,28.6,0l0,0h9.5h9.5l0,0c10.4,0,20.7,0,28.6,0h77.6h11.8
			c18,0,35.4-15.1,39.1-34.1l29.9-161.3h15.7c17,0,30.8-13.8,30.8-30.8v-34.2C705.1,297.8,691.3,284,674.3,284z M395.7,445.1v69.5
			c0,9.9-8.1,17.4-17.4,17.4c-9.9,0-17.4-8.1-17.4-17.4v-29.2v-68.3c0-9.9,8.1-17.4,17.4-17.4c9.9,0,17.4,8.1,17.4,17.4V445.1z
			 M451.6,445.1v69.5c0,9.9-8.1,17.4-17.4,17.4c-9.9,0-17.4-8.1-17.4-17.4v-29.2v-68.3c0-9.9,8.1-17.4,17.4-17.4s17.4,8.1,17.4,17.4
			V445.1z M507.8,485.5v29.2c0,9.4-7.5,17.4-17.4,17.4c-9.4,0-17.4-7.5-17.4-17.4v-69.5v-28c0-9.4,8.1-17.4,17.4-17.4
			s17.4,7.5,17.4,17.4V485.5z M563.8,485.5v29.2c0,9.4-7.5,17.4-17.4,17.4c-9.4,0-17.4-7.5-17.4-17.4v-69.5v-28
			c0-9.4,7.5-17.4,17.4-17.4c9.4,0,17.4,7.5,17.4,17.4V485.5z"/>
	</g>
</g>
</svg>
