<?xml version="1.0" encoding="utf-8"?>
<!-- Generator: Adobe Illustrator 22.0.1, SVG Export Plug-In . SVG Version: 6.00 Build 0)  -->
<svg version="1.1" id="Capa_1" xmlns="http://www.w3.org/2000/svg" xmlns:xlink="http://www.w3.org/1999/xlink" x="0px" y="0px"
	 viewBox="0 0 612 792" style="enable-background:new 0 0 612 792;" xml:space="preserve">
<style type="text/css">
	.st0{fill:#4DE680;}
	.st1{fill:#FFFFFF;}
</style>
<g>
	<path class="st0" d="M527.9,332.1c0,178.5-201.5,343.7-201.5,343.7c-11.7,9.7-31.1,9.7-42.8,0c0,0-201.5-165.3-201.5-343.7
		c0-123.1,99.8-222.9,222.9-222.9S527.9,209,527.9,332.1z"/>
</g>
<g>
	<g>
		<rect x="208.1" y="287.2" class="st1" width="37.3" height="180.2"/>
		<path class="st1" d="M301.3,363.4v-76.2H264v180.2h27.4c-9.2-13.1-14.7-29-14.7-46.2C276.8,398.5,286.2,378,301.3,363.4z"/>
		<path class="st1" d="M357.2,340.7v-53.5H320v62.7C331.1,344,343.8,340.7,357.2,340.7z"/>
		<path class="st1" d="M369.7,231.3h-51.8v-23.6h-70.3v23.6h-51.8v37.3h173.9V231.3z M266.1,226.3h33.1v5h-33.1V226.3z"/>
		<path class="st1" d="M357.2,359.4c-34.1,0-61.8,27.7-61.8,61.8s27.7,61.8,61.8,61.8s61.8-27.7,61.8-61.8S391.3,359.4,357.2,359.4z
			 M390.9,441.6l-13.2,13.2l-20.5-20.5l-20.5,20.5l-13.2-13.2l20.5-20.5l-20.5-20.5l13.2-13.2l20.5,20.5l20.5-20.5l13.2,13.2
			l-20.5,20.5L390.9,441.6z"/>
	</g>
</g>
</svg>
