<?xml version="1.0" encoding="utf-8"?>
<!-- Generator: Adobe Illustrator 22.0.0, SVG Export Plug-In . SVG Version: 6.00 Build 0)  -->
<svg version="1.1" id="圖層_1" xmlns="http://www.w3.org/2000/svg" xmlns:xlink="http://www.w3.org/1999/xlink" x="0px" y="0px"
	 viewBox="0 0 365 365" style="enable-background:new 0 0 365 365;" xml:space="preserve">
<style type="text/css">
	.st0{fill:#6BBD77;}
	.st1{fill:#EA4335;}
	.st2{fill:#FFFFFF;}
</style>
<g>
	<path class="st0" d="M233.5,249.3c0,0-61.9,2.5-90,29.5c-15.6,15-13,53.3-13,53.3s77.5,13.2,97-30.4
		C238.4,277.3,233.5,249.3,233.5,249.3z"/>
</g>
<g>
	<g>
		<g>
			<g>
				<g>
					<path class="st1" d="M282.5,129c0,80.1-90.4,154.2-90.4,154.2c-5.3,4.3-13.9,4.3-19.2,0c0,0-90.4-74.2-90.4-154.2
						c0-55.2,44.8-100,100-100S282.5,73.8,282.5,129z"/>
				</g>
			</g>
		</g>
	</g>
</g>
<g>
	<g>
		<g id="public">
			<path class="st2" d="M182.5,57c-38.8,0-70.5,31.7-70.5,70.5s31.7,70.5,70.5,70.5s70.5-31.7,70.5-70.5S221.3,57,182.5,57z
				 M175.4,183.2c-27.5-3.5-49.3-27.5-49.3-55.7c0-4.2,0.7-8.5,1.4-12.7l33.8,33.8v7.1c0,7.8,6.3,14.1,14.1,14.1V183.2z
				 M224.1,165.6c-2.1-5.6-7-9.9-13.4-9.9h-7v-21.2c0-4.2-2.8-7-7.1-7h-42.3v-14.1h14.1c4.2,0,7-2.8,7-7.1V92.3h14.1
				c7.8,0,14.1-6.3,14.1-14.1v-2.8c20.4,8.5,35.3,28.9,35.3,52.2C238.9,142.3,233.3,155.7,224.1,165.6z"/>
		</g>
	</g>
</g>
</svg>
