<?xml version="1.0" encoding="utf-8"?>
<!-- Generator: Adobe Illustrator 22.0.1, SVG Export Plug-In . SVG Version: 6.00 Build 0)  -->
<svg version="1.1" id="Capa_1" xmlns="http://www.w3.org/2000/svg" xmlns:xlink="http://www.w3.org/1999/xlink" x="0px" y="0px"
	 viewBox="0 0 612 792" style="enable-background:new 0 0 612 792;" xml:space="preserve">
<style type="text/css">
	.st0{fill:#4DE680;}
	.st1{fill:#FFFFFF;}
</style>
<g>
	<path class="st0" d="M527.9,332.1c0,178.5-201.5,343.7-201.5,343.7c-11.7,9.7-31.1,9.7-42.8,0c0,0-201.5-165.3-201.5-343.7
		c0-123.1,99.8-222.9,222.9-222.9S527.9,209,527.9,332.1z"/>
</g>
<g>
	<g>
		<g>
			<path class="st1" d="M422,208.3c-0.2-0.6-0.8-0.8-1.3-0.7c-7.2,2.4-14.5,4-22,5.1c-8.9,1.3-17.9,1.1-26.7-0.7
				c-6.7-1.5-13.5-2-20.3-1.6c-5.7,0.3-11.3,1.9-16.3,4.6c-1.8,1-3.6,2.3-5.1,3.7c-1.5,1.4-2.9,2.9-4.1,4.6
				c-1.2,1.7-2.3,3.5-3.1,5.3c-0.8,1.9-1.5,3.9-1.9,6c-1.1,5.4-1.1,11,0,16.4c0.8,4.4,2.2,8.6,4.1,12.6c-10.4,9.1-18,21-22,34.2
				c-4-7.4-9.3-14.1-15.7-19.5c1.8-4,3.2-8.2,4-12.6c1.1-5.4,1.1-11,0-16.4c-0.5-2.1-1.1-4.1-1.9-6c-0.9-1.9-1.9-3.7-3.1-5.3
				c-1.2-1.7-2.6-3.3-4.1-4.6c-1.6-1.4-3.3-2.6-5.1-3.7c-5-2.7-10.6-4.3-16.3-4.6c-6.9-0.4-13.7,0.2-20.4,1.8
				c-8.8,1.8-17.8,2-26.7,0.7c-7.5-1-14.8-2.7-22-5c-0.5-0.2-1.1,0.1-1.3,0.7c-0.1,0.2-0.1,0.4,0,0.6c3.2,13.1,7.5,25.9,13,38.2
				c4.2,9.8,9.8,18.9,16.6,27.1l0,0c3.4,4,7.4,7.5,11.7,10.5c3.8,2.6,8.1,4.4,12.6,5.5c3.7,0.8,7.5,1,11.3,0.4
				c3.9-0.6,7.6-1.8,11-3.6c1.4-0.8,2.8-1.6,4.2-2.6c1.4-1,2.7-2,3.9-3.1c0.4-0.4,0.4-1.1,0-1.5h-0.2c-3.7-2.7-7.7-5.1-11.8-7.1
				c-4-2-8.1-3.6-12-5.3c-6.1-2.4-12.1-5.2-17.9-8.3c-6-3.4-11.4-7.8-15.9-13c-1.5-2-1.1-4.9,0.9-6.4c1.9-1.4,4.5-1.2,6.1,0.5
				c8.3,9.7,19.1,14.2,30.3,18.8c4.5,1.9,9.1,3.8,13.5,6c3.7,1.8,7.3,3.9,10.7,6.3c7.1,6,12.7,13.5,16.5,22c-15.7,2-30.6,8.2-43,18
				c3.1,11.1,11,17.9,18.3,24.2c9.1,7.2,17,13.9,17.3,26.2c0.2,9.2-4.3,14.7-9.3,20.7c-4.2,4.5-7.3,9.8-9,15.7
				c-0.5,3.9-0.5,7.8-0.2,11.6c0.3,8.8,0.7,19-2.6,26.8c-2.4,6.8-8.8,11.4-16,11.5c9.9,8.2,21.4,14.1,33.8,17.3
				c-1.3-8.8,2.7-17.6,10.2-22.5c8.2-6,22-1.9,36.2,2.3c10.5,3.1,21.5,6.3,28.7,5.3c24.9-18.8,38-49.3,34.5-80.3
				c-8.2-11.4-18.6-17.8-27.5-23.3c-17.1-10.5-29.8-18.3-21.1-45.6c-10.3-5-21.4-8-32.8-8.8c5.1-18,12.9-28.7,21.8-36.1
				c3.4-2.3,7-4.4,10.7-6.3c4.5-2.2,9-4.1,13.5-6c11.2-4.6,22-9.1,30.3-18.8c1.7-1.8,4.6-1.9,6.5-0.2c1.7,1.6,1.9,4.2,0.5,6.1
				c-4.5,5.2-9.9,9.6-15.9,13c-5.8,3.2-11.7,6-17.9,8.3c-4,1.7-8,3.3-12,5.3c-4.1,2-8.1,4.4-11.8,7.1H338c-0.4,0.4-0.4,1.1,0,1.5
				c1.2,1.1,2.6,2.2,3.9,3.1c1.3,0.9,2.7,1.8,4.2,2.5c3.4,1.8,7.2,3.1,11,3.6c3.8,0.5,7.6,0.4,11.3-0.4c4.5-1.1,8.7-2.9,12.6-5.5
				c4.4-2.9,8.3-6.5,11.7-10.5c6.8-8.2,12.4-17.3,16.6-27.1c5.4-12.3,9.6-25,12.7-38.1C422,208.8,422,208.5,422,208.3z"/>
		</g>
	</g>
	<g>
		<g>
			<path class="st1" d="M276.1,376.6c0-7.1-6.3-12.3-13.1-18.2c-7.4-6.3-15.7-13.4-20-24.5c-30.1,31.2-32.9,79.8-6.6,114.3
				c12.4,5.1,17.6,3.1,19.6-1.5c2.3-5.4,2-14.3,1.7-22c-0.4-4.9-0.3-9.8,0.5-14.7c2-7.5,5.9-14.3,11.1-20l0,0
				C273,385.7,276.2,381.7,276.1,376.6z"/>
		</g>
	</g>
	<g>
		<g>
			<path class="st1" d="M327.2,470.7c-11.6-3.5-22.7-6.7-26.4-4c-5.1,3.5-7,10-4.7,15.7c3.4,0.4,6.7,0.6,10.1,0.6
				c12.7,0,25.2-2.7,36.7-7.9C337.7,473.8,332.5,472.3,327.2,470.7z"/>
		</g>
	</g>
	<g>
		<g>
			<path class="st1" d="M355.1,321.8L355.1,321.8c-4.2,17.2,4.9,22.8,16.9,30.2c5.6,3.3,11,7,16.2,11
				C381.7,346.3,370.1,331.9,355.1,321.8z"/>
		</g>
	</g>
</g>
</svg>
