<?xml version="1.0" encoding="utf-8"?>
<!-- Generator: Adobe Illustrator 22.0.1, SVG Export Plug-In . SVG Version: 6.00 Build 0)  -->
<svg version="1.1" id="Capa_1" xmlns="http://www.w3.org/2000/svg" xmlns:xlink="http://www.w3.org/1999/xlink" x="0px" y="0px"
	 viewBox="0 0 612 792" style="enable-background:new 0 0 612 792;" xml:space="preserve">
<style type="text/css">
	.st0{fill:#4DE680;}
	.st1{fill:#FDFDFD;}
</style>
<g>
	<path class="st0" d="M527.9,332.1c0,178.5-201.5,343.7-201.5,343.7c-11.7,9.7-31.1,9.7-42.8,0c0,0-201.5-165.3-201.5-343.7
		c0-123.1,99.8-222.9,222.9-222.9S527.9,209,527.9,332.1z"/>
</g>
<g>
	<g>
		<g>
			<path class="st1" d="M433.8,272.2h-56V241c0-1.7-0.7-3.2-1.8-4.4L351,211.7c-0.8-0.8-1.8-1.2-2.8-1.5c-0.3-0.1-0.5-0.1-0.8-0.2
				c-0.3,0-0.5-0.2-0.8-0.2h-62.3c-3.4,0-6.2,2.8-6.2,6.2V241c0,3.4,2.8,6.2,6.2,6.2h56v24.9h-74.7v-56c0-2.5-1.5-4.8-3.8-5.8
				c-2.3-1-5-0.4-6.8,1.4l-24.9,24.9c-1.2,1.2-1.8,2.7-1.8,4.4v31.1h-56c-3.4,0-6.2,2.8-6.2,6.2V459c0,13.7,11.2,24.9,24.9,24.9
				h224.2c13.7,0,24.9-11.2,24.9-24.9V278.4C440,274.9,437.2,272.2,433.8,272.2z M287.3,434.1c-6.8,0-13.1-1.9-19.1-5.5
				c-0.9,2.5-2,4.7-2.8,7.4c-0.8,2.7-3.3,4.4-5.9,4.4c-0.6,0-1.2-0.1-1.8-0.3c-3.3-1-5.1-4.5-4.1-7.8c1.9-6.1,4.1-11.8,6.5-17.1
				c0.1-0.2,0.3-0.4,0.4-0.6c16.6-34.9,44.2-49.3,71.3-60.9c3.2-1.4,4.6-5,3.3-8.2c-1.3-3.1-5-4.6-8.2-3.3
				c-23,9.9-49.2,22.7-68,50.2c-1.6,2.4-4.7,3.3-7.4,2.3c-2.7-1-4.3-3.8-4-6.6c4.8-37.2,56.3-66.1,97.5-66.1
				c7.8,0,14.1,6.3,14.1,14.1C359,380.5,327,434.1,287.3,434.1z"/>
		</g>
	</g>
</g>
</svg>
