<svg xmlns="http://www.w3.org/2000/svg" width="612px" height="792px" viewBox="20 -50 642 742">
  <g id="icon_food_bank">
    <path id="Path_1" data-name="Path 1" d="M569.12,252.16c0,178.484-201.455,343.72-201.455,343.72-11.747,9.658-31.063,9.658-42.81,0,0,0-201.455-165.3-201.455-343.72,0-123.079,99.781-222.86,222.86-222.86S569.12,129.081,569.12,252.16Z" fill="#ff976a"/>
    <g id="Group_1" data-name="Group 1" transform="translate(233.623 120.663)">
      <path id="Path_2" data-name="Path 2" d="M532.364,169.4A52.722,52.722,0,0,0,479.7,222.064v26.952a52.53,52.53,0,0,0,9.528,30.215,53.729,53.729,0,0,0,18.664,16.445V447.73a24.472,24.472,0,1,0,48.944,0V295.676a52.749,52.749,0,0,0,28.192-46.66V222.064A52.722,52.722,0,0,0,532.364,169.4Z" transform="translate(-357.404 -169.335)" fill="#fff"/>
      <path id="Path_3" data-name="Path 3" d="M388.883,169.3a8.885,8.885,0,0,0-8.875,8.875v61.017H368.523V178.175a8.875,8.875,0,1,0-17.75,0v61.017H339.287V178.175a8.875,8.875,0,1,0-17.75,0v61.017H310.05V178.175a8.875,8.875,0,1,0-17.75,0v99.39a24.147,24.147,0,0,0,24.081,24.081h4.177V447.7a24.472,24.472,0,1,0,48.944,0V301.646h4.177a24.147,24.147,0,0,0,24.081-24.081v-99.39A8.884,8.884,0,0,0,388.883,169.3Z" transform="translate(-292.3 -169.3)" fill="#fff"/>
    </g>
  </g>
</svg>
