<?xml version="1.0" encoding="utf-8"?>
<!-- Generator: Adobe Illustrator 22.0.1, SVG Export Plug-In . SVG Version: 6.00 Build 0)  -->
<svg version="1.1" id="Capa_1" xmlns="http://www.w3.org/2000/svg" xmlns:xlink="http://www.w3.org/1999/xlink" x="0px" y="0px"
	 viewBox="0 0 937.8 937.8" style="enable-background:new 0 0 937.8 937.8;" xml:space="preserve">
<style type="text/css">
	.st0{fill:#FF976A;}
	.st1{fill:#FFFFFF;}
</style>
<g>
	<path class="st0" d="M806.4,370.8c0,273.5-308.7,526.7-308.7,526.7c-18,14.8-47.6,14.8-65.6,0c0,0-308.7-253.3-308.7-526.7
		c0-188.6,152.9-341.5,341.5-341.5S806.4,182.2,806.4,370.8z"/>
	<g>
		<path class="st1" d="M560.4,169.4c-44.5,0-80.7,36.2-80.7,80.7v41.3c0,16.7,5.1,32.7,14.6,46.3c7.5,10.6,17.3,19.2,28.6,25.2v233
			c0,20.7,16.8,37.5,37.5,37.5c20.7,0,37.5-16.8,37.5-37.5v-233c11.4-6,21.2-14.5,28.6-25.2c9.6-13.6,14.6-29.6,14.6-46.3v-41.3
			C641.1,205.6,604.9,169.4,560.4,169.4z"/>
		<path class="st1" d="M440.3,169.3c-7.5,0-13.6,6.1-13.6,13.6v93.5h-17.6v-93.5c0-7.5-6.1-13.6-13.6-13.6
			c-7.5,0-13.6,6.1-13.6,13.6v93.5h-17.6v-93.5c0-7.5-6.1-13.6-13.6-13.6c-7.5,0-13.6,6.1-13.6,13.6v93.5h-17.6v-93.5
			c0-7.5-6.1-13.6-13.6-13.6c-7.5,0-13.6,6.1-13.6,13.6V290v45.2c0,20.3,16.6,36.9,36.9,36.9h6.4v223.8c0,20.7,16.8,37.5,37.5,37.5
			c20.7,0,37.5-16.8,37.5-37.5V372.1h6.4c20.3,0,36.9-16.6,36.9-36.9V290V182.9C453.9,175.4,447.8,169.3,440.3,169.3z"/>
	</g>
</g>
</svg>
