<?xml version="1.0" encoding="utf-8"?>
<!-- Generator: Adobe Illustrator 22.0.0, SVG Export Plug-In . SVG Version: 6.00 Build 0)  -->
<svg version="1.1" id="圖層_1" xmlns="http://www.w3.org/2000/svg" xmlns:xlink="http://www.w3.org/1999/xlink" x="0px" y="0px"
	 viewBox="50 60 275 255" style="enable-background:new 0 0 365 365;" xml:space="preserve">
<style type="text/css">
	.st0{fill:#6BBD77;}
	.st1{clip-path:url(#SVGID_2_);fill:none;stroke:#FFFFFF;stroke-width:15.928;stroke-miterlimit:10;}
	.st2{clip-path:url(#SVGID_2_);fill:none;stroke:#FFFFFF;stroke-width:15.7121;stroke-miterlimit:10;}
	.st3{fill:#6FC076;}
	.st4{fill:#B4DBAF;}
	.st5{fill:#73C16F;}
	.st6{fill:#F27F98;}
	.st7{fill:#F77E9C;}
	.st8{fill:#FFFFFF;}
	.st9{fill:#4DE680;}
	.st10{fill:#4695FC;}
	.st11{fill:#FF976A;}
	.st12{fill:#F88181;}
	.st13{clip-path:url(#SVGID_4_);}
	.st14{clip-path:url(#SVGID_6_);fill:#FFFFFF;}
	.st15{clip-path:url(#SVGID_8_);}
	.st16{clip-path:url(#SVGID_10_);fill:#FFFFFF;}
	.st17{clip-path:url(#SVGID_12_);}
	.st18{clip-path:url(#SVGID_14_);fill:#FFFFFF;}
	.st19{clip-path:url(#SVGID_16_);}
	.st20{clip-path:url(#SVGID_18_);fill:#FFFFFF;}
	.st21{clip-path:url(#SVGID_20_);}
	.st22{clip-path:url(#SVGID_22_);fill:#FFFFFF;}
	.st23{clip-path:url(#SVGID_24_);}
	.st24{clip-path:url(#SVGID_26_);fill:#FFFFFF;}
	.st25{clip-path:url(#SVGID_28_);}
	.st26{clip-path:url(#SVGID_30_);fill:#FFFFFF;}
	.st27{clip-path:url(#SVGID_32_);}
	.st28{clip-path:url(#SVGID_34_);fill:#FFFFFF;}
	.st29{clip-path:url(#SVGID_36_);}
	.st30{clip-path:url(#SVGID_38_);fill:#FFFFFF;}
	.st31{clip-path:url(#SVGID_40_);}
	.st32{clip-path:url(#SVGID_42_);fill:#FFFFFF;}
	.st33{clip-path:url(#SVGID_44_);}
	.st34{clip-path:url(#SVGID_46_);fill:#FFFFFF;}
	.st35{clip-path:url(#SVGID_48_);fill:none;stroke:#FFFFFF;stroke-width:15.7622;stroke-miterlimit:10;}
	.st36{clip-path:url(#SVGID_48_);fill:none;stroke:#FFFFFF;stroke-width:15.5485;stroke-miterlimit:10;}
</style>
<g>
	<g>
		<g>
			<defs>
				<path id="SVGID_11_" d="M-645.7,156.2c0.1-0.1,0.2-0.1,0.2-0.2c0.6-0.8,1.4-1.1,2.3-0.8c0.9,0.3,1.2,1,1.2,2c0,3.4,0,6.8,0,10.3
					c0,20.4,0,40.7,0,61.1c0,3.3,2.4,5.8,5.7,5.8c14.5,0,29,0,43.5,0c0.3,0,0.6,0,1.1-0.1c0-1.3,0-2.6,0-3.8c0-0.3-0.4-0.6-0.7-0.7
					c-4.1-1.6-8.3-2.6-12.7-2.7c-10.2-0.2-20.4,1-30.3,3.5c-1.8,0.4-2.8-0.3-2.8-2.1c0-17.5,0-35,0-52.5c0-9.2,0-18.3,0-27.5
					c0-1.7,0.3-2.2,2-2.6c3.4-0.7,6.8-1.4,10.3-2.1c1.4-0.3,2.4,0.4,2.6,1.5c0.2,1.1-0.5,1.9-1.9,2.1c-2.7,0.5-5.5,1.1-8.2,1.6
					c-0.7,0.1-0.9,0.4-0.9,1.1c0,21.7,0,43.3,0,65c0,3.3,0,6.6,0,9.9v1.3c2.5-0.5,4.9-1,7.4-1.4c7.9-1.3,15.9-2,23.9-1.6
					c4.4,0.3,8.7,1.4,12.8,3c0.5,0.2,1.1,0.2,1.6,0c8-2.8,16.3-3.6,24.8-3c6.2,0.5,12.4,1.2,18.4,2.7c0.2,0,0.4,0.1,0.7,0.1v-1.2
					c0-24.9,0-49.8,0-74.7c0-1.1-0.4-1.5-1.4-1.7c-2.7-0.4-5.4-0.9-8.1-1.3c-1.3-0.2-2-1-1.9-2.1c0.1-1,1-1.7,2.2-1.6
					c3.9,0.3,7.7,0.9,11.3,2.2c1.2,0.4,1.6,1.2,1.6,2.4c0,17.8,0,35.5,0,53.3c0,8.9,0,17.8,0,26.7c0,2-1,2.7-2.9,2.2
					c-9.4-2.6-19-3.6-28.7-3.4c-4.9,0.1-9.7,1.3-14.3,2.8c-0.3,0.1-0.6,0.4-0.6,0.7c-0.1,1.2,0,2.4,0,3.8h1.6c14.3,0,28.5,0,42.8,0
					c3.5,0,6-2.4,6-5.9c0-23.6,0-47.3,0-70.9c0-1.9,1.2-2.7,2.3-2.3c0.5,0.2,1,0.7,1.5,1v74.3c-0.1,0.2-0.2,0.4-0.2,0.6
					c-1,3.5-3.3,5.8-6.8,6.8c-0.2,0.1-0.4,0.2-0.6,0.2H-638c-0.2-0.1-0.4-0.2-0.6-0.2c-2.4-0.6-4.3-1.9-5.6-4c-0.6-1-1-2.2-1.5-3.3
					V156.2z"/>
			</defs>
			<use xlink:href="#SVGID_11_"  style="overflow:visible;fill-rule:evenodd;clip-rule:evenodd;fill:#FFFFFF;"/>
			<clipPath id="SVGID_2_">
				<use xlink:href="#SVGID_11_"  style="overflow:visible;"/>
			</clipPath>
			<g style="clip-path:url(#SVGID_2_);">
				<defs>
					<rect id="SVGID_13_" x="-1141" y="-319.2" width="2013.8" height="2341.1"/>
				</defs>
				<use xlink:href="#SVGID_13_"  style="overflow:visible;fill:#FFFFFF;"/>
				<clipPath id="SVGID_4_">
					<use xlink:href="#SVGID_13_"  style="overflow:visible;"/>
				</clipPath>
			</g>
		</g>
		<g>
			<defs>
				<path id="SVGID_15_" d="M-589.6,134.9c20.1,0,37.4,14,40.6,32.9c0.3,2,0.5,4.1,0.6,6.2c0.1,1.4-0.7,2.2-1.8,2.3
					c-1.2,0-1.9-0.7-2-2.2c-0.1-4.4-0.8-8.7-2.6-12.8c-5.4-12.2-14.9-19.8-28.5-22.1c-19.3-3.3-37.9,8.3-42.6,26.5
					c-0.6,2.4-0.8,4.8-1.1,7.2c-0.1,0.5,0,1.1-0.1,1.6c-0.1,1.1-0.9,1.8-1.9,1.8c-1.1,0-1.9-0.8-1.8-2c0.2-2.7,0.3-5.5,0.9-8.1
					c3.6-14.4,12.8-24.2,27.3-29.2C-598.5,135.4-594.1,134.9-589.6,134.9"/>
			</defs>
			<use xlink:href="#SVGID_15_"  style="overflow:visible;fill-rule:evenodd;clip-rule:evenodd;fill:#FFFFFF;"/>
			<clipPath id="SVGID_6_">
				<use xlink:href="#SVGID_15_"  style="overflow:visible;"/>
			</clipPath>
			<g style="clip-path:url(#SVGID_6_);">
				<defs>
					<rect id="SVGID_17_" x="-1141" y="-319.2" width="2013.8" height="2341.1"/>
				</defs>
				<use xlink:href="#SVGID_17_"  style="overflow:visible;fill:#FFFFFF;"/>
				<clipPath id="SVGID_8_">
					<use xlink:href="#SVGID_17_"  style="overflow:visible;"/>
				</clipPath>
			</g>
		</g>
		<g>
			<defs>
				<path id="SVGID_19_" d="M-590.5,146c-14.3,0-26,10.4-28.6,23.5c-0.4,1.8-0.4,3.7-0.7,5.6c-0.1,0.7-0.3,1.6-0.8,2
					c-0.4,0.4-1.3,0.4-1.9,0.2c-0.8-0.3-1.1-1.1-1.1-1.9c0.1-3.4,0.5-6.7,1.6-9.8c4.4-12.6,13-20.5,26-22.8
					c17.5-3.2,34,8.3,37.9,25.6c0.5,2.1,0.6,4.4,0.8,6.6c0.2,1.7-0.6,2.6-1.8,2.7c-1.2,0-1.9-0.9-2-2.6c-0.5-11.1-5.5-19.5-15-25.2
					C-580.5,147.2-585.3,146-590.5,146"/>
			</defs>
			<use xlink:href="#SVGID_19_"  style="overflow:visible;fill-rule:evenodd;clip-rule:evenodd;fill:#FFFFFF;"/>
			<clipPath id="SVGID_10_">
				<use xlink:href="#SVGID_19_"  style="overflow:visible;"/>
			</clipPath>
			<g style="clip-path:url(#SVGID_10_);">
				<defs>
					<rect id="SVGID_21_" x="-1141" y="-319.2" width="2013.8" height="2341.1"/>
				</defs>
				<use xlink:href="#SVGID_21_"  style="overflow:visible;fill:#FFFFFF;"/>
				<clipPath id="SVGID_12_">
					<use xlink:href="#SVGID_21_"  style="overflow:visible;"/>
				</clipPath>
			</g>
		</g>
		<g>
			<defs>
				<path id="SVGID_23_" d="M-564.7,172.8c0,0.3,0,0.5,0.1,0.8c0.1,1.6-0.6,2.5-1.9,2.6c-1.2,0-1.8-0.9-2-2.4
					c-0.3-2.3-0.5-4.7-1.3-6.8c-3.1-9.1-11.7-15-21.5-15c-11.2,0-20.8,8.2-22.3,19.2c-0.1,1-0.2,2-0.2,2.9c-0.1,1.3-0.8,2.1-2,2.1
					c-1.2,0-1.9-0.9-1.9-2.2c0.1-12.9,10.2-24,23.1-25.6c14.7-1.8,27.9,8.3,29.8,22.7C-564.7,171.7-564.7,172.2-564.7,172.8
					C-564.7,172.8-564.7,172.8-564.7,172.8"/>
			</defs>
			<use xlink:href="#SVGID_23_"  style="overflow:visible;fill-rule:evenodd;clip-rule:evenodd;fill:#FFFFFF;"/>
			<clipPath id="SVGID_14_">
				<use xlink:href="#SVGID_23_"  style="overflow:visible;"/>
			</clipPath>
			<g style="clip-path:url(#SVGID_14_);">
				<defs>
					<rect id="SVGID_25_" x="-1141" y="-319.2" width="2013.8" height="2341.1"/>
				</defs>
				<use xlink:href="#SVGID_25_"  style="overflow:visible;fill:#FFFFFF;"/>
				<clipPath id="SVGID_16_">
					<use xlink:href="#SVGID_25_"  style="overflow:visible;"/>
				</clipPath>
			</g>
		</g>
		<g>
			<defs>
				<path id="SVGID_27_" d="M-589.7,190.1c0,10.3,0,20.6,0,30.9c0,1-0.2,1.8-0.9,2.2c-1,0.6-2-0.4-2-2.1c0-2.8,0-5.5,0-8.3
					c0-17.7,0-35.5,0-53.2c0-0.4,0-0.8,0.1-1.2c0.2-0.9,0.7-1.4,1.4-1.4c0.7,0,1.2,0.5,1.4,1.4c0.1,0.4,0.1,0.9,0.1,1.3
					C-589.7,169.8-589.7,180-589.7,190.1L-589.7,190.1z"/>
			</defs>
			<use xlink:href="#SVGID_27_"  style="overflow:visible;fill-rule:evenodd;clip-rule:evenodd;fill:#FFFFFF;"/>
			<clipPath id="SVGID_18_">
				<use xlink:href="#SVGID_27_"  style="overflow:visible;"/>
			</clipPath>
			<g style="clip-path:url(#SVGID_18_);">
				<defs>
					<rect id="SVGID_29_" x="-1141" y="-319.2" width="2013.8" height="2341.1"/>
				</defs>
				<use xlink:href="#SVGID_29_"  style="overflow:visible;fill:#FFFFFF;"/>
				<clipPath id="SVGID_20_">
					<use xlink:href="#SVGID_29_"  style="overflow:visible;"/>
				</clipPath>
			</g>
		</g>
		<g>
			<defs>
				<path id="SVGID_31_" d="M-558.7,128.3c0,0.3-0.3,0.6-0.7,0.7c-0.9,0.2-1.9,0.4-2.8,0.6c-0.3,0.1-0.4,0.2-0.4,0.4
					c-0.2,0.9-0.3,1.8-0.5,2.7c-0.1,0.5-0.4,0.8-0.8,0.8c-0.4,0-0.7-0.3-0.8-0.8c-0.2-0.9-0.4-1.8-0.5-2.7c0-0.3-0.2-0.4-0.4-0.4
					c-0.9-0.2-1.7-0.3-2.6-0.5c-0.4-0.1-0.7-0.2-0.8-0.6c-0.1-0.4,0.2-0.8,0.7-0.9c0.9-0.2,1.8-0.4,2.7-0.5c0.3-0.1,0.5-0.2,0.6-0.5
					c0.1-0.9,0.3-1.7,0.5-2.6c0.1-0.5,0.4-0.8,0.8-0.8c0.4,0,0.6,0.2,0.8,0.8c0.2,0.9,0.4,1.7,0.5,2.6c0.1,0.3,0.2,0.5,0.5,0.5
					c0.9,0.2,1.8,0.3,2.7,0.5C-559,127.6-558.7,127.8-558.7,128.3 M-563.9,127.8c-0.1,0.1-0.3,0.3-0.4,0.4c0.2,0.2,0.3,0.3,0.5,0.4
					c0.2-0.2,0.3-0.3,0.5-0.5c0,0-0.1,0.1-0.1,0.1C-563.6,128.1-563.8,128-563.9,127.8"/>
			</defs>
			<use xlink:href="#SVGID_31_"  style="overflow:visible;fill-rule:evenodd;clip-rule:evenodd;fill:#FFFFFF;"/>
			<clipPath id="SVGID_22_">
				<use xlink:href="#SVGID_31_"  style="overflow:visible;"/>
			</clipPath>
			<g style="clip-path:url(#SVGID_22_);">
				<defs>
					<rect id="SVGID_33_" x="-1141" y="-319.2" width="2013.8" height="2341.1"/>
				</defs>
				<use xlink:href="#SVGID_33_"  style="overflow:visible;fill:#FFFFFF;"/>
				<clipPath id="SVGID_24_">
					<use xlink:href="#SVGID_33_"  style="overflow:visible;"/>
				</clipPath>
			</g>
		</g>
		<g>
			<defs>
				<path id="SVGID_35_" d="M-594.1,196.7c0,0-2.3-6.5-6.2-9c-3.7-2.4-9-3.3-9.9-2.4c-0.9,0.9,3.9,6.8,5.4,7.9
					C-601.7,195.4-597.3,197.1-594.1,196.7"/>
			</defs>
			<use xlink:href="#SVGID_35_"  style="overflow:visible;fill-rule:evenodd;clip-rule:evenodd;fill:#FFFFFF;"/>
			<clipPath id="SVGID_26_">
				<use xlink:href="#SVGID_35_"  style="overflow:visible;"/>
			</clipPath>
			<g style="clip-path:url(#SVGID_26_);">
				<defs>
					<rect id="SVGID_37_" x="-1141" y="-319.2" width="2013.8" height="2341.1"/>
				</defs>
				<use xlink:href="#SVGID_37_"  style="overflow:visible;fill:#FFFFFF;"/>
				<clipPath id="SVGID_28_">
					<use xlink:href="#SVGID_37_"  style="overflow:visible;"/>
				</clipPath>
			</g>
		</g>
		<g>
			<defs>
				<path id="SVGID_39_" d="M-583.8,204.1c0,0,8.6-2,12.5-6.9c3.7-4.8,5.9-12,5-13.5c-0.9-1.5-9.3,4.1-11,6.1
					C-580.7,193.7-583.6,199.6-583.8,204.1"/>
			</defs>
			<use xlink:href="#SVGID_39_"  style="overflow:visible;fill-rule:evenodd;clip-rule:evenodd;fill:#FFFFFF;"/>
			<clipPath id="SVGID_30_">
				<use xlink:href="#SVGID_39_"  style="overflow:visible;"/>
			</clipPath>
			<g style="clip-path:url(#SVGID_30_);">
				<defs>
					<rect id="SVGID_41_" x="-1141" y="-319.2" width="2013.8" height="2341.1"/>
				</defs>
				<use xlink:href="#SVGID_41_"  style="overflow:visible;fill:#FFFFFF;"/>
				<clipPath id="SVGID_32_">
					<use xlink:href="#SVGID_41_"  style="overflow:visible;"/>
				</clipPath>
			</g>
		</g>
		<g>
			<defs>
				<path id="SVGID_43_" d="M-594.1,208.6c0,0-3.5-5-6.9-5.7c-3.3-0.7-7.4,0.6-7.8,1.7c-0.4,1.2,4.7,4.6,6.1,5
					C-599.9,210.4-596.3,210.2-594.1,208.6"/>
			</defs>
			<use xlink:href="#SVGID_43_"  style="overflow:visible;fill-rule:evenodd;clip-rule:evenodd;fill:#FFFFFF;"/>
			<clipPath id="SVGID_34_">
				<use xlink:href="#SVGID_43_"  style="overflow:visible;"/>
			</clipPath>
			<g style="clip-path:url(#SVGID_34_);">
				<defs>
					<rect id="SVGID_45_" x="-1141" y="-319.2" width="2013.8" height="2341.1"/>
				</defs>
				<use xlink:href="#SVGID_45_"  style="overflow:visible;fill:#FFFFFF;"/>
				<clipPath id="SVGID_36_">
					<use xlink:href="#SVGID_45_"  style="overflow:visible;"/>
				</clipPath>
			</g>
		</g>
	</g>
</g>
<g>
	<path class="st0" d="M284.7,141.9c0,0-118.8,4.9-172.7,56.6c-30,28.8-24.9,102.3-24.9,102.3s148.8,25.3,186.1-58.4
		C294.1,195.7,284.7,141.9,284.7,141.9z"/>
	<g>
		<defs>
			<path id="SVGID_47_" d="M284.7,141.9c0,0-118.8,4.9-172.7,56.6c-30,28.8-24.9,102.3-24.9,102.3s148.8,25.3,186.1-58.4
				C294.1,195.7,284.7,141.9,284.7,141.9z"/>
		</defs>
		<clipPath id="SVGID_38_">
			<use xlink:href="#SVGID_47_"  style="overflow:visible;"/>
		</clipPath>
		<path style="clip-path:url(#SVGID_38_);fill:none;stroke:#FFFFFF;stroke-width:15.7622;stroke-miterlimit:10;" d="M172.3,247.9
			c10.2,5.7,21.7,11.3,34.5,16.4c24,9.7,46.5,15.3,66,18.6"/>
		<path style="clip-path:url(#SVGID_38_);fill:none;stroke:#FFFFFF;stroke-width:15.5485;stroke-miterlimit:10;" d="M75,282.9
			c66.4-15.6,157.4-48.7,216.6-122.3c4.4-5.4,8.4-10.9,12.2-16.3"/>
	</g>
</g>
<g>
	<g>
		<path class="st7" d="M248.4,134.4c0,57.5-64.9,110.8-64.9,110.8c-3.8,3.1-10,3.1-13.8,0c0,0-64.9-53.3-64.9-110.8
			c0-39.7,32.2-71.8,71.8-71.8S248.4,94.7,248.4,134.4z"/>
	</g>
	<path class="st8" d="M225.3,136.6c0,26.9-21.8,48.8-48.8,48.8c-16.1,0-30.4-7.8-39.3-19.9c-5.9-8.1-9.5-18.1-9.5-28.9
		c0-26.9,21.8-48.8,48.8-48.8C203.5,87.8,225.3,109.7,225.3,136.6z"/>
</g>
</svg>
