<?xml version="1.0" encoding="utf-8"?>
<!-- Generator: Adobe Illustrator 22.0.0, SVG Export Plug-In . SVG Version: 6.00 Build 0)  -->
<svg version="1.1" id="圖層_1" xmlns="http://www.w3.org/2000/svg" xmlns:xlink="http://www.w3.org/1999/xlink" x="0px" y="0px"
	 viewBox="50 20 255 325" style="enable-background:new 0 0 365 365;" xml:space="preserve">
<style type="text/css">
	.st0{fill:#6BBD77;}
	.st1{clip-path:url(#SVGID_2_);fill:none;stroke:#FFFFFF;stroke-width:15.928;stroke-miterlimit:10;}
	.st2{clip-path:url(#SVGID_2_);fill:none;stroke:#FFFFFF;stroke-width:15.7121;stroke-miterlimit:10;}
	.st3{fill:#6FC076;}
	.st4{fill:#B4DBAF;}
	.st5{fill:#73C16F;}
	.st6{fill:#F27F98;}
	.st7{font-family:'MicrosoftJhengHeiBold';}
	.st8{font-size:8.1571px;}
	.st9{letter-spacing:7;}
	.st10{fill:#F77E9C;}
	.st11{fill:#FFFFFF;}
	.st12{fill:#4DE680;}
	.st13{fill:#4695FC;}
	.st14{fill:#FF976A;}
	.st15{fill:#F88181;}
</style>
<g>
	<path class="st0" d="M279.3,114.4c0,0-120,4.9-174.5,57.2C74.5,200.7,79.7,275,79.7,275s150.3,25.6,188.1-59
		C288.8,168.8,279.3,114.4,279.3,114.4z"/>
	<g>
		<defs>
			<path id="SVGID_1_" d="M279.3,114.4c0,0-120,4.9-174.5,57.2C74.5,200.7,79.7,275,79.7,275s150.3,25.6,188.1-59
				C288.8,168.8,279.3,114.4,279.3,114.4z"/>
		</defs>
		<clipPath id="SVGID_2_">
			<use xlink:href="#SVGID_1_"  style="overflow:visible;"/>
		</clipPath>
		<path class="st1" d="M165.7,221.6c10.3,5.7,21.9,11.4,34.8,16.6c24.2,9.8,47,15.5,66.7,18.8"/>
		<path class="st2" d="M67.4,256.9c67.1-15.8,159-49.2,218.9-123.6c4.4-5.5,8.5-11,12.3-16.5"/>
	</g>
</g>
<g>
	<g>
		<path class="st3" d="M142.9,324.7c-0.1,0.1-0.3,0.3-0.4,0.4c-0.1,0.2-0.2,0.3-0.4,0.4c-0.1,0-0.1,0.1-0.2,0.2
			c-0.3,0.4-0.5,0.4-0.9,0.3c-0.1,0-0.2-0.1-0.2-0.1c-0.2-0.2-0.5-0.2-0.7,0c-0.5,0.3-0.9,0.1-1.1-0.5c0-0.1,0-0.2,0-0.3
			c0-0.2-0.1-0.3-0.2-0.3c-0.3-0.1-0.5-0.2-0.7-0.4c-0.3-0.3-0.4-0.6-0.1-1c0.2-0.2,0.3-0.5,0.4-0.8c0-0.1,0-0.3,0.1-0.3
			c0.4-0.2,0.4-0.8,0.9-1c0,0,0.1-0.1,0.1-0.1c0-0.4,0.4-0.6,0.5-1c0-0.2,0.2-0.3,0.3-0.3c0.2-0.1,0.3-0.2,0.2-0.4
			c0-0.3,0-0.7,0.3-0.9c0,0,0,0,0,0c-0.1-0.4,0.3-0.7,0.4-1.1c0-0.1,0.1-0.3,0.2-0.4c0.3-0.2,0.4-0.5,0.7-0.7
			c0.1-0.1,0.1-0.2,0.1-0.4c-0.1-0.2-0.1-0.5,0.1-0.7c0.3-0.5,0.5-1.1,0.7-1.6c0.1-0.4,0.4-0.6,0.8-0.6c0.4,0,0.8-0.2,1.2,0.1
			c0.1,0.1,0.1,0,0.2-0.1c0.1-0.1,0.1-0.2,0.2-0.2c0.1-0.1,0.2-0.2,0.3-0.2c0.5,0.1,0.9-0.1,1.4,0c0.3,0.1,0.5,0.4,0.6,0.7
			c0,0.3,0.1,0.6,0.5,0.5c0.1,0,0.2,0,0.2,0.1c0.3,0.5,0.8,0.7,1,1.3c0.1,0.2,0.2,0.3,0.3,0.4c0.3,0.2,0.5,0.5,0.6,0.8
			c0.2,0.3,0.3,0.7,0.7,0.8c0.2,0.1,0.3,0.2,0.4,0.4c0.1,0.2,0.1,0.3,0.3,0.3c0.5,0.1,0.9,0.4,1.2,0.8c0.1,0.1,0.2,0.2,0.4,0.2
			c0.3,0,0.5,0.1,0.6,0.3c0.1,0.1,0.1,0.2,0.3,0.2c0.3,0,0.4,0.2,0.5,0.5c0.1,0.3,0.2,0.6,0.5,0.9c0.2,0.2,0.1,0.6-0.1,0.8
			c-0.3,0.3-0.6,0.5-0.9,0.6c-0.3,0.1-0.4,0.2-0.5,0.5c-0.1,0.3-0.2,0.7-0.5,0.9c-0.3,0.3-0.6,0.3-0.9,0.1c-0.2-0.1-0.3-0.2-0.5-0.2
			c-0.5,0-1-0.3-1.3-0.8c-0.1-0.1-0.1-0.2-0.3-0.2c-0.4,0.1-0.7-0.1-0.9-0.5c-0.1-0.3-0.5-0.1-0.6-0.4c-0.2,0.3-0.2,0.6-0.1,0.9
			c0.1,0.6,0.1,1.2-0.1,1.8c0,0.1,0,0.1,0,0.2c0.3,0.4,0.1,0.9,0.1,1.3c0,0,0,0.1,0,0.1c0.2,0.4,0.2,0.9,0.1,1.3
			c0,0.1,0,0.1,0.1,0.2c0,0.1,0.1,0.2,0.1,0.2c-0.2,0.5,0.2,0.9,0.3,1.4c0.1,0.7,0.4,1.3,0.6,2c0.1,0.5,0.4,0.9,0.6,1.4
			c0.2,0.3,0.5,0.6,0.7,0.9c0.3,0.5,0.8,0.7,1.2,1.1c0.1,0.1,0.2,0.1,0.2,0.2c0.2,0.3,0.4,0.6,0.8,0.5c0.1,0,0.1,0,0.2,0.1
			c0.2,0.3,0.5,0.4,0.8,0.5c0.2,0.1,0.3,0.1,0.4,0.3c0.2,0.2,0.4,0.2,0.7,0.3c0.3,0.1,0.6,0.3,0.9,0.4c0,0,0.1,0,0.1,0
			c0.2,0.3,0.6,0.3,0.9,0.4c0.1,0,0.2,0.1,0.3,0.1c0.3,0.2,0.5,0.3,0.9,0.3c0.2,0,0.4,0,0.6,0.1c0.5,0.1,1,0.1,1.6,0.2
			c0.1,0,0.2,0,0.2,0c0.4-0.1,0.9-0.2,1.3-0.1c0.2,0,0.3,0,0.5-0.2c0.1-0.2,0.3-0.3,0.5-0.2c0.2,0,0.3-0.2,0.4-0.2
			c0.5-0.1,0.8-0.4,1.3-0.6c0.2-0.1,0.4-0.3,0.7-0.2c0,0,0.1,0,0.1,0c0.4-0.3,0.9-0.5,1.2-1c0.1-0.1,0.1-0.3,0.3-0.3
			c0.3-0.1,0.5-0.4,0.7-0.6c0.1-0.1,0.3-0.4,0.4-0.4c0.5-0.1,0.6-0.6,0.8-1c0.2-0.3,0.4-0.7,0.7-0.9c0.2-0.1,0.4-0.3,0.3-0.6
			c0-0.1,0.1-0.3,0.2-0.4c0.4-0.3,0.6-0.6,0.6-1.2c0-0.3,0.1-0.7,0.3-1c0.1-0.2,0.1-0.3,0.1-0.5c0-0.4,0.1-0.6,0.5-0.7
			c0.3-0.1,0.5-0.3,0.9-0.3c0.1,0,0.2-0.2,0.3-0.3c0.3-0.3,0.5-0.6,1-0.4c0.1,0.1,0.2,0,0.3,0c0.3-0.1,0.6,0,0.7,0.3
			c0.1,0.2,0.2,0.3,0.4,0.3c0.2,0,0.3,0.2,0.4,0.4c0,0.3,0.2,0.5,0.3,0.7c0.2,0.4,0.4,0.7,0.2,1.2c-0.1,0.2-0.2,0.5-0.2,0.8
			c-0.1,0.7-0.5,1.2-0.8,1.8c0,0,0,0.1-0.1,0.1c-0.4,0.3-0.4,0.7-0.5,1.1c0,0.2-0.1,0.3-0.2,0.5c-0.2,0.2-0.3,0.4-0.4,0.6
			c-0.2,0.5-0.5,0.9-0.9,1.3c-0.2,0.2-0.4,0.5-0.7,0.7c-0.1,0.1-0.3,0.2-0.3,0.4c0,0.2-0.2,0.3-0.3,0.4c-0.1,0.1-0.2,0.2-0.3,0.3
			c-0.1,0.3-0.3,0.5-0.7,0.5c-0.2,0-0.2,0.1-0.3,0.2c-0.2,0.5-0.6,0.6-1,0.8c-0.1,0-0.2,0.1-0.3,0.1c-0.3,0.2-0.6,0.5-1,0.7
			c-0.4,0.3-0.8,0.5-1.3,0.7c0,0-0.1,0.1-0.1,0.1c-0.3,0.4-0.7,0.6-1.2,0.7c-0.2,0-0.4,0.3-0.6,0.3c-0.2,0-0.4,0.1-0.5,0
			c-0.4-0.1-0.8,0-1.1,0.3c-0.5,0.3-0.9,0.4-1.5,0.5c-0.3,0-0.7-0.1-1,0.1c-0.1,0-0.1,0-0.2,0c-0.2-0.1-0.4-0.1-0.6,0.1
			c-0.1,0.1-0.2,0.1-0.3,0.1c-0.6-0.1-1.3,0-1.9-0.4c-0.1,0-0.1-0.1-0.2,0c-0.4,0.2-0.7,0-1.1-0.1c-0.3-0.1-0.6-0.1-1-0.2
			c-0.4-0.2-0.9-0.2-1.2-0.7c-0.1-0.1-0.2-0.1-0.3-0.1c-0.3,0.1-0.5,0-0.7-0.2c-0.1-0.2-0.3-0.2-0.5-0.3c-0.3,0-0.6-0.2-0.7-0.4
			c-0.1-0.1-0.2-0.2-0.4-0.2c-0.4-0.1-0.7-0.3-1-0.5c-0.1-0.1-0.2-0.2-0.4-0.2c-0.6-0.3-1.1-0.6-1.5-1.1c-0.1-0.1-0.1-0.2-0.2-0.2
			c-0.4-0.1-0.6-0.4-0.9-0.6c-0.3-0.2-0.5-0.5-0.5-0.8c0-0.1-0.1-0.1-0.2-0.1c-0.5-0.1-0.7-0.4-0.9-0.8c0-0.1,0-0.1-0.1-0.2
			c-0.4-0.2-0.4-0.6-0.6-1c-0.1-0.1-0.1-0.2-0.2-0.3c-0.1-0.1-0.2-0.3-0.2-0.5c0-0.1,0-0.2-0.1-0.2c-0.2-0.1-0.3-0.4-0.4-0.6
			c-0.1-0.4-0.3-0.7-0.4-1.1c-0.1-0.4-0.1-0.8-0.3-1.2c0-0.1,0-0.2,0-0.3c0.1-0.2,0-0.3-0.1-0.5c-0.2-0.2-0.3-0.5-0.1-0.7
			c0.1-0.1,0-0.2-0.1-0.3c-0.2-0.2-0.3-0.5-0.2-0.8c0-0.1,0-0.1,0-0.2c-0.1-0.3-0.3-0.5-0.2-0.9c0-0.2-0.1-0.4-0.2-0.6
			c0-0.4,0-0.7,0-1.1c-0.1-0.4,0-0.7,0-1.1C143,324.8,143,324.8,142.9,324.7z"/>
		<path class="st3" d="M90.8,324c0.1-0.1,0.3-0.2,0.4-0.3c0.3-0.2,0.5-0.2,0.8,0c0.1,0.1,0.2,0.1,0.4,0.1c0.3-0.1,0.7-0.1,1-0.1
			c0.1,0,0.2,0,0.3,0c0.3,0.3,0.6,0.1,0.9,0c0.3-0.1,0.6,0,0.8,0.2c0.3,0.3,0.5,0.3,0.8,0.2c0.4-0.2,0.8-0.1,1.1-0.3
			c0.1-0.1,0.3,0.1,0.5,0.2c0.1,0.1,0.2,0.2,0.4,0c0.2-0.2,0.5-0.2,0.8,0c0.2,0.1,0.4,0,0.6-0.1c0.2-0.1,0.4-0.1,0.6,0
			c0.1,0.1,0.2,0.1,0.4,0c0.6-0.2,1.4-0.2,1.6,0.5c0.1,0.3,0.3,0.3,0.6,0.4c0.4,0.1,0.6,0.2,0.6,0.6c0,0.1,0.1,0.2,0.2,0.3
			c0.1,0.1,0.2,0.2,0.2,0.2c0.3,0.2,0.5,0.4,0.6,0.8c0,0.5,0,0.9-0.2,1.4c-0.1,0.2-0.3,0.3-0.5,0.3c-0.1,0-0.3,0-0.4,0
			c-0.4-0.1-0.6-0.1-0.8,0.3c-0.1,0.2-0.3,0.3-0.5,0.3c-0.3,0-0.7,0.2-1-0.1c-0.1,0-0.1,0-0.2,0c-0.3,0.2-0.5,0.2-0.7,0
			c-0.1-0.1-0.3-0.1-0.4,0c-0.4,0.1-0.7,0.2-1-0.2c-0.2-0.2-0.4-0.2-0.7,0c-0.2,0.1-0.4,0.3-0.7,0.2c-0.1,0-0.1,0-0.2,0
			c-0.4,0.2-0.7,0-1-0.3c-0.2,0.3-0.5,0.3-0.8,0.2c-0.1,0-0.1,0-0.2,0c-0.3,0.2-0.5,0.2-0.8,0c-0.1-0.1-0.3-0.1-0.4,0
			c-0.1,0.1-0.2,0.1-0.3,0.1c-0.4-0.3-0.8,0-1.2,0c-0.3,0-0.6-0.1-0.8-0.3c-0.1-0.2-0.3-0.2-0.4-0.1c-0.1,0.1-0.2,0.1-0.3,0.1
			c-0.6,0.2-0.7,0.2-1.1-0.3c0,0-0.1,0-0.1-0.1c-0.3,0.5-0.7,0.5-1.2,0.4c-0.2,0-0.3,0-0.4,0c-0.3,0.2-0.6,0.1-0.9,0
			c-0.3-0.2-0.6-0.3-0.9,0c-0.2,0.2-0.5,0.1-0.7-0.2c-0.1-0.1-0.2-0.2-0.3-0.1c0,0-0.1,0-0.1,0c-0.1,0.1-0.3,0-0.4,0
			c-0.3-0.3-0.9-0.1-1.1-0.6c-0.1-0.2-0.2-0.2-0.3-0.2c-0.2,0-0.3-0.1-0.5-0.1c-0.4-0.2-0.6-0.5-0.3-0.9c0.1-0.1,0.1-0.2,0.2-0.3
			c0.1-0.1,0.1-0.2,0.1-0.4c-0.1-0.2-0.1-0.4,0-0.5c0.1-0.1,0.1-0.3,0.1-0.5c0-0.3,0.1-0.5,0.2-0.7c0-0.1,0.1-0.2,0.2-0.2
			c0.4-0.1,0.5-0.5,0.7-0.8c0.2-0.4,0.6-0.6,1.1-0.6c0.2,0,0.3-0.1,0.3-0.4c0-0.1,0-0.3,0-0.4c0.2-0.6,0.4-1.3,0.9-1.8
			c0.1-0.1,0.1-0.1,0.2-0.1c0.2-0.1,0.3-0.3,0.4-0.4c0.2-0.4,0.2-0.9,0.8-1.1c0.1,0,0.1-0.1,0.1-0.2c0-0.4,0.3-0.7,0.7-0.9
			c0.1-0.1,0.2-0.1,0.2-0.2c0.1-0.4,0.3-0.7,0.5-0.9c0.1-0.1,0.2-0.3,0.3-0.4c0.1-0.2,0.3-0.4,0.6-0.4c0.2,0,0.3-0.1,0.2-0.3
			c-0.1-0.2,0-0.3,0.1-0.4c0.2-0.2,0.3-0.4,0.5-0.6c0.2-0.2,0.3-0.4,0.4-0.6c0.3-0.6,0.7-1.1,1.2-1.5c0.1-0.1,0.2-0.2,0.2-0.3
			c0-0.2,0.1-0.4,0.3-0.5c0.4-0.1,0.5-0.4,0.6-0.7c0.1-0.3,0.3-0.5,0.6-0.7c0.3-0.2,0.6-0.4,0.6-0.8c0-0.3,0.1-0.6,0.5-0.7
			c0.2,0,0.2-0.1,0.2-0.3c0.1-0.4,0.2-0.7,0.5-1c0.1,0,0.1-0.1,0.1-0.2c0.1-0.3,0.2-0.5,0.5-0.5c0.2-0.1,0.2-0.2,0.3-0.3
			c0.2-0.3,0.4-0.7,0.7-0.9c0.1,0,0.2-0.1,0.2-0.2c-0.1-0.4,0.2-0.6,0.4-0.8c0,0,0.1-0.1,0.1-0.1c-0.1-0.1-0.2-0.1-0.3-0.2
			c-0.1-0.1-0.2-0.3-0.4-0.3c-0.1,0-0.2,0.2-0.3,0.2c-0.2,0.1-0.4,0.2-0.6,0.1c-0.1-0.1-0.3-0.1-0.4,0c-0.2,0.1-0.5,0-0.6-0.1
			c-0.2-0.2-0.3-0.2-0.5-0.1c-0.4,0-0.7,0.3-1.1,0c-0.1-0.1-0.2,0.1-0.2,0.1c-0.3,0.2-0.5,0.2-0.8,0c-0.5-0.3-1.1-0.5-1.6,0
			c-0.1,0.1-0.2,0.1-0.3,0.1c-0.6-0.2-1.1,0.1-1.7-0.1c0,0,0,0,0,0c-0.4,0.2-0.7,0-1.1-0.2c-0.1-0.1-0.3-0.1-0.5,0.1
			c-0.2,0.2-0.4,0.3-0.7,0.1c-0.1-0.1-0.2-0.1-0.3,0c0,0,0,0,0,0c-0.3,0.1-0.5-0.2-0.7-0.2c-0.2,0-0.4,0.2-0.7,0.1
			c-0.2-0.1-0.5,0-0.8-0.1c-0.1,0-0.1,0-0.2,0c-0.4,0.3-0.8,0.1-1.2-0.1c-0.1-0.1-0.2-0.1-0.3-0.1c-0.1,0-0.2,0-0.2-0.1
			c-0.2-0.4-0.5-0.4-0.9-0.5c-0.3-0.1-0.4-0.2-0.5-0.5c0-0.2-0.1-0.3-0.2-0.5c-0.5-0.7-0.4-1.2,0.3-1.5c0.5-0.2,0.7-0.5,0.7-0.9
			c0-0.2,0.1-0.3,0.1-0.5c0.2-0.3,0.4-0.4,0.7-0.3c0.2,0.1,0.4,0.1,0.6,0.1c0.3,0,0.6,0.2,0.8,0.3c0.2,0.1,0.3,0.2,0.5,0.1
			c0.3-0.1,0.6-0.1,0.8-0.3c0,0,0.1-0.1,0.2,0c0.3,0.2,0.7-0.1,1,0.1c0.1,0,0.1,0,0.2,0c0.4-0.2,0.7,0,0.9,0.3c0,0,0.1,0.1,0.1,0.1
			c0,0,0,0,0,0c0.1,0,0.2-0.2,0.3-0.3c0.1-0.1,0.3-0.2,0.4-0.2c0.4,0.1,0.9,0,1.3,0c0.2,0,0.3,0.1,0.5,0.2c0.2,0.2,0.4,0.2,0.6,0
			c0.2-0.2,0.5-0.3,0.8-0.1c0.1,0,0.1,0.1,0.2,0.1c0.4-0.1,0.6,0.1,0.8,0.4c0.1-0.1,0.3-0.3,0.4-0.4c0.3-0.2,0.6-0.2,0.8,0
			c0.2,0.2,0.3,0.3,0.6,0.2c0.1-0.1,0.3,0,0.4,0.1c0.2,0.2,0.4,0.1,0.6,0c0.3-0.2,0.6-0.3,1-0.3c0.3,0,0.6,0,0.8,0.2
			c0.1,0.1,0.2,0,0.4,0c0.2-0.1,0.5-0.2,0.8,0c0.2,0.1,0.4,0.1,0.6,0c0.3-0.1,0.6-0.1,0.8,0.2c0.2,0.2,0.3,0.2,0.5,0
			c0.2-0.2,0.5-0.3,0.8-0.1c0.1,0.1,0.2,0.1,0.3,0c0.1-0.1,0.3-0.1,0.5-0.1c0.3,0,0.6,0.1,1,0c0.2,0,0.4,0.1,0.5,0.2
			c0.1,0.2,0.3,0.2,0.5,0.3c0.1,0,0.3,0.1,0.4,0.1c0.5,0.2,0.6,0.3,0.6,0.8c0,0.1,0,0.2,0,0.3c0.2,0.3,0.2,0.6,0,0.8
			c-0.1,0.1-0.1,0.3-0.1,0.4c0,0.5-0.1,0.9-0.6,1.2c-0.2,0.1-0.2,0.3-0.3,0.5c-0.2,0.6-0.4,0.7-1,0.7c0,0.2,0.1,0.4,0.2,0.6
			c0,0.3,0,0.5-0.2,0.7c-0.1,0.1-0.1,0.2-0.1,0.3c0,0.1,0,0.2-0.1,0.3c-0.3,0.2-0.5,0.5-0.7,0.8c-0.3,0.4-0.8,0.7-0.9,1.2
			c-0.1,0.2-0.3,0.3-0.5,0.4c-0.1,0.1,0,0.4-0.2,0.6c-0.2,0.1-0.3,0.3-0.4,0.5c-0.1,0.2-0.4,0.3-0.6,0.3c-0.2,0-0.3,0.1-0.3,0.3
			c0,0.6-0.3,1.1-0.8,1.4c-0.1,0.1-0.1,0.2-0.1,0.3c0,0.2-0.1,0.4-0.3,0.5c-0.5,0.2-0.7,0.6-0.8,1c-0.1,0.3-0.3,0.4-0.5,0.6
			c-0.2,0.2-0.1,0.5-0.3,0.7c-0.1,0.1-0.3,0.1-0.4,0.2c-0.2,0-0.2,0.2-0.3,0.3c-0.1,0.1-0.1,0.2-0.1,0.4c0,0.2,0,0.3-0.1,0.5
			c-0.3,0.4-0.6,0.8-1,1.3c-0.2,0.3-0.5,0.5-0.7,0.8c0,0.1-0.1,0.1-0.2,0.2c-0.2,0.1-0.1,0.2-0.2,0.3c-0.2,0.5-0.4,1-1,1.2
			c-0.2,0.1-0.2,0.1-0.2,0.3c0,0.3-0.1,0.5-0.3,0.6c0,0-0.1,0.1-0.1,0.1c0,0.4-0.3,0.6-0.7,0.7c-0.3,0.1-0.4,0.2-0.3,0.5
			c0.1,0.2,0,0.4-0.2,0.6c-0.3,0.2-0.4,0.6-0.6,0.9c-0.1,0.2-0.2,0.3-0.4,0.3c-0.2,0.1-0.3,0.2-0.4,0.4c0,0.2-0.1,0.3-0.3,0.5
			c-0.1,0-0.1,0.1-0.1,0.1c0,0.1-0.2,0.3,0,0.4c0.1,0.1,0.2,0,0.3-0.1c0.1-0.1,0.3-0.3,0.4-0.4C90.1,323.6,90.3,323.6,90.8,324z"/>
		<path class="st3" d="M126.9,313.3c-0.1-0.1-0.2-0.2-0.3-0.3c-0.2-0.2-0.2-0.5,0-0.7c0.1-0.2,0.1-0.3,0.1-0.5
			c-0.1-0.3-0.2-0.7-0.2-1.1c0-0.4,0-0.8,0.4-1.2c-0.3-0.2-0.5-0.5-0.3-0.9c0-0.1,0-0.1-0.1-0.2c-0.1-0.2,0-0.4,0.1-0.6
			c0.1-0.1,0.2-0.3,0.3-0.5c0.1-0.3,0.2-0.6-0.2-0.8c-0.1-0.1-0.2-0.2-0.2-0.4c0.1-0.6-0.1-1.2,0.1-1.8c0,0,0-0.1,0-0.1
			c-0.2-0.4,0-0.7-0.1-1.1c-0.1-0.2,0.1-0.4,0.3-0.6c0.1-0.1,0.2-0.2,0.4-0.2c-0.2-0.2-0.3-0.3-0.5-0.5c-0.2-0.2-0.3-0.5-0.1-0.8
			c0.1-0.1,0.1-0.2,0-0.3c0-0.5,0.1-0.7,0.6-0.8c0.2,0,0.4-0.1,0.5-0.4c0.2-0.3,0.5-0.4,0.9-0.2c0.2,0.1,0.3,0.2,0.5,0
			c0.4-0.2,0.7-0.1,0.9,0.3c0.1,0.2,0.2,0.3,0.4,0.3c0.5,0.1,0.7,0.3,0.6,0.8c0,0,0,0,0,0c0,0.2-0.2,0.4-0.1,0.6
			c0.1,0.2,0.3,0.3,0.4,0.5c0.2,0.2,0.2,0.4,0.2,0.6c0,0.3,0,0.6,0.1,0.9c0,0,0.1,0,0.1-0.1c0.3-0.6,0.9-1,1.4-1.5
			c0.2-0.2,0.4-0.2,0.6-0.3c0.2,0,0.2-0.4,0.4-0.5c0.1,0,0.2-0.1,0.3-0.1c0.2-0.1,0.4-0.2,0.6-0.3c0.2-0.3,0.5-0.4,0.9-0.4
			c0.1,0,0.2,0,0.3-0.1c0.2-0.2,0.5-0.3,0.7-0.2c0.2,0.1,0.4,0.1,0.6-0.1c0.1-0.2,0.4-0.2,0.6-0.2c0.4,0,0.7-0.2,1.1-0.1
			c0.2,0,0.4-0.1,0.6-0.2c0.4,0,0.8,0,1.2,0c0.2,0,0.4,0.1,0.5,0.3c0.2,0.2,0.4,0.3,0.6,0.4c0.2,0.1,0.5,0.2,0.7,0.3
			c0.2,0.1,0.3,0.4,0.2,0.7c-0.1,0.4-0.3,0.7-0.6,1c-0.2,0.2-0.3,0.4-0.2,0.6c0.1,0.2,0.1,0.5,0.1,0.7c0,0.5-0.3,0.7-0.6,1
			c-0.2,0.1-0.4,0.1-0.6,0c-0.1-0.1-0.3-0.1-0.4,0c-0.1,0.1-0.3,0.1-0.4,0.1c-0.6,0.1-1.1,0.2-1.7,0.2c-0.1,0-0.2,0-0.3,0
			c-0.2,0-0.2,0-0.4,0.1c-0.4,0.2-0.8,0.5-1.2,0.5c-0.2,0-0.2,0.1-0.3,0.2c-0.2,0.3-0.5,0.6-0.8,0.7c-0.1,0-0.2,0.1-0.2,0.1
			c-0.3,0.5-0.8,0.8-1,1.4c-0.1,0.2-0.3,0.3-0.4,0.3c-0.2,0-0.3,0.2-0.3,0.3c-0.1,0.4-0.2,0.7-0.4,1c-0.1,0.1,0,0.1-0.1,0.2
			c0,0.2-0.1,0.4-0.3,0.5c-0.1,0.1-0.2,0.1-0.2,0.3c0,0.2-0.1,0.4-0.3,0.5c-0.1,0.1-0.2,0.2-0.1,0.3c0.1,0.4-0.1,0.6-0.4,0.8
			c-0.6,0.4-0.7,0.7-0.6,1.4c0,0.2,0,0.3-0.1,0.5c-0.1,0.2-0.2,0.4-0.4,0.6c0,0.1,0.1,0.2,0.2,0.3c0.3,0.3,0.4,0.7,0.3,1.1
			c-0.1,0.2-0.1,0.3,0,0.5c0.1,0.3,0,0.6-0.2,0.8c-0.2,0.3-0.2,0.3,0,0.6c0.1,0.1,0.2,0.3,0.1,0.5c-0.1,0.3,0.1,0.5-0.1,0.8
			c0,0.1,0,0.2,0.1,0.2c0.1,0.2,0.1,0.4,0.1,0.5c-0.1,0.4,0,0.7,0,1.1c0,0.3-0.1,0.5-0.3,0.6c-0.1,0.1-0.1,0.2,0,0.4
			c0.2,0.3,0.2,0.6,0.1,0.9c-0.1,0.2,0,0.3,0.1,0.4c0.2,0.3,0.3,0.7,0,1c-0.1,0.1-0.1,0.2,0,0.3c0.1,0.4,0.2,0.9,0,1.3
			c0,0.1,0,0.2,0,0.2c0.3,0.3,0.1,0.7,0,1c0,0.1-0.1,0.2-0.1,0.3c0,0.2,0.1,0.4-0.1,0.6c-0.2,0.2-0.4,0.4-0.7,0.4
			c-0.3,0-0.4,0.2-0.5,0.4c-0.1,0.3-0.3,0.5-0.5,0.7c-0.3,0.3-0.5,0.3-0.8,0.1c-0.3-0.2-0.6-0.4-0.7-0.7c0-0.1-0.2-0.2-0.3-0.2
			c-0.2,0-0.5,0-0.7-0.1c-0.5-0.2-0.6-0.6-0.3-1c0.1-0.1,0.1-0.2,0.2-0.3c-0.4-0.5-0.5-1.1-0.3-1.7c0.1-0.3,0.2-0.7,0.1-1.1
			c-0.1-0.3-0.2-0.6-0.2-1c-0.1-0.3-0.1-0.7,0.2-1.1c0.2-0.2,0.1-0.4,0-0.6c-0.3-0.3-0.3-0.7-0.1-1c0.1-0.2,0.1-0.4,0-0.6
			c-0.2-0.6-0.1-1.2,0.3-1.6c0.2-0.2,0.3-0.3,0.1-0.5c-0.1-0.1-0.1-0.2-0.1-0.3c0-0.2-0.1-0.4-0.2-0.5c-0.2-0.2-0.2-0.5,0-0.7
			c0.1-0.1,0.1-0.2,0.2-0.3c-0.1-0.1-0.2-0.2-0.2-0.3c-0.1-0.1-0.2-0.2-0.1-0.3c0.2-0.4-0.1-0.9,0.1-1.4c0-0.1,0.1-0.1,0-0.2
			C126.5,313.9,126.7,313.6,126.9,313.3z"/>
		<path class="st4" d="M110.1,318.5C110.1,318.5,110.2,318.5,110.1,318.5c0.1,0.1,0.1,0.1,0,0.1
			C110.1,318.6,110.1,318.6,110.1,318.5C110.1,318.5,110.1,318.5,110.1,318.5z"/>
		<path class="st5" d="M109.6,317.8c0,0,0.1,0,0.1,0c0,0,0.1,0,0,0.1C109.7,317.8,109.6,317.8,109.6,317.8z"/>
		<path class="st3" d="M125.2,312.8c0.1-0.2,0-0.3-0.1-0.4c-0.1-0.2-0.1-0.3,0-0.5c0.1-0.2,0.1-0.4,0-0.6c-0.2-0.3-0.2-0.6-0.1-1
			c0-0.2,0.1-0.3,0-0.5c-0.1-0.1-0.1-0.2,0-0.4c0.1-0.2,0-0.3,0-0.5c0-0.1-0.1-0.2-0.1-0.3c0.1-0.6-0.4-1.1-0.1-1.7c0,0,0-0.1,0-0.1
			c-0.1-0.4-0.2-0.8-0.3-1.2c-0.1-0.6-0.3-1.1-0.5-1.7c0-0.1-0.1-0.3-0.2-0.3c-0.1-0.1-0.2-0.2-0.2-0.4c0-0.4-0.1-0.9-0.5-1.2
			c-0.1-0.1-0.2-0.2-0.2-0.4c0-0.2-0.1-0.4-0.2-0.5c-0.2-0.3-0.6-0.4-0.7-0.8c0,0,0-0.1-0.1-0.1c-0.3-0.1-0.4-0.4-0.6-0.5
			c-0.4-0.3-0.7-0.6-1.2-0.8c-0.2-0.1-0.4-0.2-0.6-0.1c-0.2,0.1-0.4,0-0.5-0.2c-0.1-0.1-0.2-0.3-0.3-0.3c-0.3,0-0.5-0.2-0.8-0.2
			c-0.2,0-0.4-0.2-0.6-0.2c-0.3,0.1-0.5,0-0.8-0.1c-0.1,0-0.3-0.1-0.4-0.1c-0.4,0.1-0.9-0.2-1.3,0.1c0,0-0.1,0-0.1,0
			c-0.6-0.1-1.1-0.1-1.5,0.5c-0.1,0.2-0.2,0.2-0.4,0c-0.1-0.2-0.3-0.3-0.5-0.2c-0.6,0.1-1.1,0.3-1.5,0.7c-0.2,0.2-0.5,0.3-0.7,0.4
			c-0.4,0-0.6,0.3-0.9,0.4c-0.2,0.1-0.2,0.5-0.5,0.6c-0.3,0-0.4,0.3-0.6,0.4c-0.2,0.1-0.2,0.5-0.4,0.6c-0.2,0.1-0.3,0.4-0.3,0.6
			c0,0.1,0,0.2-0.1,0.3c-0.2,0.1-0.4,0.3-0.5,0.6c0,0.3-0.4,0.3-0.5,0.6c-0.1,0.3-0.3,0.6-0.3,0.9c0,0.1-0.1,0.2-0.2,0.3
			c-0.2,0.2-0.4,0.5-0.5,0.8c0,0.2,0,0.4-0.2,0.6c-0.1,0.1-0.1,0.3,0,0.5c0.1,0.1,0.1,0.2,0.2,0.4c-0.6,0.2-0.8,0.7-0.7,1.2
			c0,0,0,0.1,0,0.1c-0.2,0.3-0.1,0.7-0.2,1.1c0,0.2,0,0.4,0.1,0.5c0.2,0.2,0.1,0.4,0,0.7c-0.1,0.2-0.1,0.3-0.2,0.5
			c-0.1,0.2-0.1,0.4-0.1,0.6c0,0.3,0.1,0.5,0.1,0.8c-0.1,0.4-0.1,0.8,0,1.2c0.1,0.5,0.2,1,0.1,1.5c0,0.1,0,0.2,0,0.3
			c0.1,0.5,0.3,1,0.3,1.5c0,0.1,0.1,0.3,0.1,0.4c0.1,0.2,0.1,0.5,0,0.7c-0.1,0.1-0.1,0.3,0,0.4c0.2,0.2,0.1,0.4,0.1,0.6
			c0,0.4,0.1,0.8,0.1,1.3c0,0.3,0.1,0.6,0.2,0.9c0.1,0.5,0.2,1,0.4,1.5c0.2,0.3,0.5,0.6,0.2,1.1c0,0,0,0.1,0,0.2
			c0.3,0.3,0.3,0.8,0.5,1.1c0.3,0.4,0.7,0.9,0.8,1.4c0,0,0,0.1,0.1,0.1c0.2,0.1,0.3,0.4,0.5,0.6c0.1,0.1,0.2,0.3,0.4,0.3
			c0.2,0.1,0.3,0.3,0.5,0.4c0.4,0.3,0.8,0.6,1.1,1c0.5,0,0.8,0.3,1.2,0.5c0,0,0.1,0,0.1,0c0.1,0,0.2,0.1,0.2,0.1
			c0.5,0.4,1,0.6,1.7,0.3c0.2-0.1,0.4-0.1,0.5,0.1c0.1,0.1,0.1,0.1,0.2,0.2c0.4,0.3,0.8,0.6,1.3,0.4c0.1,0,0.1,0,0.2,0
			c0.4,0.2,0.8,0.2,1.2-0.1c0.1-0.1,0.3-0.2,0.5-0.1c0.4,0.2,0.7,0.1,0.9-0.2c0.2-0.2,0.3-0.3,0.6-0.2c0.2,0.1,0.5,0.1,0.6,0
			c0.2-0.2,0.4-0.3,0.7-0.3c0.1,0,0.1,0,0.2-0.1c0.5-0.3,1-0.6,1.5-0.9c0.4-0.3,0.8-0.6,1.1-1c0.2-0.3,0.5-0.5,0.7-0.8
			c0.2-0.2,0.4-0.4,0.4-0.7c0-0.2,0.1-0.3,0.2-0.3c0.2-0.1,0.3-0.2,0.4-0.4c0.1-0.2-0.1-0.5,0-0.7c0.1-0.2,0.4-0.2,0.5-0.5
			c0.1-0.3,0.1-0.6-0.1-0.8c-0.1-0.2-0.1-0.3,0.1-0.4c0.2-0.1,0.2-0.3,0.2-0.5c0-0.3,0.3-0.7,0.1-1c0,0,0-0.1,0-0.1
			c0.2-0.6,0-1.1-0.5-1.3c-0.2-0.1-0.2-0.2-0.1-0.4c0.1-0.2,0.1-0.5,0.1-0.7c0-0.3-0.1-0.6-0.5-0.7c-0.2,0-0.3-0.1-0.3-0.3
			c-0.1-0.3-0.3-0.4-0.6-0.4c-0.2,0-0.2,0-0.3-0.1c-0.4-0.2-0.6-0.2-0.9,0.1c-0.2,0.2-0.3,0.2-0.6,0.2c-0.6-0.2-1,0.2-0.9,0.8
			c0,0.2,0.1,0.4,0.2,0.6c0.1,0.2,0.1,0.3-0.1,0.4c-0.4,0.3-0.4,0.4-0.2,0.8c0.1,0.2,0.1,0.3,0,0.4c-0.1,0.2-0.2,0.4,0,0.6
			c0.1,0.2,0.1,0.4,0,0.6c-0.2,0.3-0.1,0.8-0.4,1c0,0,0,0.1,0,0.1c0,0.2-0.2,0.3-0.3,0.4c-0.5,0.5-1.1,0.9-1.5,1.4
			c0,0.1-0.1,0.1-0.2,0c-0.2-0.1-0.4,0.1-0.5,0.1c-0.4,0.1-0.7,0.3-1.1,0.2c-0.3,0-0.5,0-0.8,0.1c-0.1,0-0.2,0.1-0.3,0
			c-0.1-0.1-0.3-0.1-0.4-0.1c-0.1,0-0.2,0-0.3,0c-0.2-0.2-0.4-0.3-0.7-0.2c0,0-0.1,0-0.1,0c-0.5-0.4-1.1-0.8-1.5-1.3
			c-0.1-0.2-0.3-0.4-0.5-0.4c-0.1,0-0.1,0-0.1-0.1c0-0.5-0.2-0.9-0.5-1.2c0,0-0.1-0.1-0.1-0.2c0.1-0.5-0.2-0.9-0.2-1.3
			c0-0.3-0.1-0.6-0.5-0.7c0,0,0-0.1,0-0.1c0.2-0.4,0.3-0.8-0.1-1.2c-0.1-0.1-0.1-0.2-0.1-0.3c0.1-0.1,0.1-0.3,0.3-0.4
			c0,0,0.1,0,0.1,0c-0.1-0.3,0-0.5-0.2-0.8c-0.2-0.2-0.1-0.5,0-0.7c0-0.2,0.3-0.1,0.5-0.1c0.3-0.1,0.7,0,0.9-0.2
			c0.1-0.1,0.2-0.1,0.4,0c0.5,0.3,0.9,0.2,1.4,0.1c0.2,0,0.4-0.1,0.5,0.1c0.4,0.4,0.5,0.4,0.9,0.1c0.1-0.1,0.2-0.1,0.3,0
			c0.1,0.1,0.3,0.2,0.5,0.2c0.5,0,1,0.1,1.4-0.5c0.1,0.1,0.2,0.2,0.3,0.3c0.2,0.1,0.4,0.3,0.6,0.1c0.2-0.1,0.4-0.2,0.6,0
			c0,0,0.1,0,0.2,0c0.3-0.2,0.7-0.1,1.1-0.2c0.1,0,0.3,0,0.4,0c0.2,0.1,0.4,0.2,0.7,0.1c0.1,0,0.1,0,0.2,0c0.5,0.2,0.6,0.1,1-0.3
			c0.3-0.3,0.5-0.3,0.7,0c0.4,0.5,0.7,0.6,1.2,0.2c0.2-0.1,0.4-0.3,0.6-0.3c0.2,0,0.3-0.2,0.4-0.4c0.1-0.2,0.1-0.3,0.2-0.5
			c0-0.2,0.1-0.3,0.3-0.4c0.4-0.2,0.4-0.7,0.6-1.1c0,0,0-0.1,0-0.2C125.1,313,125.1,312.9,125.2,312.8z M120,311.1
			c0,0.2-0.3,0.4-0.4,0.6c-0.4-0.6-0.7-0.6-1.4-0.4c-0.3,0.1-0.6,0.1-0.9,0c-0.3-0.2-0.6-0.2-0.9,0c-0.1,0.1-0.1,0.1-0.2,0
			c-0.3-0.3-0.6-0.1-1-0.2c-0.1,0-0.3,0-0.5,0c-0.1,0-0.1,0-0.2,0c-0.3,0.2-0.5,0.2-0.8,0c-0.2-0.1-0.4,0.1-0.6,0.2
			c-0.1,0.1-0.1,0.2-0.2,0.3c-0.1,0.1-0.3,0.2-0.5,0c-0.3-0.2-0.6-0.3-1-0.2c0,0-0.1,0-0.1,0c-0.6-0.3-1.2,0.2-1.8,0
			c-0.2,0-0.3,0.1-0.5,0.2c-0.1,0.1-0.3,0-0.3-0.1c0-0.3-0.1-0.7,0-1c0.1-0.2,0.1-0.4,0-0.7c0-0.1-0.1-0.2,0-0.3
			c0.4-0.2,0.2-0.7,0.4-1c0.1-0.1,0-0.3-0.1-0.4c-0.1-0.2,0-0.3,0.1-0.4c0.2-0.2,0.3-0.4,0.3-0.6c0-0.2,0.1-0.3,0.2-0.5
			c0-0.1,0.1-0.2,0.1-0.3c0-0.5,0.1-0.9,0.6-1.1c0-0.5,0.5-0.7,0.8-1c0.3-0.3,0.6-0.6,0.9-0.8c0.1-0.1,0.3-0.2,0.4-0.2
			c0.2-0.1,0.3-0.3,0.5-0.4c0.2-0.1,0.4,0.2,0.6,0.1c0.3-0.1,0.5,0,0.8,0c0.1,0,0.2,0,0.2,0c0.5-0.2,1.1-0.1,1.6,0
			c0.4,0.1,0.8,0.1,1.1,0.4c0.1,0.1,0.2,0.2,0.4,0.2c0.2,0.1,0.3,0.2,0.4,0.4c0.2,0.3,0.4,0.7,0.6,1c0.1,0.3,0.2,0.5,0.3,0.8
			c0.1,0.4,0.2,0.8,0.5,1.2c0.1,0.1,0.2,0.3,0.1,0.4c-0.1,0.1-0.1,0.3,0,0.5c0.2,0.4,0.2,0.8,0.2,1.2c0,0.3,0.2,0.6,0.2,0.9
			C120,310.3,120.1,310.7,120,311.1z"/>
	</g>
	<g>
		<path class="st6" d="M277.7,296.3c0,0.4,0.1,0.6,0.2,0.9c0.1,0.1,0.2,0.3,0.1,0.4c-0.2,0.7-0.4,1.4-0.6,2.2
			c-0.2,0.6-0.5,1.2-0.6,1.9c-0.1,0.3-0.3,0.5-0.5,0.7c-0.1,0.1-0.2,0.2-0.3,0.1c-0.2-0.1-0.4-0.2-0.4-0.4c0-0.3,0-0.5-0.1-0.8
			c-0.1-0.4-0.4-0.7-0.6-1c-0.1-0.1-0.2-0.2-0.3-0.3c-0.3-0.4-0.5-0.7,0-1.2c0.5-0.5,0.7-1.2,1.2-1.8c0-0.1,0.1-0.1,0.1-0.2
			c0.1-0.6,0.5-0.9,1-1C277.4,295.6,277.7,295.8,277.7,296.3z"/>
		<path class="st6" d="M272.4,299.3c0.1-0.2,0-0.5,0.1-0.7c0.1-0.2,0.2-0.4,0.2-0.7c0-0.3,0.1-0.3,0.4-0.2c0.2,0.1,0.3,0.2,0.3,0.5
			c-0.1,0.5-0.1,0.9-0.3,1.3c-0.1,0.2-0.1,0.4-0.1,0.6c0,0.2-0.1,0.4-0.1,0.6c0,0.1-0.2,0.3-0.3,0.3c-0.1,0-0.3-0.1-0.4-0.3
			c-0.1-0.1-0.1-0.3-0.2-0.4c0-0.3-0.3-0.6-0.5-0.8c0.1,0.3-0.1,0.5,0,0.8c0,0.2-0.1,0.4-0.2,0.5c-0.1,0.1-0.3,0.2-0.5,0
			c-0.1-0.2-0.3-0.3-0.1-0.5c0.1-0.2,0.1-0.3,0.1-0.5c0-0.4,0-0.8,0.1-1.2c0.1-0.2,0-0.5,0.1-0.8c0-0.2,0.1-0.3,0.3-0.1
			c0.1,0.1,0.3,0.2,0.3,0.4C271.8,298.4,272.1,298.9,272.4,299.3z"/>
		<path class="st6" d="M164.7,308.8C164.7,308.8,164.7,308.8,164.7,308.8C164.7,308.8,164.7,308.8,164.7,308.8
			C164.7,308.8,164.7,308.8,164.7,308.8C164.7,308.8,164.7,308.8,164.7,308.8z"/>
		<path class="st6" d="M158.2,292.2c0-0.1,0.1-0.1,0.1-0.1C158.2,292.1,158.2,292.1,158.2,292.2z"/>
		<path class="st6" d="M164.8,293.1c0.1,0,0.1,0,0.1,0.1C164.9,293.2,164.8,293.1,164.8,293.1z"/>
		<path class="st6" d="M158.5,287c0,0-0.1,0.1-0.1,0.1C158.4,287,158.4,287,158.5,287z"/>
		<polygon class="st6" points="272.3,299.4 272.3,299.4 272.3,299.4 		"/>
		<path class="st6" d="M148.9,301c-0.1,0.1-0.1,0.2,0,0.4c0.1,0.2,0.1,0.4,0,0.6c-0.1,0.2,0,0.4,0,0.5c-0.2,0.5,0,1-0.3,1.4
			c0,0,0,0.1,0,0.1c0.1,0.3,0.1,0.5-0.1,0.7c-0.1,0.1-0.1,0.2,0,0.3c0.1,0.6,0,0.8-0.5,0.9c-0.3,0.1-0.4,0.2-0.4,0.4
			c0,0.1,0,0.2,0,0.3c-0.1,0.6-0.3,0.7-0.9,0.8c-0.5,0.1-0.9,0-1.2-0.4c0,0-0.1-0.1-0.2-0.1c-0.3,0-0.5-0.1-0.6-0.4
			c-0.1-0.1-0.2-0.2-0.3-0.2c-0.5-0.2-0.5-0.3-0.5-0.8c0-0.4-0.1-0.7-0.2-1.1c-0.1-0.2-0.1-0.4,0-0.6c0.1-0.1,0.1-0.2,0-0.3
			c-0.1-0.6,0-1.2,0.2-1.8c0.1-0.3,0.1-0.6,0.1-0.9c0-0.4,0.3-0.7,0.2-1.1c0-0.2,0.1-0.3,0.3-0.4c0.2-0.1,0.2-0.2,0.2-0.4
			c-0.2-0.5,0-1,0.3-1.4c0.1-0.2,0.2-0.5,0.4-0.7c0.1-0.1,0.1-0.3,0.3-0.4c0.4-0.2,0.4-0.7,0.5-1.1c0-0.1,0-0.3,0.1-0.4
			c0.4-0.3,0.5-0.8,0.8-1.2c0-0.1,0.1-0.1,0.2-0.2c0.1,0,0.1-0.1,0.1-0.2l0,0c0,0,0.1-0.1,0.1-0.1c0.2-0.2,0.4-0.5,0.6-0.7
			c0.1,0,0.1-0.1,0.1-0.1c0.3-0.1,0.4-0.3,0.6-0.6c0.3-0.3,0.6-0.7,0.9-1c0.3-0.2,0.6-0.4,0.9-0.7c0.2-0.2,0.5-0.4,0.9-0.4
			c0.3,0,0.5-0.3,0.7-0.4c0.3-0.2,0.6-0.3,0.8-0.5c0.1,0,0.1-0.1,0.1-0.1c0.4-0.2,1-0.4,1.3-0.8c0.1-0.2,0.3-0.2,0.5-0.2
			c0.3-0.1,0.6-0.2,0.9-0.4c0.2-0.1,0.3-0.1,0.5-0.1c0.6,0.1,1.1,0,1.5-0.3c0.2-0.1,0.4-0.1,0.6-0.1c0.1,0,0.1,0,0.1-0.1
			c0.2-0.1,0.4-0.1,0.6-0.1c0.4,0,0.8-0.1,1.2,0c0.1,0,0.1,0,0.2,0c0.8-0.2,1.5-0.1,2.3,0.3c0.1,0,0.2,0.1,0.3,0.1
			c0.3-0.1,0.5,0,0.7,0.1c0.5,0.2,1.1,0.2,1.6,0.5c0.2,0.1,0.4,0.1,0.5,0.3c0.3,0.3,0.5,0.5,1,0.4c0.1,0,0.2,0,0.2,0.1
			c0.2,0.3,0.5,0.4,0.9,0.5c0.1,0,0.1,0.1,0.2,0.1c0.3,0.1,0.3,0.5,0.7,0.5c0.3,0,0.5,0.3,0.8,0.4c0,0,0.1,0.1,0.1,0.1
			c0.1,0.1,0.1,0.2,0.2,0.2c0.5,0.1,0.9,0.5,1.2,0.8c0.5,0.5,1.1,0.8,1.6,1.4c0,0,0.1,0.1,0.1,0.1c0.3,0.2,0.1,0.7,0.4,0.8
			c0.3,0.1,0.5,0.2,0.7,0.5c0.3,0.5,0.7,0.9,0.9,1.5c0,0.1,0.1,0.2,0.1,0.2c0.1,0.1,0.1,0.1,0.2,0.2c0.2,0.7,0.6,1.4,0.8,2.2
			c0,0.1,0.1,0.2,0,0.3c0,0.2,0,0.4,0.1,0.5c0.1,0.2,0.1,0.4,0.1,0.6c0,0.2,0,0.4,0.2,0.6c0.2,0.2,0.2,0.4,0,0.7
			c-0.1,0.2-0.1,0.3,0,0.4c0.2,0.2,0.3,0.4,0.1,0.7c-0.1,0.1,0,0.2,0,0.3c0.1,0.3,0.2,0.5,0.1,0.8c0,0.1,0,0.2,0.1,0.3
			c0.1,0.1,0.1,0.2,0,0.4c0,0.1,0,0.2,0,0.4c-0.1,0.6,0.1,1.1-0.1,1.7c0,0,0,0.1,0,0.1c0.3,0.3,0,0.7,0.1,1c0,0,0,0.1,0,0.1
			c-0.3,0.4-0.2,0.8-0.2,1.2c0,0,0,0.1,0,0.1c0.2,0.4-0.1,0.8-0.1,1.3c0,0.1,0,0.2,0,0.3c0.1,0.3-0.1,0.5-0.1,0.7
			c0.1,0.2,0.2,0.4,0.1,0.7c0,0.1-0.1,0.1,0,0.2c0.1,0.4-0.1,0.9,0.1,1.3c0.1,0.2,0,0.4-0.1,0.6c-0.1,0.1-0.1,0.3,0,0.4
			c0.1,0.2,0.1,0.4,0.1,0.5c0,0.3,0,0.7,0.1,1c0,0.1,0,0.2,0.1,0.1c0.2-0.2,0.3-0.4,0.3-0.7c0-0.1,0-0.3,0-0.4
			c0.3-0.3,0.3-0.6,0.4-0.9c0.2-0.4,0.3-0.9,0.6-1.2c0.3-0.4,0.3-1,0.7-1.4c0-0.5,0.4-0.8,0.6-1.1c0.2-0.3,0.4-0.4,0.8-0.3
			c0.2,0,0.3,0,0.3-0.2c0.1-0.3,0.3-0.5,0.6-0.7c0.4-0.3,0.6-0.3,0.9,0c0.2,0.2,0.4,0.3,0.7,0.2c0.5-0.1,0.7,0,0.9,0.5
			c0.1,0.1,0.1,0.2,0.2,0.3c0.4,0.3,0.5,0.6,0.2,1c-0.2,0.3-0.1,0.5,0,0.7c0.2,0.3,0.4,0.5,0.3,0.8c0,0.1,0.1,0.2,0.2,0.2
			c0.1,0.1,0.3,0.2,0.2,0.3c-0.1,0.5,0.5,0.8,0.5,1.3c0,0.1,0.1,0.2,0.1,0.2c0.2,0.2,0.3,0.5,0.4,0.8c0.1,0.2,0.1,0.5,0.3,0.7
			c0.1,0.1,0.1,0.2,0.2,0.3c0.1,0.3,0.2,0.7,0.4,0.9c0,0.1,0.1,0.2,0,0.2c-0.1,0.3,0,0.5,0.3,0.6c0.2,0.1,0.2,0.3,0.2,0.5
			c0,0.3,0.1,0.5,0.3,0.7c0.2,0.2,0.3,0.4,0.3,0.7c0,0.2,0.1,0.4,0.2,0.6c0.2,0.4,0.5,0.7,0.6,1.1c0,0.1,0.1,0.2,0.2,0.3
			c0.2-0.2,0.4-0.4,0.2-0.7c-0.1-0.2,0.2-0.4,0.2-0.7c0-0.2-0.2-0.4-0.1-0.6c0.2-0.3,0.1-0.7,0.4-1.1c0.1-0.1,0.1-0.2,0.1-0.3
			c-0.1-0.5,0.3-0.8,0.5-1.1c0.2-0.3,0.4-0.6,0.2-1c-0.1-0.2-0.1-0.4,0.1-0.6c0.2-0.2,0.4-0.3,0.6-0.4c0.4-0.2,0.5-0.4,0.2-0.7
			c-0.1-0.1-0.2-0.3-0.2-0.4c-0.1-0.2-0.1-0.4,0.1-0.6c0.2-0.2,0.2-0.4,0.2-0.6c0-0.5,0.1-1,0.6-1.3c0.1-0.1,0.1-0.1,0.1-0.2
			c-0.1-0.5-0.1-0.9,0.3-1.2c0.1-0.1,0.1-0.2,0.1-0.3c-0.1-0.2,0-0.4,0.1-0.6c0-0.1,0.1-0.1,0.1-0.2c0.1-0.6,0.4-1,0.7-1.4
			c0.1-0.1,0.1-0.2,0-0.3c-0.2-0.3-0.2-0.6,0-0.9c0.1-0.2,0.2-0.4,0.2-0.6c0-0.5,0.2-0.8,0.7-0.9c-0.4-0.3-0.2-0.7-0.1-1.1
			c0.1-0.3,0-0.7,0.4-0.9c0.1-0.1,0.1-0.2,0.1-0.3c0-0.2,0.1-0.5,0-0.7c0-0.2,0.1-0.4,0.3-0.5c0.2-0.1,0.5-0.3,0.7-0.3
			c0.2,0,0.4-0.1,0.5-0.3c0.1-0.2,0.1-0.3,0.3-0.5c0.1-0.1,0.2-0.2,0.3-0.2c0.4,0,0.7,0,1-0.1c0.3-0.1,0.5,0.2,0.6,0.4
			c0.1,0.2,0.2,0.4,0.4,0.5c0.2,0.1,0.3,0.3,0.3,0.5c0,0.2,0.1,0.3,0.2,0.4c0.7,0.6,0.7,1.1-0.2,1.5c-0.1,0-0.1,0.1-0.2,0.1
			c0,0.1,0.1,0.1,0.1,0.2c0.3,0.4,0.3,0.4,0.1,0.9c-0.2,0.3-0.1,0.6-0.2,0.9c-0.1,0.4-0.2,0.9-0.5,1.2c-0.1,0.1-0.1,0.2-0.1,0.3
			c0.2,0.5-0.1,0.8-0.3,1.2c-0.1,0.2-0.2,0.5-0.2,0.7c0,0.3-0.1,0.5-0.3,0.6c-0.3,0.3-0.4,0.7-0.4,1.2c0,0.1,0,0.2,0,0.3
			c-0.3,0.4-0.2,0.9-0.3,1.3c-0.1,0.5-0.3,1-0.4,1.6c-0.1,0.4-0.3,0.7-0.6,0.8c-0.2,0.1-0.2,0.2-0.1,0.4c0,0.1,0.1,0.1,0.1,0.2
			c0.2,0.4,0.2,0.6-0.2,0.9c-0.1,0.1-0.2,0.2-0.1,0.4c0.1,0.1,0.1,0.3,0,0.4c-0.3,0.3-0.4,0.8-0.8,1c-0.2,0.1-0.2,0.3-0.2,0.6
			c0,0.1,0,0.2,0.1,0.3c0.3,0.5,0.2,0.9-0.1,1.3c-0.1,0.2-0.2,0.3-0.1,0.5c0,0.1,0,0.1,0,0.2c-0.2,0.3-0.2,0.7-0.3,1
			c-0.1,0.2-0.2,0.4-0.3,0.6c-0.1,0.2-0.3,0.3-0.4,0.5c-0.4,0.3-0.4,0.4-0.2,0.8c0.3,0.4,0.3,0.5,0,0.9c0,0.1-0.1,0.1-0.1,0.2
			c0,0.4-0.3,0.8-0.5,1.1c-0.2,0.2,0,0.5,0,0.7c0,0.2,0,0.4-0.1,0.6c0,0-0.1,0.1-0.1,0.2c0.2,0.6-0.2,1-0.3,1.5c0,0.1,0,0.2-0.1,0.3
			c0,0.4-0.1,0.6-0.5,0.7c-0.2,0.1-0.4,0.2-0.5,0.4c-0.2,0.4-0.6,0.6-1,0.4c-0.4-0.3-0.9-0.2-1.3-0.1c-0.1,0-0.2,0-0.4,0
			c-0.2-0.1-0.4-0.2-0.4-0.4c-0.1-0.4-0.4-0.6-0.6-1c-0.1-0.1-0.1-0.2-0.1-0.3c0-0.2-0.1-0.3-0.3-0.4c-0.1,0-0.2-0.1-0.2-0.2
			c-0.1-0.3-0.2-0.6-0.5-0.9c0,0,0-0.1,0-0.1c0.1-0.5-0.3-0.8-0.5-1.3c-0.1-0.1-0.1-0.2-0.2-0.3c-0.3-0.3-0.6-0.6-0.4-1
			c0.1-0.2,0-0.3-0.2-0.3c-0.3-0.1-0.4-0.4-0.4-0.7c0-0.1,0-0.2-0.1-0.3c-0.3-0.2-0.4-0.5-0.5-0.8c-0.2-0.7-0.6-1.3-0.9-1.9
			c-0.1-0.1-0.1-0.2-0.1-0.4c0-0.2-0.1-0.4-0.2-0.6c-0.1-0.1-0.1-0.1-0.1-0.2c-0.1-0.6-0.5-1-0.6-1.5c0-0.1-0.1-0.2-0.2-0.3
			c-0.1,0.2-0.2,0.4-0.4,0.6c-0.1,0.1-0.1,0.1-0.1,0.2c0.1,0.2-0.1,0.4-0.2,0.6c-0.1,0.4-0.4,0.7-0.6,1.1c0,0.1,0,0.1-0.1,0.2
			c-0.3,0.2-0.4,0.5-0.3,0.8c0,0.1,0,0.1-0.1,0.2c-0.3,0.3-0.3,0.7-0.5,1c0,0,0,0.1,0,0.1c-0.4,0.3-0.7,0.6-0.6,1.1
			c-0.3,0.3-0.5,0.7-0.6,1c-0.5,0.1-0.6,0.6-0.9,0.9c-0.1,0.1-0.2,0.3-0.4,0.4c-0.7,0.1-1.3,0.6-2,0.8c-0.4,0.1-0.7,0.1-1.1,0
			c-0.2-0.1-0.4-0.1-0.7,0c-0.1,0.1-0.3,0.1-0.5,0.2c-0.2,0-0.3,0-0.4-0.1c-0.3-0.3-0.6-0.7-0.6-1.1c0-0.1,0.1-0.2-0.1-0.3
			c-0.4-0.1-0.5-0.5-0.7-0.7c-0.2-0.3-0.4-0.6-0.6-1c-0.2-0.3-0.4-0.6-0.5-1.1c0-0.1-0.1-0.2-0.2-0.2c-0.2-0.1-0.3-0.2-0.4-0.4
			c-0.1-0.3-0.4-0.6-0.5-0.9c0-0.1-0.1-0.2-0.2-0.3c-0.1-0.1-0.2-0.1-0.2-0.2c-0.2-0.5-0.7-0.9-0.9-1.4c-0.2-0.4-0.3-0.6-0.7-0.8
			c0,0-0.1,0-0.1-0.1c-0.2-0.7-0.8-1-1.1-1.5c-0.2-0.4-0.6-0.6-0.8-1c-0.1-0.2-0.3-0.4-0.3-0.6c0-0.1-0.1-0.2-0.2-0.2
			c-0.4-0.3-0.5-0.4-0.3-0.9c0.1-0.2,0-0.4-0.1-0.6c-0.4-0.4-0.4-0.6-0.1-1.1c0.1-0.2,0-0.3,0-0.5c0-0.5,0.1-0.6,0.5-0.8
			c0.1,0,0.2,0,0.2-0.1c0.3-0.3,0.6-0.3,0.9-0.1c0.1,0.1,0.2,0,0.3,0c0.5-0.3,0.6-0.3,1,0.2c0.1,0.1,0.2,0.2,0.4,0.1
			c0.2,0,0.4,0.1,0.5,0.2c0.2,0.2,0.5,0.4,0.5,0.8c0,0.1,0.1,0.1,0.2,0.2c0.1,0.1,0.3,0.2,0.4,0.2c0.3,0.1,0.4,0.3,0.4,0.6
			c0,0.3,0.1,0.4,0.3,0.5c0.2,0,0.3,0.1,0.4,0.3c0.1,0.2,0.3,0.4,0.4,0.6c0.3,0.4,0.5,0.8,0.9,1.2c0.2,0.2,0.3,0.7,0.6,0.9
			c0.1-0.1,0.1-0.2,0.1-0.3c-0.1-0.3-0.1-0.7,0-1c0-0.1,0-0.2,0-0.4c0-0.2-0.1-0.3,0-0.5c0.1-0.2,0.1-0.4,0-0.6c0-0.1,0-0.1,0-0.2
			c0.1-0.4,0-0.9,0-1.3c0,0,0,0,0,0c0.2-0.6-0.2-1.2,0.1-1.7c-0.2-0.3,0.2-0.8-0.2-1.1c-0.1-0.1,0-0.3,0.1-0.4
			c0.2-0.3,0.2-0.7,0.2-1.1c-0.1-0.6,0-1.1,0.2-1.7c0-0.1,0.1-0.1,0-0.2c-0.2-0.4-0.1-0.9-0.1-1.4c0-0.3,0-0.6-0.1-1
			c0-0.4,0-0.7-0.1-1.1c0.1-0.1,0.1-0.2,0.1-0.2c-0.3-0.4-0.3-0.9-0.4-1.4c-0.1-0.6-0.4-1.2-0.5-1.8c-0.1-0.6-0.5-1.2-0.8-1.7
			c-0.2-0.3-0.6-0.6-0.7-1c-0.4-0.1-0.5-0.4-0.8-0.6c-0.2-0.2-0.4-0.4-0.5-0.6c0-0.1-0.1-0.2-0.2-0.1c-0.3,0-0.5-0.1-0.6-0.3
			c0-0.1-0.1-0.1-0.1-0.2c-0.7-0.2-1.3-0.9-2-1.1c0,0,0,0,0,0c0,0-0.1-0.1-0.1-0.1c-0.1,0-0.3,0-0.3-0.1c-0.3-0.3-0.6-0.3-1-0.4
			c0,0-0.1,0-0.1,0c-0.6-0.6-1.4-0.4-2.2-0.6c-0.6-0.2-1.3-0.1-2,0c-0.2,0-0.4,0-0.6,0c-0.2-0.1-0.3,0-0.5,0.1c0,0-0.1,0.1-0.1,0.1
			c-0.4,0.2-0.7,0.3-1.1,0.4c-0.1,0-0.2,0.1-0.3,0.1c-0.5,0.2-0.9,0.5-1.4,0.5c0,0-0.1,0-0.1,0c-0.4,0.2-0.9,0.5-1.1,0.9
			c-0.1,0.2-0.3,0.4-0.5,0.5c-0.2,0.2-0.5,0.3-0.6,0.5c-0.1,0.1-0.3,0.3-0.4,0.3c-0.4,0.1-0.6,0.5-0.7,0.8c-0.2,0.4-0.5,0.8-0.9,1.1
			c-0.2,0.1-0.3,0.2-0.3,0.5c0,0.2-0.1,0.4-0.3,0.5c-0.3,0.3-0.4,0.6-0.5,1c-0.1,0.6-0.3,1.1-0.6,1.6C149,300.9,149,301,148.9,301z"
			/>
		<path class="st6" d="M226.1,301.5c0.1-0.3,0.4-0.4,0.6-0.5c0.2-0.1,0.4-0.1,0.6,0c0.3,0.1,0.5,0.2,0.8,0.1c0.1,0,0.3,0,0.4,0
			c0.4,0.1,0.7,0.2,1.1,0.3c0.4,0.1,0.8,0.4,1.2,0.5c0.2,0,0.4,0.3,0.7,0.3c0.1,0,0.9,0.9,0.9,1c0,0.1,0.1,0.1,0.1,0.2
			c0,0.2,0,0.4,0.4,0.4c0,0,0.1,0,0.1,0.1c0.4,0.3,0.9,0.6,1.2,1.1c0.1,0.2,0.2,0.3,0.3,0.5c0.1,0.1,0.2,0.3,0.2,0.5
			c0,0.2,0.1,0.4,0.3,0.5c0.2,0.2,0.2,0.4,0.2,0.6c0,0.2,0,0.4,0.2,0.5c0.2,0.2,0.3,0.5,0.3,0.8c0,0.1,0,0.2,0,0.2
			c0.1,0.4,0,0.7-0.3,0.9c-0.1,0.1-0.2,0.1-0.3,0.2c-0.2,0.1-0.4,0.2-0.4,0.5c0,0.2-0.1,0.4-0.3,0.5c-0.3,0.1-0.5,0.3-0.8,0.5
			c-0.1,0-0.2,0.1-0.3,0.1c-0.5,0-1,0-1.4,0c-0.3,0-0.6-0.3-0.8-0.6c-0.2-0.4-0.4-0.7-0.4-1.1c0-0.3-0.1-0.6-0.3-0.8
			c-0.1-0.1-0.2-0.2-0.2-0.4c-0.1-0.2-0.1-0.4-0.1-0.6c-0.1-0.2-0.4-0.1-0.5-0.3c0-0.1-0.1-0.1-0.1-0.1c0-0.4-0.4-0.5-0.6-0.7
			c-0.5-0.5-1.1-0.5-1.8-0.6c-0.1,0-0.2,0-0.3-0.1c-0.1,0-0.3-0.1-0.4,0c-0.4,0.3-0.8,0.2-1.3,0.3c-0.2,0-0.3,0-0.3,0.2
			c0,0.2-0.2,0.3-0.4,0.4c-0.1,0-0.2,0.1-0.3,0.2c0,0-0.1,0.1-0.1,0.1c-0.7,0.2-0.9,0.9-1.2,1.4c-0.3,0.5-0.5,1-0.8,1.5
			c0,0.1,0,0.1,0,0.2c0.1,0.4,0.1,0.8-0.2,1.2c0.4,0.2,0.4,0.6,0.5,1c0.1,0.2,0.2,0.4,0.3,0.5c0.2,0.2,0.4,0.3,0.4,0.6
			c0,0.2,0.2,0.3,0.4,0.4c0.2,0,0.3,0.1,0.5,0.1c0.4,0,0.7,0.1,1,0.5c0.1,0.1,0.2,0.2,0.4,0.2c0,0,0,0,0,0c0.4-0.1,0.6,0.5,1.1,0.2
			c0.3-0.2,0.7,0.2,1.1,0.2c0.3,0,0.4,0.3,0.6,0.3c0.2,0,0.4-0.1,0.6,0c0.5,0.2,1,0.3,1.5,0.5c0.3,0.1,0.6,0.2,1,0.3
			c0.2,0,0.5,0.1,0.6,0.3c0.1,0.1,0.1,0.1,0.2,0.1c0.4,0,0.7,0.3,1,0.5c0.1,0.1,0.1,0.1,0.2,0.1c0.1,0,0.2,0,0.2,0.1
			c0.4,0.5,1.1,0.7,1.4,1.4c0,0.1,0.1,0.1,0.2,0.2c0.3,0.2,0.5,0.5,0.5,0.8c0,0.1,0.1,0.2,0.2,0.3c0.4,0.3,0.5,0.7,0.3,1.2
			c-0.1,0.4-0.2,0.8,0.2,1.1c0.2,0.2,0.5,0.5,0.5,0.9c0,0.2,0,0.3-0.1,0.5c0,0.1-0.1,0.2-0.1,0.3c0.1,0.3,0,0.5-0.2,0.7
			c-0.1,0.1,0,0.2-0.1,0.3c-0.1,0.3-0.1,0.7-0.1,1c0,0.4-0.3,0.8-0.4,1.2c-0.1,0.2-0.3,0.3-0.5,0.4c-0.4,0.1-0.6,0.3-0.6,0.7
			c0,0.3-0.2,0.5-0.5,0.6c-0.1,0.1-0.3,0.1-0.3,0.3c-0.1,0.5-0.5,0.7-0.9,0.8c-0.3,0.1-0.5,0.1-0.7,0.4c-0.1,0.1-0.2,0.2-0.4,0.2
			c-0.1,0-0.2,0-0.3,0c-0.3,0.2-0.6,0.1-0.9,0c-0.1-0.1-0.2-0.1-0.2,0c-0.3,0.5-0.7,0.5-1.2,0.5c-0.1,0-0.2,0-0.2,0
			c-0.3,0.2-0.6,0.3-0.9,0.1c0,0-0.1,0-0.1,0c-0.2,0.2-0.5,0.1-0.8,0.1c-0.3,0-0.5-0.1-0.8,0c-0.2,0.1-0.4,0-0.6-0.1
			c-0.1-0.1-0.2-0.1-0.3-0.1c-0.4,0.1-0.8,0.1-1.3,0c-0.1,0-0.2-0.1-0.3-0.2c-0.1-0.1-0.2-0.1-0.4-0.1c-0.3,0.1-0.6-0.1-0.7-0.3
			c-0.1-0.2-0.2-0.4-0.5-0.2c-0.2,0.1-0.5,0.1-0.7-0.1c-0.1-0.1-0.2-0.1-0.3-0.1c-0.1,0-0.2,0-0.2-0.1c-0.2-0.3-0.5-0.4-0.8-0.6
			c-0.2-0.1-0.3-0.3-0.4-0.5c-0.1-0.2-0.3-0.4-0.4-0.5c-0.3-0.4-0.8-0.6-0.8-1.2c0-0.1-0.1-0.1-0.2-0.2c-0.2-0.2-0.3-0.4-0.3-0.7
			c0-0.2,0-0.2-0.1-0.3c-0.1-0.1-0.2-0.2-0.2-0.3c-0.1-0.6-0.2-1.2-0.3-1.8c0-0.1,0-0.2,0-0.3c0.1-0.2,0.2-0.5,0.1-0.7
			c0,0,0-0.1,0-0.1c0.1-0.4,0.2-0.7,0.1-1.1c0,0,0-0.1,0.1-0.2c0.3-0.2,0.3-0.5,0.2-0.8c-0.1-0.3,0.1-0.5,0.3-0.6
			c0.6-0.5,0.9-0.5,1.6,0c0.1,0.1,0.2,0.1,0.3,0.2c0.3,0.4,0.6,0.4,1,0.2c0.4-0.2,0.8-0.1,1,0.3c0,0,0,0.1,0,0.1
			c0.5,0.3,0.5,0.7,0.2,1.1c-0.1,0.1-0.1,0.2,0,0.3c0.2,0.2,0.2,0.4,0.1,0.6c0,0.3,0,0.6,0.2,0.9c0.1,0.2,0.1,0.5,0.2,0.7
			c0.2,0.3,0.3,0.7,0.7,0.8c0,0,0.1,0,0.1,0.1c0.1,0.4,0.5,0.4,0.8,0.4c0.1,0,0.2,0,0.3,0c0.5,0.2,0.9,0.3,1.4,0.2
			c0.1,0,0.2,0,0.3,0.1c0.2,0.1,0.3,0.1,0.5,0c0,0,0,0,0,0c0.2-0.2,0.5,0.2,0.7,0c0.2-0.2,0.5-0.1,0.7,0.1c0.1,0.1,0.2,0.1,0.3,0
			c0.1-0.1,0.3-0.1,0.4-0.2c0.5-0.3,1.1-0.5,1.6-0.8c0.1-0.1,0.1-0.2,0.2-0.3c0.1-0.3,0.2-0.5,0.4-0.7c0.1,0,0.1-0.1,0.1-0.2
			c-0.1-0.4,0-0.9-0.1-1.3c0,0,0,0,0,0c0.2-0.6-0.3-0.9-0.7-1.2c-0.2-0.2-0.4-0.4-0.6-0.5c-0.3-0.2-0.6-0.4-1-0.5c0,0-0.1,0-0.1,0
			c-0.2,0-0.4-0.3-0.6-0.3c-0.3,0-0.4-0.1-0.6-0.2c-0.2-0.1-0.4-0.1-0.6-0.1c-0.4,0-0.8-0.1-1.2-0.3c-0.1,0-0.1-0.1-0.2,0
			c-0.3,0.1-0.6-0.1-0.8-0.3c-0.1-0.2-0.3-0.2-0.5-0.1c-0.4,0.1-0.8,0-1-0.4c-0.1-0.2-0.2-0.2-0.3-0.1c-0.3,0.2-0.6,0.1-0.9-0.2
			c-0.1-0.1-0.2-0.2-0.3-0.2c-0.5,0-0.8-0.3-1.2-0.7c-0.1-0.1-0.3-0.2-0.4-0.2c-0.3-0.1-0.6-0.2-0.9-0.5c-0.1-0.1-0.2-0.1-0.3-0.2
			c-0.1,0-0.2-0.1-0.2-0.1c-0.2-0.4-0.6-0.6-0.9-1c-0.1-0.1-0.1-0.2-0.1-0.3c0-0.3-0.1-0.4-0.3-0.5c-0.5-0.3-0.6-0.8-0.6-1.3
			c0-0.1,0-0.2-0.1-0.3c-0.2-0.2-0.2-0.4-0.2-0.6c0-0.3-0.1-0.5-0.1-0.8c-0.1-0.6-0.3-1.3,0-2c0.1-0.1,0.1-0.2,0-0.3
			c-0.1-0.3,0-0.5,0.2-0.7c0.1-0.1,0.2-0.2,0.2-0.4c0-0.2,0.1-0.4,0.2-0.6c0.1-0.3,0.2-0.6,0.2-0.9c0-0.4,0.2-0.8,0.5-1.1
			c0.1-0.1,0.2-0.2,0.3-0.4c0-0.1,0.1-0.2,0.2-0.3c0.4-0.1,0.5-0.5,0.6-0.8c0.1-0.2,0.2-0.4,0.4-0.5c0,0,0.1,0,0.1,0
			c0.1-0.4,0.6-0.6,0.8-0.9c0.1-0.1,0.1-0.2,0.2-0.2c0.5-0.2,0.8-0.5,1.2-0.8c0.2-0.2,0.5-0.3,0.8-0.2c0.4,0.2,0.8,0,1-0.4
			c0.2-0.5,0.4-0.6,0.9-0.4c0.1,0,0.2,0,0.3,0C225.5,301.1,225.8,301.2,226.1,301.5z"/>
		<path class="st6" d="M265.2,308.1c-0.1,0.1-0.2,0.2-0.3,0.4c-0.2,0.2-0.4,0.3-0.7,0.2c-0.2-0.1-0.3,0-0.3,0.2c0,0.1,0,0.1,0,0.2
			c0,0.2-0.3,0.3-0.3,0.5c0,0.2,0.2,0.3,0.2,0.5c0,0,0,0,0,0c-0.1,0.3-0.2,0.5-0.1,0.9c0.1,0.3,0,0.6-0.1,0.9c0,0.1-0.1,0.2,0,0.4
			c0.2,0.3,0.1,0.5-0.1,0.7c-0.2,0.2-0.1,0.3-0.1,0.5c0.2,0.4,0.2,0.9-0.1,1.3c-0.2,0.3-0.3,0.5,0,0.8c0.2,0.2,0.2,0.4,0.1,0.6
			c-0.1,0.2,0,0.3,0.1,0.4c0.2-0.1,0.2-0.2,0.3-0.3c0.2-0.3,0.5-0.5,0.9-0.4c0,0,0.1,0,0.1,0c0.3-0.2,0.7,0,1-0.1
			c0.2-0.1,0.4,0,0.6,0.1c0.3,0.1,0.5,0.1,0.7-0.1c0.4-0.2,0.7-0.1,1.1,0.1c0,0,0.1,0.1,0.1,0.1c0.2,0.1,0.4,0.4,0.6,0.3
			c0.2-0.1,0.4-0.2,0.6-0.4c0.2-0.2,0.5-0.3,0.8-0.3c0.2,0,0.5,0.1,0.7,0c0.4-0.2,0.7-0.1,1,0.2c0,0,0.1,0.1,0.1,0.1
			c0.1,0,0.2-0.1,0.2-0.2c0.3-0.3,0.5-0.4,0.9-0.1c0.1,0.1,0.2,0.1,0.4,0.1c0.4-0.1,0.6,0.1,0.8,0.4c0.1,0.3,0.1,0.6,0.1,0.8
			c0,0.2,0,0.3,0.1,0.5c0.2,0.2,0.2,0.4,0.1,0.6c-0.1,0.2-0.1,0.3,0,0.4c0.1,0.2,0.2,0.4,0.2,0.7c0,0.3-0.1,0.5-0.4,0.6
			c-0.2,0.1-0.4,0.2-0.5,0.4c-0.2,0.4-0.6,0.5-1,0.2c-0.3-0.2-0.3-0.2-0.6,0c-0.3,0.2-0.5,0.4-0.9,0.2c0,0,0,0,0,0
			c-0.4,0.3-0.9,0-1.3,0.2c-0.3,0.1-0.5,0.1-0.7-0.1c-0.2-0.2-0.3-0.2-0.5-0.1c-0.3,0.1-0.6,0.2-0.8,0.3c-0.2,0.1-0.4,0-0.6,0
			c-0.2,0-0.3-0.1-0.5,0c-0.6,0.2-1.2,0.2-1.8,0.2c-0.3,0-0.5,0-0.8,0c-0.2,0-0.4,0-0.6-0.1c-0.2-0.2-0.4-0.1-0.5,0
			c-0.3,0.2-0.4,0.5-0.3,0.9c0.1,0.3,0.1,0.5-0.1,0.7c-0.1,0.1-0.2,0.2-0.1,0.4c0.1,0.2,0.1,0.4,0,0.5c-0.3,0.3-0.1,0.5,0,0.7
			c0.2,0.3,0.1,0.5-0.1,0.7c-0.1,0.1-0.3,0.2-0.3,0.3c0.1,0.2,0.2,0.5,0.5,0.6c0.2,0.1,0.3,0.1,0.4,0.2c0.2,0.2,0.4,0.2,0.6,0
			c0.3-0.3,0.5-0.3,0.9-0.2c0.3,0.1,0.6,0.1,0.9-0.1c0.2-0.1,0.5-0.1,0.7,0.1c0.1,0.1,0.2,0.1,0.4,0c0.3-0.2,0.6-0.2,0.8,0.2
			c0.1,0.1,0.3,0.1,0.4,0.1c0.2-0.1,0.5-0.1,0.7-0.2c0.5-0.3,1-0.3,1.5,0.1c0.1,0.1,0.2,0,0.3,0c0.2,0,0.4-0.1,0.5-0.2
			c0.2-0.2,0.5-0.2,0.7-0.1c0.2,0.1,0.4,0.1,0.6,0c0.3-0.1,0.6-0.1,0.8,0.1c0.2,0.2,0.6,0.2,0.8,0.5c0.1,0.1,0.2,0,0.3,0
			c0.2-0.1,0.5-0.2,0.7-0.2c0.4,0,0.7,0.2,0.7,0.6c0,0.4-0.1,0.8-0.3,1.1c-0.2,0.3-0.2,0.5,0,0.8c0.1,0.1,0.1,0.3,0.2,0.4
			c0.1,0.4,0,0.7-0.4,0.8c-0.3,0.1-0.6,0.3-0.9,0.5c-0.2,0.2-0.5,0.3-0.7,0.1c-0.2-0.1-0.4-0.1-0.6,0c-0.1,0-0.1,0.1-0.2,0.1
			c-0.4,0-0.7,0.1-1.1,0.1c-0.4,0-0.9-0.1-1.3-0.1c-0.2,0-0.3-0.2-0.4-0.3c-0.2-0.2-0.3-0.1-0.5,0c-0.1,0.1-0.2,0.2-0.3,0.3
			c-0.3,0.2-0.5,0.2-0.8,0c-0.1-0.1-0.1-0.1-0.2-0.1c-0.4,0.2-0.8,0-1.2,0.2c-0.5,0.2-1.1,0.1-1.6,0c-0.1,0-0.2,0-0.2,0
			c-0.2,0.1-0.3,0.1-0.5,0c-0.1-0.1-0.2-0.1-0.3,0c-0.4,0.2-0.6,0-0.8-0.3c0-0.1-0.1-0.1-0.2-0.1c-0.1,0.1-0.2,0.2-0.4,0.4
			c-0.2,0.2-0.5,0.3-0.8,0.2c-0.1,0-0.1-0.1-0.2,0c-0.3,0.3-0.7,0-1,0c-0.2,0-0.3-0.1-0.4-0.2c-0.1-0.2-0.3-0.3-0.6-0.3
			c-0.3,0-0.6-0.1-0.9,0c-0.4,0.1-0.7-0.2-0.8-0.6c-0.1-0.3-0.1-0.6-0.2-0.9c-0.1-0.2-0.1-0.4,0-0.5c0.2-0.2,0.1-0.4,0-0.6
			c-0.1-0.1-0.1-0.2-0.1-0.4c0.2-0.4,0.1-0.9,0.1-1.3c0-0.4,0.1-0.9,0.5-1.2c0.3-0.3,0.3-0.3,0-0.7c-0.1-0.1-0.1-0.2-0.2-0.3
			c0-0.1-0.1-0.2-0.1-0.3c0.2-0.4,0-0.9,0.3-1.3c0.1-0.2,0.1-0.3,0-0.4c-0.3-0.3-0.3-0.6,0-1c0.1-0.1,0.1-0.2,0.1-0.2
			c-0.4-0.4-0.2-0.8,0.1-1.2c0.1-0.2,0.1-0.2,0-0.4c-0.2-0.3-0.3-0.7-0.1-1c0.1-0.1,0.1-0.2,0-0.3c0,0,0,0,0,0
			c0.1-0.4,0.1-0.9,0-1.3c0-0.1,0.1-0.2,0.1-0.3c0.1-0.3,0.1-0.5,0-0.8c-0.1-0.3,0-0.5,0.2-0.7c0.1-0.1,0.1-0.1,0.2-0.2
			c0.2-0.2,0.2-0.3,0-0.5c-0.2-0.3-0.4-0.6-0.3-0.9c0-0.1,0-0.2,0-0.3c0-0.1,0-0.2,0-0.2c0-0.5,0.1-0.9,0.1-1.4
			c-0.1-0.5,0-0.9,0.1-1.4c0-0.1,0.1-0.3,0.1-0.4c0.1-0.2,0.1-0.3,0-0.5c-0.1-0.3-0.1-0.6-0.4-0.8c-0.1-0.1-0.1-0.3-0.1-0.5
			c0.1-0.2,0-0.3-0.1-0.4c-0.3-0.4-0.4-1,0-1.4c0.1-0.2,0.2-0.3,0.2-0.5c0-0.3,0.3-0.4,0.4-0.6c0.2-0.2,0.3-0.4,0.3-0.6
			c0.1-0.6,0.5-0.8,1-1c0,0,0,0,0,0c0.4,0.1,0.9,0.1,1.2,0.4c0.2,0.2,0.4,0.3,0.6,0.5c0.1,0.1,0.2,0,0.2,0c0.2-0.2,0.4-0.2,0.6-0.2
			c0.2,0,0.5-0.1,0.8,0.1c0.4-0.2,0.7-0.3,1.1,0c0,0,0.1-0.1,0.2-0.1c0.4-0.2,0.6-0.2,0.9,0.1c0.1,0.1,0.1,0.1,0.2,0.2
			c0.3,0.4,0.4,0.4,0.7,0c0.3-0.4,0.7-0.6,1.2-0.5c0.1,0,0.2,0,0.2,0c0.1,0,0.2-0.1,0.2-0.1c0.5,0.2,0.9,0,1.4,0
			c0.4-0.1,0.8,0,1.1,0.1c0.1,0,0.2,0,0.4-0.1c0.2-0.1,0.4-0.1,0.6,0c0.2,0.1,0.3,0.1,0.4,0c0.2-0.2,0.5-0.2,0.8-0.2
			c0.2,0,0.3,0,0.5,0c0.3-0.1,0.5,0,0.7,0.3c0.3,0.3,0.5,0.7,0.5,1.1c0.1,0.3,0.2,0.5,0.4,0.6c0.2,0.1,0.4,0.3,0.5,0.4
			c0.3,0.4,0.2,0.7-0.1,1c-0.1,0.1-0.2,0.2-0.3,0.2c-0.4,0.1-0.5,0.3-0.6,0.6c0,0.2-0.2,0.4-0.3,0.6c-0.2,0.2-0.4,0.3-0.6,0.3
			c-0.2,0-0.3,0-0.5,0c-0.2,0.1-0.4,0-0.5-0.1c-0.1-0.1-0.3-0.1-0.4,0c-0.2,0.2-0.4,0.2-0.7,0.1c-0.1-0.1-0.3-0.1-0.5,0
			c-0.3,0.2-0.7,0.1-1.1,0.1c-0.1,0-0.2-0.1-0.3,0c-0.6,0.2-1.1,0.2-1.7,0c-0.1,0-0.2,0-0.3,0c-0.1,0.1-0.3,0.1-0.4,0.2
			c-0.3,0.2-0.6,0.1-0.8-0.2c-0.1-0.1-0.2-0.2-0.3,0c-0.6,0.6-0.7,0.6-1.3,0C265.3,308.1,265.3,308.1,265.2,308.1z"/>
		<path class="st6" d="M244.9,307.5c-0.4,0.1-0.7,0.2-0.9,0c0,0-0.1,0-0.1,0c-0.3,0.2-0.6,0.1-0.9,0.1c-0.3,0-0.6-0.1-0.9,0.1
			c-0.3,0.1-0.5-0.1-0.7-0.3c-0.1-0.2-0.3-0.3-0.5-0.1c-0.2,0.1-0.3,0.2-0.5,0.3c-0.5,0.3-0.9,0.3-1.2-0.1c-0.1-0.2-0.2-0.2-0.4-0.2
			c-0.5,0-1-0.6-1-1.1c0,0,0-0.1,0-0.1c0.2-0.5,0.1-0.8-0.4-1.1c-0.3-0.2-0.4-0.4-0.3-0.8c0-0.1,0-0.2,0-0.2c-0.1-0.4,0-0.6,0.3-0.8
			c0.2-0.1,0.5-0.2,0.7-0.2c0.2,0,0.3-0.1,0.3-0.2c0.1-0.4,0.3-0.6,0.8-0.6c0,0,0.1,0,0.1,0c0.4-0.3,0.7-0.2,1,0.1
			c0.1,0.1,0.2,0,0.3,0c0.3,0,0.5,0.1,0.6,0.4c0.1,0.2,0.1,0.4,0.3,0.4c0.2,0,0.4-0.1,0.6-0.1c0.1,0,0.1-0.1,0.2-0.1
			c0.3-0.2,0.6-0.2,0.8,0.1c0.2,0.2,0.3,0.2,0.5,0.1c0.5-0.4,1-0.4,1.6-0.1c0.1,0.1,0.3,0.1,0.4,0c0.3-0.2,0.5-0.2,0.8,0
			c0.1,0.1,0.1,0.1,0.2,0.1c0.3-0.2,0.6-0.1,0.9-0.2c0.2-0.1,0.4-0.1,0.6,0c0.2,0.1,0.3,0.1,0.5,0c0.3-0.1,0.5,0,0.7,0.2
			c0.2,0.3,0.6,0.3,0.9,0.2c0.2-0.1,0.5-0.1,0.7-0.2c0.1,0,0.2-0.1,0.4,0c0.2,0,0.3,0,0.5-0.1c0.5-0.3,0.6-0.3,1.1,0.1
			c0.2,0.1,0.3,0.1,0.5,0.2c0.2,0.1,0.3-0.1,0.4-0.2c0.4-0.3,0.5-0.3,0.9-0.1c0.1,0.1,0.2,0.2,0.4,0.2c0.2,0.1,0.4,0.2,0.5,0.4
			c0,0.1,0.2,0.2,0.3,0.2c0.5,0.1,0.6,0.6,0.4,1c-0.1,0.3-0.3,0.5-0.5,0.7c-0.1,0.2-0.2,0.3-0.1,0.5c0.1,0.1,0.1,0.2,0.1,0.3
			c0.1,0.4-0.1,0.7-0.4,0.8c-0.3,0.1-0.5,0.2-0.6,0.5c-0.3,0.5-0.8,0.5-1.2,0.1c-0.2-0.2-0.3-0.2-0.5-0.1c-0.1,0.1-0.2,0.1-0.3,0.2
			c-0.3,0.3-0.6,0.3-1,0.2c0,0,0,0,0,0c-0.2-0.2-0.5,0.1-0.7,0c-0.2-0.1-0.3-0.3-0.6-0.3c-0.1,0-0.1,0-0.2,0c0,0.1,0.1,0.2,0.1,0.3
			c0.2,0.4,0.2,0.6-0.2,0.9c0,0-0.1,0.1-0.2,0.1c-0.2,0.2-0.3,0.2-0.1,0.4c0.1,0.1,0.2,0.2,0.2,0.3c0.2,0.4,0.4,0.8,0.1,1.2
			c-0.1,0.2-0.1,0.3-0.1,0.5c0,0.2,0,0.3-0.1,0.4c-0.2,0.3-0.2,0.5,0,0.8c0.2,0.3,0.1,0.7,0.2,1.1c0,0.1-0.1,0.2-0.2,0.3
			c-0.2,0.2-0.2,0.4-0.1,0.6c0.3,0.7,0.3,0.7-0.3,1.3c-0.3,0.3-0.3,0.3,0,0.6c0.2,0.2,0.3,0.4,0.3,0.7c0,0.1,0,0.3-0.1,0.4
			c-0.2,0.3-0.1,0.5,0,0.8c0.1,0.2,0.1,0.4-0.1,0.6c-0.1,0.1-0.2,0.3-0.3,0.4c-0.4,0.2-0.3,0.5-0.2,0.8c0.1,0.4,0.3,0.8,0.2,1.2
			c0,0,0,0.1,0,0.1c0.4,0.3,0.2,0.8,0.3,1.2c0,0.2-0.1,0.4-0.2,0.5c-0.2,0.1-0.2,0.3-0.1,0.5c0.3,0.4,0.2,0.8,0.1,1.2
			c0,0.1-0.1,0.1,0,0.2c0.4,0.6,0,1.2,0.1,1.9c0,0,0,0.1,0,0.1c0.2,0.4,0,0.7-0.2,1c-0.1,0.2-0.1,0.4,0,0.6c0.1,0.3,0.2,0.6,0.1,1
			c0,0.1,0,0.2,0,0.2c0,0.6-0.1,0.8-0.7,1c-0.3,0.1-0.6,0.2-0.8,0.5c-0.1,0.2-0.3,0.2-0.5,0.1c-0.2-0.1-0.4,0-0.6,0.1
			c-0.2,0.2-0.5,0.3-0.8,0.4c-0.7,0.2-1.1-0.2-1-0.8c0,0,0-0.1,0-0.1c0.1-0.4,0.1-0.4-0.3-0.7c-0.4-0.3-0.6-0.7-0.4-1.2
			c0.1-0.2,0.1-0.3,0.1-0.5c0-0.1,0-0.3,0.1-0.4c0.2-0.2,0.1-0.3,0-0.5c-0.1-0.3-0.3-0.7-0.1-1c0.2-0.3,0.2-0.6,0.1-1
			c0,0,0-0.1,0-0.2c0.2-0.3,0.1-0.6,0-0.9c-0.1-0.2,0-0.3,0.1-0.4c0.3-0.3,0.2-0.6,0.1-0.9c-0.2-0.4-0.1-0.8,0.1-1.2
			c0-0.1,0-0.2,0-0.3c-0.1-0.2-0.2-0.5-0.1-0.7c0,0,0-0.1,0-0.2c-0.1-0.3,0-0.5,0.2-0.7c0.1-0.1,0.2-0.2,0-0.4
			c-0.2-0.2-0.2-0.5-0.1-0.7c0.1-0.3,0.1-0.5-0.1-0.8c-0.2-0.3-0.2-0.6,0.2-0.9c0.2-0.2,0.2-0.3,0.1-0.5c-0.1-0.1-0.1-0.2-0.1-0.3
			c-0.2-0.4-0.2-0.8-0.1-1.2c0.1-0.2,0.1-0.4,0-0.6c-0.1-0.2-0.1-0.5,0.1-0.6c0.1-0.1,0.1-0.2,0-0.4c-0.1-0.2-0.1-0.4,0-0.7
			c0.1-0.1,0.2-0.3,0.2-0.4c0-0.2,0.1-0.4-0.1-0.6c-0.2-0.4-0.2-0.5,0.1-0.8c0.3-0.3,0.3-0.3,0-0.6c-0.2-0.2-0.4-0.5-0.2-0.8
			c0.1-0.1,0.1-0.3,0.1-0.5c0-0.1-0.1-0.2,0-0.3c0.1-0.3,0-0.5-0.3-0.7C244.9,308,244.9,307.8,244.9,307.5z"/>
		<path class="st6" d="M266.2,299.1c-0.3,0.4-0.5,0.9-0.6,1.3c-0.1,0.2-0.4,0.4-0.5,0.4c-0.1,0-0.2-0.1-0.3-0.2c0-0.4,0-0.8-0.1-1.2
			c-0.1-0.5,0-0.9,0-1.4c0-0.2,0.1-0.4,0.2-0.7c0-0.1,0.1-0.1,0.2-0.1c0.1,0,0.2,0,0.2,0.2c0.1,0.3,0.1,0.7,0,1.1
			c0,0.1,0,0.2,0.1,0.2c0.1-0.2,0.3-0.3,0.4-0.6c0-0.2,0.2-0.4,0.3-0.6c0.1-0.1,0.6-0.1,0.6,0.1c0.1,0.3,0.3,0.5,0.2,0.8
			c-0.1,0.2,0.2,0.3,0.3,0.5c0.2-0.4,0.3-0.8,0.3-1.2c0.1-0.4,0.1-0.5,0.5-0.4c0.2,0,0.2,0,0.2,0.3c0,0.4-0.2,0.7-0.3,1.1
			c-0.2,0.4-0.2,0.8-0.3,1.2c-0.1,0.2-0.2,0.4-0.4,0.6c-0.1,0.1-0.2,0.2-0.3,0.1c-0.1-0.1-0.2-0.2-0.2-0.3c0-0.3-0.1-0.6-0.2-0.8
			c-0.1-0.2,0-0.4-0.1-0.6C266.3,299,266.2,299,266.2,299.1z"/>
		<path class="st6" d="M259,297.8c-0.6,0.1-1.3,0-1.9,0.1c-0.2,0-0.4-0.1-0.5-0.3c-0.1-0.2,0-0.3,0.1-0.4c0.1-0.1,0.2-0.2,0.3-0.1
			c0.1,0,0.3,0,0.4,0.1c0.2,0.1,0.3,0.1,0.5,0c0.2-0.1,0.5-0.1,0.8,0c0.1,0.1,0.2,0.1,0.3,0c0,0,0.1-0.1,0.1-0.1
			c0.4,0.3,0.8-0.2,1.2,0.1c0,0,0.2,0,0.3-0.1c0.2-0.1,0.3,0.1,0.5,0.2c0.1,0.1,0,0.2-0.1,0.2c-0.2,0.1-0.4,0.3-0.7,0.2
			c-0.3-0.1-0.4,0.1-0.5,0.4c-0.1,0.4,0.1,0.9-0.2,1.3c0.1,0.2,0,0.5,0.1,0.7c0.2,0.4-0.1,0.7-0.3,1c-0.1,0.1-0.2,0.1-0.3-0.1
			c0-0.1,0-0.2,0-0.3c-0.1-0.2,0-0.3,0.1-0.5c0.1-0.2-0.2-0.3,0-0.5c0.1-0.2-0.1-0.5,0.1-0.7C259,298.6,259.1,298.2,259,297.8z"/>
		<path class="st6" d="M261.7,298.9c-0.2,0.4-0.3,0.8-0.4,1.2c-0.1,0.2-0.2,0.4-0.3,0.7c-0.1,0.1-0.2,0.1-0.3,0.1
			c-0.1,0-0.2-0.1-0.2-0.2c-0.1-0.4-0.1-0.7,0.2-1c0,0,0.1-0.1,0.1-0.2c0.1-0.4,0.1-0.8,0.4-1.1c0.1-0.1,0.1-0.3,0.1-0.5
			c0-0.3,0.2-0.5,0.3-0.8c0-0.1,0.4-0.1,0.4,0.1c0.1,0.2,0.3,0.3,0.3,0.6c0.1,0.5,0.3,1,0.4,1.6c0,0.2,0.1,0.3,0.1,0.5
			c0,0.1,0,0.2,0.1,0.3c0.1,0.2,0.1,0.5-0.1,0.7c-0.1,0.1-0.2,0.1-0.2,0c-0.1-0.4-0.4-0.8-0.5-1.2c-0.1-0.2-0.2-0.5-0.2-0.7
			C261.8,299,261.8,298.8,261.7,298.9z"/>
		<path class="st6" d="M269.2,299.1c-0.3,0.4-0.3,0.8-0.4,1.2c0,0.2-0.1,0.3-0.2,0.4c-0.2,0.1-0.4,0.1-0.5,0c-0.2-0.1-0.1-0.3,0-0.4
			c0.1-0.3,0.3-0.6,0.4-0.9c0.1-0.2,0-0.5,0.1-0.7c0.1-0.2,0.1-0.4,0.2-0.5c0.1-0.2,0.2-0.3,0.2-0.5c0-0.1,0-0.3,0.2-0.3
			c0.1,0,0.3,0,0.4,0.2c0,0.1,0.1,0.1,0.1,0.2c0.2,0.6,0.4,1.2,0.5,1.8c0.1,0.3,0.1,0.7,0.3,1c0.1,0.2,0,0.2-0.1,0.2
			c-0.3,0.1-0.4,0-0.5-0.3c-0.1-0.3-0.2-0.6-0.2-1C269.5,299.3,269.4,299.2,269.2,299.1z"/>
		<path class="st6" d="M264.1,297.9c-0.2,0.3,0.1,0.7-0.1,1.1c0.2,0.3,0,0.6,0,0.9c0,0.3,0,0.5,0,0.8c0,0.3-0.1,0.3-0.3,0.2
			c-0.4-0.1-0.5-0.2-0.4-0.5c0.1-0.3-0.1-0.6,0-0.9c0.1-0.5,0.1-1.1,0.1-1.6c0,0,0-0.1,0-0.1c0-0.2,0.3-0.4,0.4-0.4
			C264,297.3,264.1,297.5,264.1,297.9z"/>
		<path class="st6" d="M261.7,298.9c0,0,0-0.1,0-0.1c0,0,0-0.1,0.1-0.1c0,0,0.1,0.1,0.1,0.1c0,0.1,0,0.2,0,0.2
			C261.8,299,261.7,299,261.7,298.9z"/>
		<path class="st6" d="M266.2,299.1c0-0.1-0.1-0.2,0-0.3c0.2,0,0.1,0.2,0.1,0.3C266.3,299.1,266.2,299.1,266.2,299.1z"/>
		<path class="st6" d="M176.8,304c-0.1-0.1-0.1-0.2,0-0.4C176.8,303.8,176.8,303.9,176.8,304z"/>
		<path class="st6" d="M171.7,302.1c0,0.1,0,0.2-0.1,0.2C171.6,302.2,171.6,302.1,171.7,302.1z"/>
		<path class="st6" d="M169.8,290.3c-0.1,0-0.1,0-0.1-0.1C169.7,290.2,169.8,290.2,169.8,290.3z"/>
		<path class="st6" d="M217.4,329.7c-0.1-0.2-0.1-0.3,0.1-0.4c0.3-0.4,0.4-0.7,0.1-1.1c-0.1-0.1-0.1-0.2-0.1-0.3
			c0.1-0.3-0.1-0.5-0.2-0.7c-0.2-0.2,0-0.5-0.2-0.7c-0.1-0.1-0.2-0.2-0.4-0.3c-0.1,0-0.2-0.1-0.4-0.1c0.1-0.1,0.1-0.2,0.2-0.3
			c0.1-0.1,0.1-0.2,0.1-0.4c-0.2-0.4-0.2-0.8-0.6-1.1c-0.1-0.1-0.1-0.2-0.1-0.4c0.1-0.2,0.2-0.4,0.4-0.5c0.2-0.1,0.4-0.4,0.3-0.6
			c-0.1-0.2,0-0.3,0.2-0.5c0.1-0.2,0.3-0.4,0.2-0.6c-0.1-0.3-0.3-0.7-0.5-1c-0.2-0.2-0.5-0.4-0.8-0.5c-0.2-0.1-0.4-0.3-0.6-0.5
			c-0.3-0.3-0.6-0.7-0.9-0.9c-0.2-0.1-0.2-0.3-0.2-0.5c0.1-0.4,0.2-0.8-0.1-1.1c0-0.1,0-0.1,0-0.2c0-0.2-0.1-0.4-0.2-0.5
			c-0.1-0.1-0.1-0.1-0.1-0.2c0-0.4-0.5-0.8-0.3-1.3c0-0.1-0.1-0.2-0.1-0.3c-0.1-0.1-0.2-0.3-0.1-0.4c0.1-0.3-0.1-0.5-0.3-0.7
			c-0.4-0.2-0.4-0.4-0.3-0.8c0.1-0.3,0.1-0.6-0.2-0.8c-0.1-0.1-0.2-0.1-0.2-0.2c0.1-0.5-0.3-0.8-0.4-1.2c-0.1-0.2-0.2-0.3-0.1-0.5
			c0.2-0.3,0.1-0.5-0.1-0.7c-0.1-0.1-0.2-0.1-0.2-0.3c0.1-0.3,0-0.4-0.2-0.6c-0.1-0.1-0.2-0.1-0.2-0.3c0-0.2-0.1-0.4-0.2-0.6
			c-0.1-0.1-0.1-0.2-0.1-0.3c0.2-0.3,0-0.5-0.2-0.7c-0.1-0.1-0.2-0.2-0.2-0.3c0-0.2,0.1-0.5-0.2-0.7c-0.3-0.2,0.1-0.5-0.1-0.7
			c0-0.1,0-0.1-0.1-0.2c-0.2-0.2-0.2-0.6-0.5-0.8c-0.1-0.1-0.1-0.2,0-0.3c0.2-0.4,0-0.6-0.3-0.8c-0.1-0.1-0.2-0.1-0.2-0.3
			c0-0.4-0.2-0.6-0.7-0.7c-0.2,0-0.3-0.1-0.4-0.3c-0.2-0.4-0.4-0.5-0.8-0.4c-0.1,0-0.2,0.1-0.3,0.1c-0.5-0.2-0.8,0-1,0.4
			c-0.2,0.3-0.4,0.5-0.8,0.5c-0.5,0-0.7,0.3-0.7,0.8c0,0.3,0.1,0.7-0.2,0.9c0,0,0,0.1,0,0.1c0,0.4-0.1,0.8-0.3,1.2
			c-0.1,0.2-0.1,0.3,0,0.4c0.1,0.2,0.1,0.3-0.1,0.4c-0.2,0.1-0.3,0.3-0.4,0.6c0,0.1,0,0.2-0.1,0.3c-0.2,0.3-0.2,0.6-0.2,0.9
			c0,0.2,0,0.3-0.2,0.4c-0.2,0.2-0.6,1.3-0.6,1.6c0,0.1,0,0.2,0.1,0.2c0.2,0.4,0,0.9-0.4,1.1c-0.2,0.1-0.4,0.3-0.4,0.5
			c0,0.4-0.1,0.8-0.4,1.1c0,0,0,0.1,0,0.1c-0.2,0.3-0.1,0.6-0.2,0.8c-0.2,0.5-0.3,0.9-0.5,1.4c-0.1,0.2-0.1,0.5,0,0.7
			c0.1,0.1,0,0.2-0.1,0.3c-0.4,0.2-0.5,0.6-0.4,1c0.1,0.2,0.1,0.4-0.2,0.5c-0.1,0.1-0.2,0.2-0.2,0.3c0,0.4-0.1,0.7-0.3,1
			c-0.1,0.1-0.1,0.3-0.2,0.4c-0.2,0.2-0.3,0.5-0.3,0.7c0,0.2,0,0.4-0.2,0.6c-0.4,0.4-0.3,0.8,0,1.2c0,0,0,0.1,0,0.1
			c-0.5,0.1-0.7,0.2-0.8,0.7c-0.1,0.3-0.3,0.7-0.3,1c-0.1,0.6-0.6,1.1-0.5,1.7c0,0,0,0,0,0c-0.2,0.2-0.2,0.5-0.2,0.7
			c-0.1,0.3,0,0.6-0.3,0.8c-0.1,0.1-0.1,0.3-0.1,0.5c0.1,0.2,0,0.3-0.2,0.3c-0.4,0.3-0.6,0.7-0.4,1.2c0.1,0.3,0.3,0.5,0.5,0.6
			c0.2,0.1,0.2,0.2,0.1,0.4c-0.1,0.3-0.2,0.5-0.1,0.8c0,0.4,0.3,0.8,0.9,0.6c0.1,0,0.2-0.1,0.4-0.1c0.1,0,0.2-0.1,0.3,0
			c0.4,0.2,0.7,0,0.9-0.3c0.2-0.3,0.4-0.4,0.7-0.3c0.1,0,0.1,0,0.2,0c0.6,0,0.8-0.2,0.9-0.8c0,0,0-0.1,0.1-0.1
			c0.2-0.2,0.1-0.5,0-0.8c0-0.2,0.3-0.4,0.2-0.7c0,0,0,0,0,0c-0.1-0.2,0-0.4,0.2-0.5c0.2-0.2,0.5-0.5,0.6-0.7
			c0.1-0.4,0.2-0.8,0.4-1.2c0.2-0.3,0.1-0.3,0.5-0.4c0.4-0.1,0.8,0,1.1-0.3c0.2-0.3,0.2-0.2,0.5,0c0.3,0.2,0.5,0.3,0.9,0.1
			c0.2-0.1,0.5-0.2,0.8,0c0.2,0.1,0.3,0.1,0.5,0.1c0.3,0,0.6-0.2,0.9-0.1c0.3,0.1,0.6,0,0.9,0c0.3,0,0.6-0.1,0.7-0.3
			c0.1-0.1,0.2-0.2,0.3-0.1c0.4,0.2,0.8,0.1,1.2,0.3c0.1,0,0.1,0,0.2,0c0.6-0.1,0.9,0.1,0.9,0.7c0,0.3,0.2,0.5,0.5,0.7
			c0.4,0.1,0.5,0.6,0.3,1c-0.3,0.5-0.3,0.5,0.1,0.9c0.1,0.1,0.2,0.3,0.2,0.5c-0.1,0.4,0.1,0.7,0.3,1c0.2,0.3,0.5,0.4,0.8,0.4
			c0.5-0.1,0.9,0.1,1.4,0.4c0.3,0.2,0.5,0.4,0.9,0.5c0.2,0.1,0.5,0.2,0.8,0.2C217.4,330.9,217.8,330.5,217.4,329.7
			C217.4,329.7,217.4,329.7,217.4,329.7z M209.5,319.9c-0.2,0.1-0.5,0.1-0.7,0c-0.5-0.2-0.9-0.1-1.4,0.1c-0.1,0.1-0.2,0-0.3,0
			c-0.3,0-0.6-0.1-0.9,0.1c-0.1,0.1-0.2,0-0.3,0c-0.3-0.1-0.5-0.1-0.7,0.1c-0.1,0.1-0.3,0.2-0.4,0.1c-0.3-0.1-0.6-0.1-0.9-0.3
			c0.3-0.4,0.2-1,0.6-1.4c0,0,0.1-0.1,0.1-0.2c0-0.3,0-0.5,0.2-0.7c0,0,0.1-0.1,0.1-0.2c0-0.3,0.1-0.6,0.3-0.8
			c0.1-0.1,0.1-0.2,0.1-0.3c-0.1-0.3,0.1-0.5,0.3-0.7c0.2-0.2,0.2-0.4,0.2-0.6c0.1-0.3,0.3-0.6,0.3-0.9c0-0.1,0.1-0.2,0.1-0.3
			c0.1-0.2,0.3-0.3,0.2-0.5c-0.2-0.5,0.3-0.9,0.2-1.4c0-0.1,0-0.3,0.2-0.4c0.5,0.3,0.6,0.8,0.7,1.2c0,0.1,0,0.2,0,0.2
			c-0.2,0.3-0.1,0.6,0.2,0.8c0.1,0.1,0.2,0.2,0.1,0.4c-0.1,0.3,0,0.5,0.3,0.7c0.2,0.1,0.2,0.3,0.1,0.5c-0.1,0.2-0.1,0.4,0,0.5
			c0.2,0.2,0.2,0.5,0.5,0.8c0.1,0.1,0.1,0.1,0.1,0.2c0,0.5,0.2,0.9,0.2,1.3c0,0.2,0,0.4,0.2,0.5c0.3,0.2,0.3,0.5,0.5,0.7
			C209.8,319.6,209.6,319.8,209.5,319.9z"/>
		<path class="st6" d="M269.3,298.8C269.3,298.8,269.3,298.9,269.3,298.8C269.2,298.9,269.2,298.8,269.3,298.8
			C269.2,298.8,269.3,298.8,269.3,298.8C269.3,298.8,269.3,298.8,269.3,298.8z"/>
		<path class="st6" d="M176.8,315.4c0,0.1-0.1,0.2-0.2,0.2c-0.1-0.1,0-0.2,0.1-0.3C176.7,315.3,176.8,315.4,176.8,315.4z"/>
	</g>
	<text transform="matrix(1 0 0 1 175.9396 343.6027)" class="st3 st7 st8 st9">台灣零廢棄平台</text>
	<rect x="175.9" y="334.1" class="st3" width="102.7" height="0.6"/>
	<rect x="79.8" y="334.1" class="st3" width="63.3" height="0.6"/>
</g>
<g>
	<g>
		<path class="st10" d="M242.6,106.8c0,58.1-65.6,111.9-65.6,111.9c-3.8,3.1-10.1,3.1-13.9,0c0,0-65.6-53.8-65.6-111.9
			c0-40.1,32.5-72.6,72.6-72.6S242.6,66.7,242.6,106.8z"/>
	</g>
	<path class="st11" d="M219.3,109.1c0,27.2-22.1,49.3-49.3,49.3c-16.3,0-30.8-7.9-39.7-20.1c-6-8.2-9.6-18.3-9.6-29.2
		c0-27.2,22.1-49.3,49.3-49.3S219.3,81.9,219.3,109.1z"/>
</g>
</svg>
