<?xml version="1.0" encoding="utf-8"?>
<!-- Generator: Adobe Illustrator 22.0.0, SVG Export Plug-In . SVG Version: 6.00 Build 0)  -->
<svg version="1.1" id="圖層_1" xmlns="http://www.w3.org/2000/svg" xmlns:xlink="http://www.w3.org/1999/xlink" x="0px" y="0px"
	 viewBox="0 0 365 365" style="enable-background:new 0 0 365 365;" xml:space="preserve">
<style type="text/css">
	.st0{fill:#6BBD77;}
	.st1{fill:none;stroke:#FFFFFF;stroke-width:15.928;stroke-miterlimit:10;}
	.st2{fill:none;stroke:#FFFFFF;stroke-width:15.7121;stroke-miterlimit:10;}
	.st3{fill:#6FC076;}
	.st4{fill:#B4DBAF;}
	.st5{fill:#73C16F;}
	.st6{fill:#F27F98;}
	.st7{fill:#F77E9C;}
	.st8{fill:#FFFFFF;}
	.st9{fill:#4DE680;}
	.st10{fill:#4695FC;}
	.st11{fill:#FF976A;}
	.st12{fill:#F88181;}
</style>
<g>
	<path class="st0" d="M231.4,249c0,0-61.9,2.5-90,29.5c-15.6,15-13,53.3-13,53.3s77.5,13.2,97-30.4C236.3,277.1,231.4,249,231.4,249
		z"/>
</g>
<g>
	<path class="st10" d="M282.5,129c0,80.1-90.4,154.2-90.4,154.2c-5.3,4.3-13.9,4.3-19.2,0c0,0-90.4-74.2-90.4-154.2
		c0-55.2,44.8-100,100-100S282.5,73.8,282.5,129z"/>
	<g>
		<path class="st8" d="M210.8,100.3h12.3L204.9,69c-1.5-2.5-4.7-3.4-7.3-1.9c-2.5,1.5-3.4,4.7-1.9,7.3L210.8,100.3z"/>
		<path class="st8" d="M169,74.4c1.5-2.5,0.6-5.8-1.9-7.3c-2.5-1.5-5.8-0.6-7.3,1.9l-18.2,31.4h12.3L169,74.4z"/>
		<path class="st8" d="M243.5,103.6H121.1c-5,0-9,4-9,9v10c0,5,4,9,9,9h2.8l8.7,47.2c1.1,5.6,6.2,10,11.4,10h3.5h22.7
			c2.3,0,5.3,0,8.4,0l0,0h2.8h2.8l0,0c3,0,6.1,0,8.4,0h22.7h3.5c5.3,0,10.4-4.4,11.4-10l8.8-47.2h4.6c5,0,9-4,9-9v-10
			C252.5,107.6,248.5,103.6,243.5,103.6z M161.9,150.8v20.4c0,2.9-2.4,5.1-5.1,5.1c-2.9,0-5.1-2.4-5.1-5.1v-8.6v-20
			c0-2.9,2.4-5.1,5.1-5.1c2.9,0,5.1,2.4,5.1,5.1V150.8z M178.3,150.8v20.4c0,2.9-2.4,5.1-5.1,5.1c-2.9,0-5.1-2.4-5.1-5.1v-8.6v-20
			c0-2.9,2.4-5.1,5.1-5.1c2.7,0,5.1,2.4,5.1,5.1V150.8z M194.8,162.6v8.6c0,2.8-2.2,5.1-5.1,5.1c-2.8,0-5.1-2.2-5.1-5.1v-20.4v-8.2
			c0-2.8,2.4-5.1,5.1-5.1s5.1,2.2,5.1,5.1V162.6z M211.2,162.6v8.6c0,2.8-2.2,5.1-5.1,5.1c-2.8,0-5.1-2.2-5.1-5.1v-20.4v-8.2
			c0-2.8,2.2-5.1,5.1-5.1c2.8,0,5.1,2.2,5.1,5.1V162.6z"/>
	</g>
</g>
</svg>
