<?xml version="1.0" encoding="utf-8"?>
<!-- Generator: Adobe Illustrator 16.0.2, SVG Export Plug-In . SVG Version: 6.00 Build 0)  -->
<!DOCTYPE svg PUBLIC "-//W3C//DTD SVG 1.1//EN" "http://www.w3.org/Graphics/SVG/1.1/DTD/svg11.dtd">
<svg version="1.1" id="Capa_1" xmlns="http://www.w3.org/2000/svg" xmlns:xlink="http://www.w3.org/1999/xlink" x="0px" y="0px"
	 width="612px" height="792px" viewBox="0 0 612 792" enable-background="new 0 0 612 792" xml:space="preserve">
<g>
	<path fill="#4DE680" d="M527.946,332.111c0,178.483-201.454,343.72-201.454,343.72c-11.747,9.658-31.063,9.658-42.811,0
		c0,0-201.454-165.302-201.454-343.72c0-123.079,99.781-222.86,222.859-222.86S527.946,209.033,527.946,332.111z"/>
	<g>
		<g>
			<path fill="#FFFFFF" d="M340.587,329.501h35.762c29.954-16.445,41.179-46.204,45.159-61.474
				c1.306-5.221-2.153-10.441-7.505-11.225c-46.464-6.656-69.892,6.265-86.337,32.369c1.174,2.741,2.283,5.547,3.328,8.353
				c2.479,6.591,4.111,14.422,4.895,21.862c22.514-12.791,41.961-28.91,48.879-33.543
				C379.742,291.39,365.712,308.618,340.587,329.501z"/>
			<path fill="#FFFFFF" d="M153.424,225.935c3.98,21.536,19.97,79.16,78.572,103.566h70.153
				c-22.188-40.396-62.257-60.299-80.203-71.263c13.639,2.48,55.861,16.968,94.364,57.102c2.937,3.132,9.006,9.658,9.201,9.593
				c-4.372-63.236-62.975-114.464-124.905-114.464c-12.595,0-26.104,1.631-40.461,5.09
				C155.577,216.668,152.575,221.236,153.424,225.935z"/>
			<path fill="#FFFFFF" d="M456.096,349.34c0-4.96-4.046-9.006-9.006-9.006H168.695c-4.959,0-9.006,4.046-9.006,9.006v1.109
				c0,72.698,58.93,131.563,131.563,131.563h33.282c72.698,0,131.563-58.929,131.563-131.563V349.34L456.096,349.34z"/>
		</g>
	</g>
</g>
</svg>
